<svg xmlns="http://www.w3.org/2000/svg"  viewBox="0 0 64 64" width="256px" height="256px" baseProfile="basic"><line x1="32" x2="32" y1="41" y2="53" fill="none" stroke="#9c34c2" stroke-linecap="round" stroke-linejoin="round" stroke-miterlimit="10" stroke-width="4"/><line x1="23" x2="15" y1="40" y2="53" fill="none" stroke="#9c34c2" stroke-linecap="round" stroke-linejoin="round" stroke-miterlimit="10" stroke-width="4"/><line x1="42" x2="50" y1="40" y2="53" fill="none" stroke="#9c34c2" stroke-linecap="round" stroke-linejoin="round" stroke-miterlimit="10" stroke-width="4"/><path fill="#fd3c4f" d="M38.154,11.164c-0.358,0.685-0.76,1.287-1.126,1.774c-0.249,0.333-0.795,0.124-0.74-0.283	c0.243-1.769,0.087-4.702-2.707-7.236c-0.655-0.595-1.683-0.542-2.321,0.069c-3.726,3.562-9.25,6.478-9.148,12.111	c0.088,4.833,4.006,8.939,8.991,9.363c5.864,0.499,10.784-3.953,10.784-9.516c0-2.055-1.002-4.309-2.507-6.366	C39.071,10.656,38.395,10.701,38.154,11.164z"/><path fill="#ffce29" d="M36.387,22.604c0,2.731-1.97,4.396-4.4,4.396s-4.4-1.665-4.4-4.396c0-2.28,2.104-4.823,3.402-6.174	c0.551-0.574,1.445-0.574,1.996,0C34.283,17.782,36.387,20.324,36.387,22.604z"/><ellipse cx="32" cy="61" opacity=".3" rx="19" ry="3"/><path fill="#9c34c2" d="M52.963,20c1.823,0,3.262,1.591,3.007,3.38C54.314,35.034,44.213,44,32,44S9.686,35.034,8.029,23.38	C7.775,21.591,9.214,20,11.037,20H52.963z"/><path d="M55.625,25.201c-2.393-0.799-5.046,0.292-6.12,2.635c-2.331,5.084-6.769,8.884-12.174,10.424 c-2.483,0.707-3.964,3.171-3.532,5.658C44.558,43.132,53.353,35.389,55.625,25.201z" opacity=".15"/><path fill="#fff" d="M8.029,23.38c0.034,0.238,0.092,0.467,0.133,0.702C8.976,24.656,9.964,25,11.036,25H32 c2.762,0,5-2.238,5-5H11.036C9.214,20,7.775,21.591,8.029,23.38z" opacity=".3"/><line x1="15.5" x2="21.5" y1="22.5" y2="22.5" fill="none" stroke="#fff" stroke-linecap="round" stroke-linejoin="round" stroke-miterlimit="10" stroke-width="3"/></svg>