<svg xmlns="http://www.w3.org/2000/svg" x="0px" y="0px" width="100" height="100" viewBox="0,0,256,256">
<g fill="none" fill-rule="nonzero" stroke="none" stroke-width="1" stroke-linecap="butt" stroke-linejoin="miter" stroke-miterlimit="10" stroke-dasharray="" stroke-dashoffset="0" font-family="none" font-weight="none" font-size="none" text-anchor="none" style="mix-blend-mode: normal"><g transform="scale(2,2)"><path d="M19,24h90.3c4.8,0 8.2,4.7 6.6,9.2l-13.7,41.2c-1.9,5.7 -7.3,9.6 -13.3,9.6h-69.9z" ></path><circle cx="26" cy="117" r="7" ></circle><circle cx="76" cy="117" r="7" ></circle><path d="M76,107c-5.5,0 -10,4.5 -10,10c0,5.5 4.5,10 10,10c5.5,0 10,-4.5 10,-10c0,-5.5 -4.5,-10 -10,-10zM76,121c-2.2,0 -4,-1.8 -4,-4c0,-2.2 1.8,-4 4,-4c2.2,0 4,1.8 4,4c0,2.2 -1.8,4 -4,4z" fill-opacity="0.96863" fill="#ff7200"></path><path d="M117.4,25.2c-1.9,-2.6 -4.9,-4.2 -8.1,-4.2h-87.3v-7c0,-1.7 -1.3,-3 -3,-3h-10c-1.7,0 -3,1.3 -3,3c0,1.7 1.3,3 3,3h7v74c0,5.5 4.5,10 10,10h50c1.7,0 3,-1.3 3,-3c0,-1.7 -1.3,-3 -3,-3h-50c-2.2,0 -4,-1.8 -4,-4v-64h87.3c1.3,0 2.5,0.6 3.2,1.7c0.8,1.1 1,2.4 0.5,3.6l-13.7,41.2c-1.5,4.5 -5.6,7.5 -10.4,7.5h-55.9c-1.7,0 -3,1.3 -3,3c0,1.7 1.3,3 3,3h55.9c7.3,0 13.8,-4.7 16.1,-11.6l13.7,-41.2c1.1,-3.1 0.6,-6.4 -1.3,-9z" fill-opacity="0.96863" fill="#ff7200"></path><path d="M26,107c-5.5,0 -10,4.5 -10,10c0,5.5 4.5,10 10,10c5.5,0 10,-4.5 10,-10c0,-5.5 -4.5,-10 -10,-10zM26,121c-2.2,0 -4,-1.8 -4,-4c0,-2.2 1.8,-4 4,-4c2.2,0 4,1.8 4,4c0,2.2 -1.8,4 -4,4z" fill-opacity="0.96863" fill="#ff7200"></path></g></g>
</svg>