<svg xmlns="http://www.w3.org/2000/svg" x="0px" y="0px" width="100" height="100" viewBox="0,0,256,256">
<defs><linearGradient x1="32" y1="8" x2="32" y2="55.044" gradientUnits="userSpaceOnUse" id="color-1_44050_gr1"><stop offset="0" stop-color="#fffa1a"></stop><stop offset="1" stop-color="#ff6422"></stop></linearGradient><linearGradient x1="29" y1="8" x2="29" y2="55.044" gradientUnits="userSpaceOnUse" id="color-2_44050_gr2"><stop offset="0" stop-color="#fffa1a"></stop><stop offset="1" stop-color="#ff6422"></stop></linearGradient><linearGradient x1="26" y1="8" x2="26" y2="55.044" gradientUnits="userSpaceOnUse" id="color-3_44050_gr3"><stop offset="0" stop-color="#fffa1a"></stop><stop offset="1" stop-color="#ff6422"></stop></linearGradient><linearGradient x1="23" y1="8" x2="23" y2="55.044" gradientUnits="userSpaceOnUse" id="color-4_44050_gr4"><stop offset="0" stop-color="#fffa1a"></stop><stop offset="1" stop-color="#ff6422"></stop></linearGradient><linearGradient x1="37" y1="45.875" x2="37" y2="52.136" gradientUnits="userSpaceOnUse" id="color-5_44050_gr5"><stop offset="0" stop-color="#6dc7ff"></stop><stop offset="1" stop-color="#e6abff"></stop></linearGradient><linearGradient x1="19" y1="45.875" x2="19" y2="52.136" gradientUnits="userSpaceOnUse" id="color-6_44050_gr6"><stop offset="0" stop-color="#6dc7ff"></stop><stop offset="1" stop-color="#e6abff"></stop></linearGradient></defs><g fill="none" fill-rule="nonzero" stroke="none" stroke-width="1" stroke-linecap="butt" stroke-linejoin="miter" stroke-miterlimit="10" stroke-dasharray="" stroke-dashoffset="0" font-family="none" font-weight="none" font-size="none" text-anchor="none" style="mix-blend-mode: normal"><g transform="scale(4,4)"><path d="M55,18h-35v-5c0,-1.654 -1.346,-3 -3,-3h-8c-1.654,0 -3,1.346 -3,3c0,1.654 1.346,3 3,3h9v3v1v4h27v-2h-25v-2h35c0.552,0 1,0.448 1,1v4c0,0.939 -0.448,1.836 -1.199,2.4l-13.335,10c-0.515,0.387 -1.154,0.6 -1.799,0.6h-18.667c-1.654,0 -3,1.346 -3,3v3.101c-2.279,0.465 -4,2.484 -4,4.899c0,2.757 2.243,5 5,5c2.415,0 4.434,-1.721 4.899,-4h8.202c0.465,2.279 2.484,4 4.899,4c2.757,0 5,-2.243 5,-5c0,-2.757 -2.243,-5 -5,-5c-2.415,0 -4.434,1.721 -4.899,4h-8.202c-0.399,-1.956 -1.943,-3.5 -3.899,-3.899v-3.101c0,-0.552 0.448,-1 1,-1h18.667c1.075,0 2.141,-0.355 2.999,-1l13.335,-10c1.252,-0.939 1.999,-2.436 1.999,-4v-4c0,-1.654 -1.346,-3 -3,-3zM9,14c-0.552,0 -1,-0.448 -1,-1c0,-0.552 0.448,-1 1,-1h8c0.552,0 1,0.448 1,1v1zM37,46c1.654,0 3,1.346 3,3c0,1.654 -1.346,3 -3,3c-1.654,0 -3,-1.346 -3,-3c0,-1.654 1.346,-3 3,-3zM22,49c0,1.654 -1.346,3 -3,3c-1.654,0 -3,-1.346 -3,-3c0,-1.654 1.346,-3 3,-3c1.654,0 3,1.346 3,3z" fill="url(#color-1_44050_gr1)"></path><path d="M18,26h22v2h-22z" fill="url(#color-2_44050_gr2)"></path><path d="M18,30h16v2h-16z" fill="url(#color-3_44050_gr3)"></path><path d="M18,34h10v2h-10z" fill="url(#color-4_44050_gr4)"></path><path d="M37,46c-1.65685,0 -3,1.34315 -3,3c0,1.65685 1.34315,3 3,3c1.65685,0 3,-1.34315 3,-3c0,-1.65685 -1.34315,-3 -3,-3z" fill="url(#color-5_44050_gr5)"></path><path d="M19,46c-1.65685,0 -3,1.34315 -3,3c0,1.65685 1.34315,3 3,3c1.65685,0 3,-1.34315 3,-3c0,-1.65685 -1.34315,-3 -3,-3z" fill="url(#color-6_44050_gr6)"></path></g></g>
</svg>