<svg xmlns="http://www.w3.org/2000/svg" x="0px" y="0px" width="100" height="100" viewBox="0 0 32 32">
<polygon fill="#ed0049" points="25,17 21,17 21,13"></polygon><polygon fill="#ed0049" points="24.828,7 19.288,7 0,1.327 0,5.429 18.712,11 23.172,11 28,15.828 28,17 32,17 32,14.172"></polygon><path fill="#0f518c" d="M28,19c0,1.239-0.931,2.259-2.164,2.37l-0.298,0.027l-5.861,1.982L17.93,26H11H7.663H2.908 l-2.571,4H20.07l2.253-3.38l4.197-1.304C29.667,24.874,32,22.213,32,19H28z"></path><polygon fill="#0f518c" points="17.201,12.959 0,7.225 0,11.442 10.799,15.041 4.399,24 9.315,24"></polygon>
</svg>