<svg xmlns="http://www.w3.org/2000/svg" width="54" height="34" viewBox="0 0 54 34" fill="none">
  <g clip-path="url(#clip0_32_3524)">
    <path d="M50.4686 0H3.53142C1.58107 0 0 1.58107 0 3.53142V30.4585C0 32.4089 1.58107 33.9899 3.53142 33.9899H50.4686C52.4189 33.9899 54 32.4089 54 30.4585V3.53142C54 1.58107 52.4189 0 50.4686 0Z" fill="#2478BC"/>
    <path d="M10.0254 11.4989L5.03711 22.538H11.007L11.7475 20.7775H13.4392L14.1797 22.538H20.7529V21.1942L21.3384 22.538H24.7389L25.3244 21.1661V22.538H38.9949L40.6596 20.8234L42.2158 22.538L49.2373 22.5518L44.2335 17.0492L49.2373 11.4989H42.3249L40.7055 13.1813L39.1981 11.4989H24.3273L23.0507 14.3455L21.7436 11.4966H15.7841V12.7956L15.1211 11.4983L10.0254 11.4989ZM11.1809 13.066H14.0918L17.4 20.5519V13.066H20.5887L23.1448 18.4331L25.4984 13.066H28.671V20.9876H26.7406L26.7245 14.7806L23.9117 20.9876H22.1845L19.3545 14.7806V20.9876H15.3823L14.6297 19.2115H10.5616L9.81016 20.9858H7.68224L11.1809 13.066ZM30.4396 13.066H38.29L40.6912 15.66L43.1692 13.066H45.5704L41.9225 17.0474L45.5704 20.983H43.059L40.6579 18.3591L38.1666 20.983H30.4396V13.066ZM12.5971 14.4063L11.2579 17.5698H13.9368L12.5971 14.4063ZM32.3781 14.7065V16.1525H36.6609V17.7638H32.3781V19.3424H37.1821L39.414 17.0176L37.2768 14.7048H32.3781V14.7065Z" fill="white"/>
  </g>
  <defs>
    <clipPath id="clip0_32_3524">
      <rect width="54" height="33.9899" fill="white"/>
    </clipPath>
  </defs>
</svg>