<svg xmlns="http://www.w3.org/2000/svg" width="163" height="112" viewBox="0 0 163 112" fill="none">
  <g clip-path="url(#clip0_22_3605)">
    <path d="M156.699 63.4914C158.082 63.4928 159.409 64.0432 160.387 65.0217C161.365 66.0003 161.916 67.3271 161.917 68.7112V105.697C161.916 107.081 161.365 108.408 160.387 109.387C159.409 110.365 158.082 110.916 156.699 110.917H6.30012C4.9169 110.915 3.59083 110.365 2.61274 109.386C1.63465 108.408 1.0844 107.081 1.08268 105.697V68.7112C1.0844 67.3273 1.63465 66.0007 2.61274 65.0221C3.59083 64.0436 4.9169 63.4931 6.30012 63.4914H156.699ZM156.699 62.4082H6.30012C4.62922 62.4082 3.02677 63.0723 1.84527 64.2543C0.663762 65.4363 0 67.0395 0 68.7112V105.697C0 107.369 0.663762 108.972 1.84527 110.154C3.02677 111.336 4.62922 112 6.30012 112H156.699C158.37 112 159.972 111.336 161.154 110.154C162.336 108.972 163 107.369 163 105.697V68.7112C163 67.0394 162.336 65.4362 161.154 64.2542C159.972 63.0722 158.37 62.4082 156.699 62.4082Z" fill="black"/>
    <path d="M17.1623 82.6708C14.5173 87.2612 16.1987 94.2282 19.123 98.4526C20.5825 100.564 22.0603 102.46 24.0839 102.46H24.1997C25.1503 102.422 25.8378 102.13 26.5015 101.847C27.2475 101.529 28.0172 101.197 29.2298 101.197C30.3807 101.197 31.1159 101.516 31.8283 101.823C32.5407 102.131 33.2498 102.441 34.3185 102.42C36.5986 102.378 37.9996 100.332 39.2328 98.5273C40.1579 97.167 40.8831 95.6809 41.3862 94.1145L41.3949 94.0874C41.4151 94.0273 41.4123 93.9618 41.3871 93.9036C41.3619 93.8454 41.3161 93.7986 41.2585 93.7722L41.24 93.7646C40.8384 93.6 37.3164 92.0315 37.2796 87.7768C37.246 84.3161 39.9213 82.4834 40.4583 82.1508L40.4832 82.1346C40.5121 82.1162 40.537 82.0922 40.5564 82.0639C40.5758 82.0357 40.5892 82.0038 40.596 81.9702C40.6028 81.9367 40.6027 81.902 40.5958 81.8685C40.5889 81.8349 40.5753 81.8031 40.5558 81.775C38.7087 79.067 35.8775 78.663 34.7375 78.6143C34.5691 78.5972 34.4 78.5889 34.2307 78.5894C32.8915 78.5894 31.6085 79.0952 30.5789 79.5014C29.8675 79.7819 29.2526 80.0246 28.8293 80.0246C28.3529 80.0246 27.7347 79.7787 27.0201 79.4949C26.063 79.1158 24.9782 78.6847 23.8305 78.6847H23.7493C21.0751 78.7237 18.5524 80.252 17.1623 82.6708Z" fill="black"/>
    <path d="M34.7362 71.1642C33.1197 71.2303 31.1807 72.2257 30.0211 73.584C29.0359 74.7246 28.0723 76.6288 28.3278 78.5471C28.3365 78.6044 28.3643 78.657 28.4068 78.6964C28.4493 78.7357 28.5039 78.7595 28.5616 78.7638C28.6699 78.7724 28.7782 78.7768 28.893 78.7768C30.4737 78.7768 32.1789 77.9015 33.3438 76.4934C34.5694 75.0062 35.1844 73.0966 35.0014 71.3874C34.9926 71.3239 34.9607 71.266 34.9117 71.2248C34.8627 71.1836 34.8002 71.162 34.7362 71.1642Z" fill="black"/>
    <path d="M53.334 72.1556H56.399C57.1432 72.1413 57.8792 72.3125 58.5406 72.6539C59.1448 72.968 59.649 73.4453 59.9957 74.0317C60.3372 74.6423 60.5165 75.3304 60.5165 76.0301C60.5165 76.7299 60.3372 77.4179 59.9957 78.0286C59.6493 78.6154 59.1451 79.0932 58.5406 79.4075C57.879 79.7484 57.1431 79.9196 56.399 79.9057H53.334V72.1556ZM56.3557 79.3966C57.0114 79.4102 57.6605 79.2641 58.2472 78.9709C58.7745 78.7046 59.2131 78.2906 59.5096 77.7794C59.7996 77.242 59.9514 76.6409 59.9514 76.0301C59.9514 75.4194 59.7996 74.8182 59.5096 74.2808C59.2132 73.7695 58.7746 73.3555 58.2472 73.0893C57.6608 72.7952 57.0115 72.6487 56.3557 72.6625H53.8981V79.3966H56.3557Z" fill="black"/>
    <path d="M63.0787 79.5732C62.6439 79.3265 62.2857 78.9644 62.0436 78.5269C61.7969 78.0615 61.668 77.5427 61.668 77.0159C61.668 76.4891 61.7969 75.9703 62.0436 75.5048C62.2857 75.0674 62.6439 74.7053 63.0787 74.4585C63.5318 74.2112 64.0398 74.0815 64.556 74.0815C65.0722 74.0815 65.5801 74.2112 66.0333 74.4585C66.4678 74.7051 66.8257 75.0673 67.0672 75.5048C67.3146 75.97 67.444 76.4889 67.444 77.0159C67.444 77.5428 67.3146 78.0617 67.0672 78.5269C66.8257 78.9645 66.4678 79.3266 66.0333 79.5732C65.5801 79.8206 65.0722 79.9502 64.556 79.9502C64.0398 79.9502 63.5318 79.8206 63.0787 79.5732ZM65.7453 79.14C66.0964 78.9329 66.3837 78.6331 66.5757 78.2734C66.7757 77.8829 66.88 77.4503 66.88 77.0115C66.88 76.5727 66.7757 76.1402 66.5757 75.7496C66.3837 75.39 66.0964 75.0902 65.7453 74.8831C65.3815 74.6789 64.9714 74.5717 64.5543 74.5717C64.1372 74.5717 63.7271 74.6789 63.3634 74.8831C63.0126 75.0902 62.7257 75.39 62.5341 75.7496C62.3341 76.1402 62.2298 76.5727 62.2298 77.0115C62.2298 77.4503 62.3341 77.8829 62.5341 78.2734C62.7257 78.633 63.0126 78.9329 63.3634 79.14C63.7271 79.3442 64.1372 79.4514 64.5543 79.4514C64.9714 79.4514 65.3815 79.3442 65.7453 79.14Z" fill="black"/>
    <path d="M77.2513 74.126L75.0599 79.9058H74.5402L72.5914 74.8907L70.6328 79.9058H70.1229L67.9326 74.126H68.4631L70.3871 79.2884L72.3565 74.1292H72.8318L74.7914 79.2775L76.7402 74.1292L77.2513 74.126Z" fill="black"/>
    <path d="M83.0688 74.7129C83.4888 75.1332 83.6993 75.7383 83.7 76.5283V79.9057H83.1456V76.5727C83.1456 75.9228 82.9818 75.4282 82.6541 75.0888C82.3264 74.7494 81.867 74.5797 81.2758 74.5797C80.5974 74.5797 80.0625 74.783 79.6713 75.1895C79.2801 75.5961 79.0845 76.142 79.0845 76.8273V79.9057H78.5312V74.1259H79.0628V75.3769C79.2571 74.9769 79.5677 74.645 79.9539 74.4248C80.3816 74.1876 80.8649 74.069 81.3538 74.0815C82.0763 74.0815 82.648 74.2919 83.0688 74.7129Z" fill="black"/>
    <path d="M85.9795 71.6909H86.5327V79.9057H85.9795V71.6909Z" fill="black"/>
    <path d="M89.647 79.5732C89.2125 79.3261 88.8544 78.9641 88.612 78.5269C88.3653 78.0615 88.2363 77.5427 88.2363 77.0159C88.2363 76.4891 88.3653 75.9703 88.612 75.5048C88.8544 75.0676 89.2125 74.7056 89.647 74.4585C90.1002 74.2112 90.6081 74.0815 91.1243 74.0815C91.6405 74.0815 92.1485 74.2112 92.6017 74.4585C93.0362 74.7056 93.3943 75.0676 93.6367 75.5048C93.8834 75.9703 94.0123 76.4891 94.0123 77.0159C94.0123 77.5427 93.8834 78.0615 93.6367 78.5269C93.3943 78.9641 93.0362 79.3261 92.6017 79.5732C92.1485 79.8206 91.6405 79.9502 91.1243 79.9502C90.6081 79.9502 90.1002 79.8206 89.647 79.5732ZM92.3137 79.14C92.6648 78.9329 92.9521 78.6331 93.1441 78.2734C93.3441 77.8829 93.4484 77.4503 93.4484 77.0115C93.4484 76.5727 93.3441 76.1402 93.1441 75.7496C92.9521 75.39 92.6648 75.0902 92.3137 74.8831C91.95 74.6787 91.5399 74.5714 91.1227 74.5714C90.7056 74.5714 90.2955 74.6787 89.9318 74.8831C89.5807 75.0902 89.2934 75.39 89.1013 75.7496C88.9013 76.1402 88.797 76.5727 88.797 77.0115C88.797 77.4503 88.9013 77.8829 89.1013 78.2734C89.2934 78.6331 89.5807 78.9329 89.9318 79.14C90.2955 79.3444 90.7056 79.4517 91.1227 79.4517C91.5399 79.4517 91.95 79.3444 92.3137 79.14Z" fill="black"/>
    <path d="M99.3026 74.6306C99.6859 74.9967 99.8775 75.534 99.8775 76.2424V79.9068H99.347V78.8767C99.1632 79.2156 98.8818 79.4914 98.5394 79.6685C98.1447 79.8663 97.7073 79.9634 97.2661 79.9512C96.6237 79.9512 96.1167 79.7995 95.745 79.4962C95.5738 79.352 95.4355 79.1729 95.3392 78.9708C95.243 78.7687 95.191 78.5484 95.1868 78.3246C95.1826 78.1008 95.2263 77.8786 95.3149 77.6731C95.4035 77.4675 95.535 77.2833 95.7005 77.1328C96.0441 76.8338 96.592 76.6843 97.3441 76.6843H99.3243V76.2197C99.3243 75.681 99.1799 75.2715 98.8912 74.9913C98.6025 74.7111 98.1763 74.5707 97.6126 74.57C97.2365 74.5685 96.8632 74.6361 96.5115 74.7693C96.1835 74.8886 95.8811 75.069 95.6204 75.3011L95.3444 74.9025C95.648 74.6347 96.0016 74.4297 96.3848 74.2992C96.7933 74.1544 97.2236 74.0811 97.657 74.0825C98.3708 74.0818 98.9194 74.2645 99.3026 74.6306ZM98.5664 79.1648C98.9127 78.9301 99.1775 78.5936 99.3243 78.2018V77.1187H97.3549C96.7868 77.1187 96.3754 77.2219 96.1206 77.4285C95.995 77.5309 95.895 77.6613 95.8288 77.8094C95.7626 77.9574 95.7321 78.1189 95.7395 78.2809C95.7328 78.4524 95.7674 78.6229 95.8405 78.7781C95.9137 78.9333 96.0231 79.0685 96.1596 79.1724C96.4404 79.389 96.8352 79.4973 97.3441 79.4973C97.7756 79.51 98.2011 79.3939 98.5664 79.1637V79.1648Z" fill="black"/>
    <path d="M107.302 71.6909V79.9057H106.761V78.5431C106.548 78.9764 106.213 79.3381 105.797 79.584C105.37 79.8319 104.883 79.9585 104.39 79.9501C103.878 79.957 103.374 79.8268 102.929 79.5732C102.499 79.3271 102.145 78.9668 101.906 78.5322C101.663 78.0637 101.536 77.5436 101.536 77.0158C101.536 76.488 101.663 75.9679 101.906 75.4994C102.142 75.0629 102.497 74.7021 102.929 74.4584C103.375 74.2084 103.879 74.0803 104.39 74.0869C104.878 74.0794 105.358 74.206 105.779 74.453C106.189 74.6971 106.524 75.0493 106.747 75.4712V71.6963L107.302 71.6909ZM105.617 79.141C105.968 78.9339 106.255 78.634 106.447 78.2744C106.647 77.8839 106.751 77.4514 106.751 77.0125C106.751 76.5737 106.647 76.1412 106.447 75.7506C106.255 75.391 105.968 75.0912 105.617 74.8841C105.254 74.6799 104.844 74.5727 104.427 74.5727C104.009 74.5727 103.599 74.6799 103.236 74.8841C102.885 75.0912 102.598 75.391 102.406 75.7506C102.206 76.1412 102.102 76.5737 102.102 77.0125C102.102 77.4514 102.206 77.8839 102.406 78.2744C102.598 78.634 102.885 78.9339 103.236 79.141C103.599 79.3452 104.009 79.4524 104.427 79.4524C104.844 79.4524 105.254 79.3452 105.617 79.141Z" fill="black"/>
    <path d="M113.261 79.5732C112.827 79.3266 112.469 78.9645 112.227 78.5269C111.98 78.0617 111.851 77.5428 111.851 77.0159C111.851 76.4889 111.98 75.97 112.227 75.5048C112.469 75.0673 112.827 74.7051 113.261 74.4585C113.714 74.2112 114.222 74.0815 114.739 74.0815C115.255 74.0815 115.763 74.2112 116.216 74.4585C116.651 74.7053 117.009 75.0674 117.251 75.5048C117.498 75.9703 117.627 76.4891 117.627 77.0159C117.627 77.5427 117.498 78.0615 117.251 78.5269C117.009 78.9644 116.651 79.3265 116.216 79.5732C115.763 79.8206 115.255 79.9502 114.739 79.9502C114.222 79.9502 113.714 79.8206 113.261 79.5732ZM115.929 79.14C116.28 78.9329 116.567 78.633 116.758 78.2734C116.958 77.8829 117.063 77.4503 117.063 77.0115C117.063 76.5727 116.958 76.1402 116.758 75.7496C116.567 75.39 116.28 75.0902 115.929 74.8831C115.565 74.6789 115.155 74.5717 114.738 74.5717C114.321 74.5717 113.911 74.6789 113.547 74.8831C113.196 75.0902 112.909 75.39 112.717 75.7496C112.517 76.1402 112.412 76.5727 112.412 77.0115C112.412 77.4503 112.517 77.8829 112.717 78.2734C112.909 78.6331 113.196 78.9329 113.547 79.14C113.911 79.3442 114.321 79.4514 114.738 79.4514C115.155 79.4514 115.565 79.3442 115.929 79.14Z" fill="black"/>
    <path d="M123.879 74.7129C124.301 75.1332 124.511 75.7383 124.51 76.5283V79.9056H123.957V76.5727C123.957 75.9228 123.793 75.4282 123.465 75.0888C123.136 74.7494 122.677 74.5797 122.086 74.5797C121.407 74.5797 120.872 74.7829 120.482 75.1895C120.091 75.596 119.896 76.142 119.896 76.8273V79.9056H119.343V74.1258H119.873V75.3769C120.068 74.9769 120.378 74.645 120.764 74.4248C121.192 74.1878 121.675 74.0693 122.164 74.0814C122.887 74.0814 123.459 74.2919 123.879 74.7129Z" fill="black"/>
    <path d="M132.5 79.5396C132.349 79.6791 132.17 79.7831 131.974 79.844C131.762 79.9157 131.54 79.9523 131.316 79.9523C130.811 79.9523 130.423 79.8137 130.153 79.5364C129.883 79.2591 129.747 78.8735 129.744 78.3796V74.6047H128.679V74.1281H129.741V72.8662H130.303V74.1281H132.143V74.6047H130.303V78.3243C130.303 78.7013 130.393 78.9872 130.574 79.1822C130.756 79.3772 131.023 79.475 131.377 79.4757C131.706 79.4859 132.027 79.3696 132.273 79.1508L132.5 79.5396Z" fill="black"/>
    <path d="M138.575 74.713C138.995 75.1332 139.206 75.7384 139.206 76.5284V79.9057H138.652V76.5728C138.652 75.9229 138.488 75.4282 138.16 75.0888C137.831 74.7494 137.372 74.5797 136.783 74.5797C136.103 74.5797 135.569 74.783 135.178 75.1896C134.788 75.5961 134.592 76.142 134.591 76.8273V79.9057H134.038V71.6909H134.591V75.3325C134.784 74.9404 135.093 74.6177 135.477 74.4086C135.902 74.1831 136.378 74.0712 136.86 74.0836C137.583 74.0822 138.154 74.292 138.575 74.713Z" fill="black"/>
    <path d="M146.376 77.1492H141.408C141.415 77.5728 141.533 77.9872 141.751 78.3504C141.96 78.6961 142.259 78.9775 142.617 79.1639C142.97 79.3384 143.355 79.436 143.749 79.4502C144.142 79.4644 144.533 79.3949 144.897 79.2462C145.211 79.1153 145.487 78.9079 145.7 78.6429L146.024 79.009C145.77 79.3142 145.445 79.5535 145.078 79.7065C144.634 79.8876 144.156 79.9694 143.678 79.9464C143.199 79.9234 142.731 79.7961 142.307 79.5733C141.865 79.3307 141.499 78.9704 141.25 78.5324C140.99 78.0698 140.858 77.5464 140.868 77.0159C140.858 76.4883 140.982 75.9668 141.227 75.4995C141.455 75.0663 141.798 74.7043 142.218 74.4532C142.648 74.207 143.135 74.0771 143.631 74.0762C144.126 74.0752 144.613 74.2033 145.045 74.4478C145.462 74.6952 145.803 75.0532 146.03 75.4822C146.275 75.946 146.399 76.4643 146.389 76.9889L146.376 77.1492ZM142.537 74.8399C142.214 75.0204 141.944 75.2845 141.758 75.6046C141.558 75.9433 141.443 76.3246 141.42 76.717H145.847C145.831 76.3259 145.717 75.9451 145.515 75.61C145.32 75.2867 145.043 75.0203 144.713 74.8376C144.383 74.6549 144.01 74.5623 143.633 74.5691C143.25 74.5636 142.873 74.6568 142.537 74.8399Z" fill="black"/>
    <path d="M61.527 97.037H54.9085L53.6039 100.102H51.0693L57.0241 86.8584H59.445L65.4203 100.102H62.8522L61.527 97.037ZM60.7139 95.1078L58.2183 89.3183L55.7411 95.1078H60.7139Z" fill="black"/>
    <path d="M75.1139 90.5292C75.8814 90.9504 76.5142 91.5801 76.9393 92.3457C77.3803 93.1278 77.6008 94.0304 77.6008 95.0536C77.6192 96.0009 77.3912 96.9366 76.9393 97.7691C76.5167 98.5388 75.8835 99.1719 75.1139 99.5943C74.3042 100.032 73.3955 100.253 72.4754 100.238C71.1148 100.238 70.0372 99.7838 69.2425 98.8761V103.776H66.8779V89.9995H69.131V91.3243C69.5148 90.8476 70.0122 90.4751 70.5775 90.2411C71.1806 89.9959 71.8266 89.8736 72.4776 89.8815C73.3973 89.8674 74.3053 90.0905 75.1139 90.5292ZM74.356 97.3402C74.9169 96.7625 75.1976 95.9992 75.1984 95.0504C75.1991 94.1015 74.9183 93.3386 74.356 92.7616C73.7952 92.1839 73.0799 91.8951 72.2101 91.8951C71.6741 91.8872 71.1456 92.0214 70.6782 92.284C70.2204 92.5433 69.8451 92.9266 69.5955 93.3899C69.3339 93.906 69.1976 94.4766 69.1976 95.0552C69.1976 95.6339 69.3339 96.2045 69.5955 96.7206C69.8451 97.1839 70.2204 97.5672 70.6782 97.8266C71.1457 98.0888 71.6742 98.2226 72.2101 98.2143C73.0806 98.2114 73.7963 97.9201 74.3571 97.3402H74.356Z" fill="black"/>
    <path d="M88.0867 90.5293C88.8541 90.9505 89.4869 91.5802 89.9121 92.3458C90.3531 93.1278 90.5736 94.0304 90.5736 95.0537C90.592 96.0009 90.364 96.9366 89.9121 97.7692C89.4894 98.5388 88.8562 99.172 88.0867 99.5943C87.277 100.032 86.3683 100.254 85.4482 100.238C84.0869 100.238 83.0092 99.7839 82.2153 98.8762V103.776H79.8496V89.9996H82.1005V91.3243C82.4843 90.8476 82.9817 90.4752 83.547 90.2411C84.1501 89.9959 84.7961 89.8737 85.4471 89.8815C86.368 89.8669 87.2771 90.09 88.0867 90.5293ZM87.3288 97.3403C87.8896 96.7626 88.1704 95.9993 88.1711 95.0504C88.1718 94.1016 87.8911 93.3387 87.3288 92.7617C86.768 92.184 86.0527 91.8951 85.1829 91.8951C84.6469 91.8873 84.1183 92.0214 83.6509 92.284C83.1935 92.5438 82.8183 92.927 82.5682 93.3899C82.3077 93.9064 82.1719 94.4768 82.1719 95.0553C82.1719 95.6338 82.3077 96.2042 82.5682 96.7207C82.8183 97.1836 83.1935 97.5668 83.6509 97.8266C84.1184 98.0888 84.647 98.2226 85.1829 98.2144C86.0534 98.2115 86.769 97.9201 87.3299 97.3403H87.3288Z" fill="black"/>
    <path d="M99.4138 99.8564C98.4625 99.5676 97.7094 99.183 97.1543 98.7028L98.0053 96.791C98.6061 97.2518 99.2809 97.6071 100.001 97.8417C100.762 98.1065 101.563 98.2423 102.37 98.2436C103.353 98.2436 104.087 98.0861 104.573 97.7713C105.059 97.4565 105.301 97.0402 105.3 96.5224C105.305 96.3461 105.271 96.1708 105.201 96.009C105.131 95.8472 105.026 95.7026 104.894 95.5854C104.595 95.3238 104.244 95.1275 103.864 95.0092C103.446 94.8706 102.879 94.7128 102.162 94.5359C101.331 94.3491 100.513 94.1089 99.7127 93.8166C99.0922 93.5798 98.5399 93.1932 98.1049 92.6912C97.6567 92.18 97.4329 91.4893 97.4336 90.6191C97.4271 89.9093 97.6346 89.2139 98.0291 88.6239C98.4268 88.0245 99.0255 87.5483 99.8253 87.1952C100.625 86.8421 101.606 86.6655 102.767 86.6655C103.57 86.6652 104.371 86.7667 105.149 86.9677C105.867 87.141 106.551 87.4339 107.172 87.8343L106.397 89.745C105.828 89.4089 105.218 89.1482 104.581 88.9694C103.985 88.7976 103.368 88.7083 102.747 88.7041C101.776 88.7041 101.054 88.868 100.582 89.1958C100.11 89.5237 99.8736 89.9569 99.8729 90.4956C99.8675 90.6707 99.9013 90.8448 99.9717 91.0053C100.042 91.1657 100.147 91.3083 100.28 91.4228C100.581 91.6802 100.932 91.8733 101.311 91.9904C101.726 92.1298 102.294 92.2876 103.013 92.4638C103.835 92.6433 104.643 92.8803 105.432 93.1732C106.054 93.4132 106.609 93.7992 107.05 94.2986C107.498 94.8041 107.721 95.4854 107.721 96.3426C107.728 97.0498 107.52 97.7424 107.126 98.3291C106.729 98.9213 106.127 99.3942 105.32 99.7481C104.513 100.102 103.529 100.278 102.37 100.278C101.369 100.285 100.373 100.143 99.4138 99.8564Z" fill="black"/>
    <path d="M116.011 99.5543C115.712 99.7918 115.368 99.9654 115 100.065C114.591 100.18 114.167 100.237 113.742 100.235C112.632 100.235 111.775 99.9457 111.17 99.368C110.566 98.7903 110.263 97.9451 110.262 96.8323V91.97H108.595V90.0787H110.259V87.7705H112.623V90.0787H115.33V91.97H112.623V96.776C112.623 97.2677 112.743 97.6429 112.983 97.9014C113.222 98.1599 113.569 98.2892 114.022 98.2892C114.498 98.3064 114.966 98.1596 115.346 97.8732L116.011 99.5543Z" fill="black"/>
    <path d="M119.394 99.5728C118.594 99.1513 117.929 98.5132 117.474 97.7314C117.021 96.9137 116.783 95.9941 116.783 95.0592C116.783 94.1243 117.021 93.2048 117.474 92.3871C117.93 91.6063 118.595 90.9685 119.394 90.5457C120.252 90.1105 121.201 89.8838 122.164 89.8838C123.127 89.8838 124.076 90.1105 124.935 90.5457C125.733 90.9692 126.398 91.6068 126.854 92.3871C127.306 93.2051 127.543 94.1245 127.543 95.0592C127.543 95.9939 127.306 96.9134 126.854 97.7314C126.399 98.5127 125.734 99.1506 124.935 99.5728C124.076 100.008 123.127 100.235 122.164 100.235C121.201 100.235 120.252 100.008 119.394 99.5728ZM124.31 97.3404C124.877 96.7627 125.161 95.9994 125.161 95.0506C125.161 94.1017 124.877 93.3388 124.31 92.7618C123.743 92.1841 123.024 91.8953 122.154 91.8953C121.285 91.8953 120.569 92.1841 120.008 92.7618C119.447 93.3395 119.166 94.1024 119.166 95.0506C119.166 95.9987 119.447 96.762 120.008 97.3404C120.569 97.9181 121.285 98.2069 122.154 98.2069C123.024 98.2069 123.743 97.9181 124.31 97.3404Z" fill="black"/>
    <path d="M135.657 89.8857V92.1377C135.476 92.1017 135.293 92.0825 135.109 92.0803C134.188 92.0803 133.469 92.3485 132.952 92.8851C132.435 93.4216 132.177 94.1939 132.177 95.202V100.102H129.813V89.9995H132.063V91.4748C132.745 90.4154 133.942 89.8857 135.657 89.8857Z" fill="black"/>
    <path d="M147.023 95.8075H139.099C139.215 96.516 139.604 97.1509 140.182 97.5763C140.768 98.0096 141.497 98.2262 142.367 98.2262C143.475 98.2262 144.389 97.8605 145.109 97.129L146.376 98.5858C145.914 99.1339 145.322 99.5567 144.654 99.8152C143.906 100.103 143.11 100.244 142.309 100.231C141.2 100.231 140.224 100.011 139.378 99.5693C138.563 99.1562 137.883 98.5169 137.421 97.728C136.954 96.9139 136.716 95.9888 136.731 95.0504C136.717 94.1206 136.949 93.2037 137.402 92.3922C137.839 91.6167 138.484 90.9789 139.265 90.5509C140.088 90.1026 141.013 89.8746 141.951 89.889C142.871 89.8725 143.781 90.0965 144.588 90.5389C145.355 90.9655 145.985 91.602 146.404 92.3738C146.837 93.1624 147.053 94.0737 147.053 95.1078C147.061 95.2713 147.048 95.5053 147.023 95.8075ZM140.035 92.4497C139.507 92.9062 139.166 93.5432 139.081 94.2369H144.811C144.733 93.5499 144.403 92.9164 143.884 92.4594C143.368 92.0045 142.725 91.7774 141.956 91.7781C141.255 91.7582 140.571 91.9972 140.035 92.4497Z" fill="black"/>
    <path d="M39.2217 24.1632L33.0114 20.5801L27.9033 25.5204L32.5719 30.0351L39.2217 26.1942C39.3995 26.0914 39.5472 25.9436 39.6498 25.7656C39.7525 25.5876 39.8066 25.3858 39.8066 25.1803C39.8066 24.9748 39.7525 24.773 39.6498 24.595C39.5472 24.4171 39.3995 24.2693 39.2217 24.1665V24.1632Z" fill="#FFD109"/>
    <path d="M31.9572 19.9684L25.1223 16.0224L10.1455 8.34375L27.0613 24.7029L31.9572 19.9684Z" fill="#06EF79"/>
    <path d="M10.3936 42.4507L25.1483 34.3193L31.5167 30.6409L27.0614 26.332L10.3936 42.4507Z" fill="#F93646"/>
    <path d="M9.14612 9.00537L9.12988 42.0443L26.22 25.5172L9.14612 9.00537Z" fill="#05D5FB"/>
    <path d="M156.7 1.08317C158.083 1.08489 159.409 1.63539 160.387 2.61392C161.365 3.59245 161.916 4.91913 161.917 6.30298V43.2879C161.916 44.6719 161.366 45.9989 160.388 46.9777C159.41 47.9564 158.083 48.5071 156.7 48.5088H6.30012C4.91671 48.5071 3.59049 47.9564 2.61237 46.9777C1.63425 45.9989 1.08412 44.6719 1.08268 43.2879V6.30298C1.0844 4.91913 1.63465 3.59245 2.61274 2.61392C3.59083 1.63539 4.9169 1.08489 6.30012 1.08317H156.7ZM156.7 0H6.30012C4.62922 0 3.02677 0.664062 1.84527 1.8461C0.663762 3.02814 9.30425e-08 4.63133 9.30425e-08 6.30298V43.2879C-0.000142102 44.1157 0.162703 44.9354 0.479251 45.7003C0.795798 46.4651 1.25986 47.1601 1.8449 47.7455C2.42993 48.3309 3.1245 48.7952 3.88893 49.1121C4.65337 49.4289 5.47269 49.592 6.30012 49.592H156.7C157.527 49.592 158.347 49.4289 159.111 49.1121C159.876 48.7952 160.57 48.3309 161.155 47.7455C161.74 47.1601 162.204 46.4651 162.521 45.7003C162.837 44.9354 163 44.1157 163 43.2879V6.30298C163 4.63133 162.336 3.02814 161.155 1.8461C159.973 0.664062 158.371 0 156.7 0Z" fill="black"/>
    <path d="M53.419 29.9564H55.6926V35.1156C54.9975 35.6613 54.2081 36.0747 53.3637 36.3352C52.4798 36.6185 51.5571 36.7621 50.6289 36.7609C49.3863 36.7792 48.1593 36.4834 47.0614 35.9009C46.0294 35.3524 45.168 34.5307 44.5713 33.5255C43.9774 32.4834 43.665 31.3044 43.665 30.1048C43.665 28.9052 43.9774 27.7263 44.5713 26.6842C45.1711 25.6762 46.0378 24.8538 47.0755 24.3077C48.1828 23.7243 49.4188 23.4286 50.67 23.4476C51.6813 23.4359 52.6853 23.6198 53.6268 23.9892C54.4868 24.3272 55.2536 24.8656 55.8636 25.5598L54.3479 27.0394C53.8857 26.5622 53.3308 26.1848 52.7172 25.9303C52.1037 25.6758 51.4445 25.5497 50.7805 25.5598C49.9353 25.5441 49.0997 25.7415 48.3509 26.1339C47.656 26.5027 47.0791 27.0602 46.6868 27.7424C46.2785 28.4633 46.0714 29.2807 46.087 30.1092C46.0748 30.9255 46.2819 31.7302 46.6868 32.4391C47.0821 33.1231 47.6578 33.6852 48.3509 34.0638C49.0901 34.4659 49.9208 34.6697 50.7621 34.6552C51.7726 34.6552 52.6596 34.4332 53.4233 33.9891L53.419 29.9564Z" fill="black"/>
    <path d="M60.3682 36.0579C59.5861 35.6452 58.9359 35.0206 58.4919 34.2555C58.0495 33.4563 57.8174 32.5576 57.8174 31.644C57.8174 30.7304 58.0495 29.8318 58.4919 29.0325C58.9378 28.2712 59.5877 27.6498 60.3682 27.2387C61.207 26.8131 62.1343 26.5913 63.0749 26.5913C64.0154 26.5913 64.9427 26.8131 65.7816 27.2387C66.5618 27.6491 67.2119 28.2692 67.6589 29.0292C68.1013 29.8285 68.3334 30.7271 68.3334 31.6408C68.3334 32.5544 68.1013 33.453 67.6589 34.2523C67.2147 35.0171 66.5645 35.6416 65.7827 36.0547C64.9438 36.4803 64.0165 36.7021 63.076 36.7021C62.1354 36.7021 61.2081 36.4803 60.3692 36.0547L60.3682 36.0579ZM65.1731 33.8764C65.7274 33.3096 66.0046 32.564 66.0046 31.6397C66.0046 30.7154 65.7274 29.9694 65.1731 29.4018C64.6188 28.835 63.9165 28.5516 63.0662 28.5516C62.2159 28.5516 61.5165 28.835 60.968 29.4018C60.4194 29.9694 60.1451 30.7154 60.1451 31.6397C60.1451 32.564 60.4191 33.3096 60.9669 33.8764C61.5162 34.444 62.2156 34.7274 63.0651 34.7267C63.9147 34.726 64.6173 34.4426 65.1731 33.8764Z" fill="black"/>
    <path d="M72.2881 36.0579C71.506 35.6452 70.8558 35.0206 70.4118 34.2555C69.9694 33.4563 69.7373 32.5576 69.7373 31.644C69.7373 30.7304 69.9694 29.8318 70.4118 29.0325C70.8577 28.2712 71.5076 27.6498 72.2881 27.2387C73.1269 26.8131 74.0542 26.5913 74.9948 26.5913C75.9353 26.5913 76.8626 26.8131 77.7015 27.2387C78.4817 27.6491 79.1319 28.2692 79.5789 29.0292C80.0212 29.8285 80.2533 30.7271 80.2533 31.6408C80.2533 32.5544 80.0212 33.453 79.5789 34.2523C79.1346 35.0171 78.4844 35.6416 77.7026 36.0547C76.8637 36.4803 75.9364 36.7021 74.9958 36.7021C74.0553 36.7021 73.128 36.4803 72.2891 36.0547L72.2881 36.0579ZM77.093 33.8764C77.6473 33.3096 77.9245 32.564 77.9245 31.6397C77.9245 30.7154 77.6473 29.9694 77.093 29.4018C76.5387 28.835 75.8364 28.5516 74.9861 28.5516C74.1359 28.5516 73.4364 28.835 72.8879 29.4018C72.34 29.9694 72.0661 30.7154 72.0661 31.6397C72.0661 32.564 72.34 33.3096 72.8879 33.8764C73.4371 34.444 74.1366 34.7274 74.9861 34.7267C75.8357 34.726 76.538 34.4426 77.093 33.8764Z" fill="black"/>
    <path d="M92.2662 26.7025V35.0787C92.2662 38.5549 90.492 40.2927 86.9437 40.292C86.032 40.297 85.124 40.1756 84.2457 39.9313C83.4785 39.7334 82.7609 39.3778 82.1388 38.8871L83.1738 37.154C83.6598 37.5411 84.2145 37.8329 84.8087 38.0141C85.4556 38.2282 86.1324 38.3379 86.8138 38.339C87.8965 38.339 88.6904 38.0924 89.1957 37.5992C89.7009 37.106 89.9536 36.3543 89.9536 35.344V34.8263C89.555 35.2583 89.0617 35.592 88.5125 35.8011C87.9168 36.0285 87.2836 36.1417 86.646 36.1348C85.7623 36.1475 84.8893 35.9409 84.1049 35.5336C83.3621 35.1468 82.7413 34.561 82.312 33.8417C81.8822 33.0818 81.6563 32.2235 81.6562 31.3504C81.6563 30.4773 81.8822 29.619 82.312 28.8591C82.7429 28.1454 83.3647 27.5665 84.1071 27.1878C84.8933 26.7862 85.7655 26.5828 86.6481 26.5953C87.3143 26.587 87.9758 26.7065 88.597 26.9473C89.1703 27.1731 89.6762 27.5423 90.0662 28.0196V26.7025H92.2662ZM89.1524 33.3867C89.7125 32.8625 89.9925 32.1812 89.9925 31.3428C89.9925 30.5174 89.7125 29.8459 89.1524 29.3281C88.5923 28.8103 87.8734 28.5515 86.9957 28.5515C86.1086 28.5515 85.3846 28.8103 84.8238 29.3281C84.263 29.8459 83.9829 30.5174 83.9836 31.3428C83.9836 32.1812 84.2637 32.8625 84.8238 33.3867C85.3839 33.911 86.1079 34.1728 86.9957 34.172C87.8726 34.172 88.5915 33.9103 89.1524 33.3867Z" fill="black"/>
    <path d="M95.297 22.855H97.6064V36.5755H95.2959L95.297 22.855Z" fill="black"/>
    <path d="M109.878 32.378H102.134C102.247 33.0728 102.629 33.6953 103.197 34.1111C103.774 34.5364 104.486 34.7491 105.332 34.7491C106.414 34.7491 107.308 34.3916 108.011 33.6767L109.25 35.0946C108.798 35.6307 108.22 36.0445 107.566 36.298C106.836 36.5794 106.058 36.7177 105.275 36.7053C104.193 36.7053 103.238 36.4886 102.411 36.0554C101.613 35.6508 100.949 35.0251 100.497 34.253C100.041 33.4577 99.8082 32.5539 99.8229 31.6371C99.8093 30.7279 100.036 29.8312 100.479 29.0375C100.906 28.2781 101.537 27.6537 102.3 27.2351C103.104 26.7955 104.008 26.5716 104.923 26.5852C105.824 26.5703 106.713 26.7901 107.502 27.2232C108.252 27.6406 108.867 28.2627 109.277 29.0169C109.701 29.7867 109.914 30.6774 109.914 31.6891C109.914 31.853 109.902 32.0826 109.878 32.378ZM103.049 29.096C102.533 29.5431 102.2 30.166 102.116 30.8442H107.716C107.638 30.1745 107.316 29.5571 106.811 29.1111C106.305 28.667 105.677 28.445 104.925 28.445C104.241 28.4248 103.574 28.6564 103.049 29.096Z" fill="black"/>
    <path d="M125.707 24.1874C126.489 24.5157 127.156 25.0701 127.621 25.7797C128.064 26.4707 128.286 27.2907 128.286 28.2395C128.286 29.1783 128.064 29.9946 127.621 30.6886C127.158 31.4021 126.491 31.9596 125.707 32.2884C124.876 32.6574 123.9 32.8423 122.779 32.843H119.856V36.5778H117.453V23.6328H122.776C123.897 23.6328 124.874 23.8177 125.707 24.1874ZM125.051 30.1448C125.594 29.7007 125.865 29.066 125.864 28.2406C125.864 27.4152 125.593 26.7802 125.051 26.3353C124.51 25.8919 123.716 25.6703 122.669 25.6703H119.861V30.8099H122.669C123.717 30.8077 124.511 30.585 125.051 30.1416V30.1448Z" fill="black"/>
    <path d="M130.651 22.855H132.961V36.5755H130.651V22.855Z" fill="black"/>
    <path d="M143.099 27.6362C143.869 28.3331 144.254 29.3837 144.254 30.7882V36.5756H142.073V35.3744C141.776 35.8163 141.355 36.1604 140.863 36.3633C140.261 36.6058 139.616 36.7223 138.968 36.7056C138.302 36.72 137.64 36.5907 137.028 36.3265C136.509 36.1034 136.063 35.7381 135.743 35.2726C135.441 34.822 135.283 34.29 135.29 33.7475C135.29 32.8593 135.62 32.1473 136.279 31.6115C136.938 31.0756 137.976 30.8074 139.393 30.8067H141.943V30.6593C141.943 29.969 141.737 29.439 141.324 29.0692C140.911 28.6995 140.298 28.5147 139.484 28.5147C138.928 28.5145 138.376 28.6018 137.848 28.7735C137.353 28.9241 136.891 29.1687 136.489 29.4939L135.584 27.8117C136.144 27.3964 136.776 27.0893 137.449 26.9062C138.201 26.6927 138.978 26.5866 139.76 26.591C141.216 26.591 142.329 26.9394 143.099 27.6362ZM140.992 34.6248C141.433 34.3698 141.77 33.9675 141.943 33.4886V32.3415H139.561C138.231 32.3415 137.566 32.7791 137.566 33.6543C137.56 33.849 137.603 34.0421 137.69 34.2163C137.776 34.3906 137.905 34.5406 138.064 34.653C138.398 34.9 138.859 35.0224 139.451 35.0224C139.991 35.032 140.524 34.8946 140.992 34.6248Z" fill="black"/>
    <path d="M156.265 26.7021L151.645 37.3692C151.212 38.4416 150.689 39.1965 150.075 39.6341C149.46 40.0717 148.716 40.2916 147.842 40.2938C147.345 40.2932 146.852 40.212 146.381 40.0533C145.945 39.9183 145.542 39.6916 145.199 39.3883L146.123 37.6866C146.351 37.9008 146.618 38.0702 146.909 38.1859C147.198 38.307 147.509 38.37 147.823 38.3712C148.185 38.3853 148.541 38.2744 148.831 38.057C149.095 37.8469 149.338 37.4956 149.56 37.0031L149.727 36.6143L145.42 26.7043H147.823L150.928 34.0071L154.051 26.7043L156.265 26.7021Z" fill="black"/>
    <path d="M47.7954 16.4478C47.2891 16.4514 46.7892 16.3345 46.337 16.1066C45.8875 15.8807 45.4866 15.5691 45.1569 15.1891C44.8221 14.8051 44.5576 14.3651 44.3752 13.8893C44.189 13.4138 44.0939 12.9074 44.0948 12.3967C44.0912 11.3629 44.4672 10.3638 45.1515 9.58914C45.4791 9.21974 45.8784 8.92086 46.3251 8.71069C46.7854 8.49637 47.2877 8.38757 47.7954 8.39223C48.5633 8.39223 49.1971 8.55254 49.6965 8.87316C50.1817 9.17824 50.5726 9.6121 50.8258 10.1264L50.0538 10.668C49.85 10.2355 49.5176 9.8765 49.1022 9.64005C48.6953 9.4153 48.2373 9.29963 47.7726 9.30427C47.3918 9.29946 47.0157 9.38796 46.677 9.56206C46.3494 9.73279 46.0616 9.97088 45.8325 10.2607C45.5936 10.5596 45.4102 10.899 45.2911 11.2626C45.1682 11.6378 45.1061 12.0301 45.1071 12.4249C45.1044 12.8347 45.1744 13.2418 45.3139 13.6272C45.4448 13.9931 45.6439 14.3309 45.9007 14.6226C46.1469 14.9051 46.4474 15.1354 46.7841 15.2996C47.1212 15.4642 47.4918 15.5484 47.8668 15.5455C48.3228 15.546 48.7709 15.4265 49.166 15.1989C49.6217 14.9273 50.0173 14.5658 50.3288 14.1363V15.1772C49.6164 16.0235 48.7719 16.4471 47.7954 16.4478ZM50.2108 13.1929H48.5002V12.4346H51.0597V16.3936H50.2108V13.1929Z" fill="black"/>
    <path d="M57.9793 15.4969V16.3916H52.5908V8.44873H57.8787V9.34343H53.5966V11.9149H57.32V12.7533H53.5966V15.4937L57.9793 15.4969Z" fill="black"/>
    <path d="M65.0787 9.3456H62.3395V16.3916H61.3359V9.3456H58.5967V8.44873H65.0809L65.0787 9.3456Z" fill="black"/>
    <path d="M68.7129 16.3916V8.44873H69.7187V16.3895L68.7129 16.3916Z" fill="black"/>
    <path d="M72.6257 10.3075V16.3916H71.6221V8.44873H72.4709L77.3235 14.6564V8.46173H78.3293V16.3916H77.4123L72.6257 10.3075Z" fill="black"/>
    <path d="M86.2757 16.4478C85.7513 16.454 85.2326 16.3391 84.7599 16.112C84.3091 15.8912 83.908 15.5808 83.5809 15.1999C82.9157 14.4266 82.5489 13.4408 82.5469 12.4205C82.545 11.9016 82.6416 11.387 82.8317 10.9041C83.0168 10.4313 83.2856 9.99573 83.6253 9.61835C83.9599 9.24496 84.3645 8.94096 84.8162 8.72365C85.2805 8.50342 85.789 8.39228 86.3027 8.3987C86.8283 8.39235 87.3479 8.51116 87.8185 8.74532C88.2679 8.97307 88.6669 9.28873 88.9921 9.6736C89.318 10.0598 89.5744 10.4995 89.75 10.9734C90.0204 11.6895 90.0889 12.4663 89.948 13.2187C89.8071 13.9712 89.4622 14.6704 88.951 15.24C88.6171 15.6128 88.2122 15.9152 87.76 16.1293C87.2954 16.3456 86.7881 16.4544 86.2757 16.4478ZM83.5581 12.4205C83.5576 12.8183 83.6239 13.2134 83.7541 13.5893C83.8778 13.9534 84.0651 14.2926 84.3073 14.5912C84.5434 14.8792 84.8364 15.1153 85.1681 15.2844C85.515 15.4582 85.8985 15.5463 86.2865 15.5411C86.6836 15.548 87.0762 15.4557 87.4287 15.2725C87.7604 15.0958 88.0517 14.852 88.284 14.5565C88.5221 14.2551 88.7054 13.9141 88.8254 13.5492C88.9465 13.1848 89.0087 12.8034 89.0095 12.4194C89.0107 12.0237 88.9444 11.6306 88.8135 11.2572C88.6885 10.8925 88.4993 10.5532 88.2548 10.2553C88.0179 9.96598 87.7228 9.72979 87.3887 9.56203C87.0468 9.39189 86.6694 9.30574 86.2876 9.31074C85.8919 9.30422 85.5006 9.39419 85.1475 9.57286C84.8132 9.74753 84.5204 9.99208 84.2889 10.2899C84.0535 10.5907 83.8704 10.929 83.7476 11.2908C83.6225 11.6543 83.5584 12.036 83.5581 12.4205Z" fill="black"/>
    <path d="M92.4239 10.3075V16.3916H91.417V8.44873H92.2669L97.1195 14.6564V8.46173H98.1253V16.3916H97.2083L92.4239 10.3075Z" fill="black"/>
  </g>
  <defs>
    <clipPath id="clip0_22_3605">
      <rect width="163" height="112" fill="white"/>
    </clipPath>
  </defs>
</svg>