<svg xmlns="http://www.w3.org/2000/svg" width="54" height="34" viewBox="0 0 54 34" fill="none">
  <g clip-path="url(#clip0_32_3513)">
    <path d="M50.4686 0H3.53142C1.58107 0 0 1.58107 0 3.53142V30.4585C0 32.4089 1.58107 33.9899 3.53142 33.9899H50.4686C52.4189 33.9899 54 32.4089 54 30.4585V3.53142C54 1.58107 52.4189 0 50.4686 0Z" fill="#1A1A1A"/>
    <path d="M17.3561 29.5718V28.0104C17.3561 27.4117 16.9921 27.0214 16.367 27.0214C16.0547 27.0214 15.7166 27.1253 15.4824 27.4634C15.2999 27.1764 15.0399 27.0214 14.6495 27.0214C14.5071 27.0153 14.3655 27.0456 14.238 27.1092C14.1105 27.1729 14.0013 27.2679 13.9205 27.3853V27.073H13.374V29.5718H13.9205V28.1941C13.9205 27.7515 14.1547 27.5432 14.5192 27.5432C14.8837 27.5432 15.0657 27.7779 15.0657 28.1941V29.5718H15.6127V28.1941C15.6127 27.7515 15.8728 27.5432 16.2109 27.5432C16.5754 27.5432 16.7579 27.7779 16.7579 28.1941V29.5718H17.3561ZM25.4499 27.073H24.5659V26.3182H24.0194V27.073H23.5251V27.5679H24.0194V28.713C24.0194 29.2871 24.2536 29.624 24.8804 29.624C25.1175 29.6194 25.3499 29.5567 25.5572 29.4415L25.4011 28.9731C25.2609 29.061 25.0981 29.1063 24.9327 29.1034C24.6726 29.1034 24.5682 28.9472 24.5682 28.6872V27.5679H25.4533V27.073H25.4499ZM30.0828 27.0214C29.9517 27.0184 29.8222 27.0506 29.7078 27.1146C29.5933 27.1786 29.498 27.2721 29.4319 27.3853V27.073H28.8854V29.5718H29.4319V28.1666C29.4319 27.7498 29.6144 27.5156 29.9525 27.5156C30.0671 27.5201 30.1807 27.5376 30.2912 27.5679L30.4474 27.0472C30.3271 27.0258 30.2049 27.0171 30.0828 27.0214ZM23.0797 27.2814C22.8191 27.0994 22.4552 27.0214 22.0642 27.0214C21.4397 27.0214 21.0235 27.3336 21.0235 27.825C21.0235 28.2418 21.3358 28.476 21.8846 28.554L22.1446 28.5799C22.4316 28.6321 22.5872 28.7102 22.5872 28.8405C22.5872 29.0224 22.3788 29.1527 22.0132 29.1527C21.7152 29.1544 21.4241 29.0634 21.1802 28.8921L20.9196 29.3089C21.2066 29.5167 21.5964 29.6212 21.9867 29.6212C22.7158 29.6212 23.1319 29.2825 23.1319 28.8141C23.1319 28.3715 22.7938 28.1373 22.2709 28.0592L22.0109 28.0334C21.7766 28.0076 21.5941 27.9553 21.5941 27.7992C21.5941 27.6172 21.7767 27.5122 22.0625 27.5122C22.3748 27.5122 22.6876 27.6425 22.8438 27.7205L23.078 27.278L23.0797 27.2814ZM37.6026 27.0214C37.4715 27.0184 37.342 27.0506 37.2275 27.1146C37.1131 27.1786 37.0178 27.2721 36.9517 27.3853V27.073H36.4052V29.5718H36.9517V28.1666C36.9517 27.7498 37.1342 27.5156 37.4723 27.5156C37.5866 27.5201 37.7001 27.5376 37.8104 27.5679L37.9666 27.0472C37.8465 27.0258 37.7245 27.0171 37.6026 27.0214ZM30.627 28.3227C30.627 29.0775 31.1477 29.624 31.9542 29.624C32.3187 29.624 32.5793 29.5459 32.8393 29.337L32.5793 28.8944C32.3949 29.0436 32.1655 29.1261 31.9283 29.1286C31.4858 29.1286 31.1735 28.8164 31.1735 28.3221C31.1735 27.8537 31.4858 27.5409 31.9283 27.515C32.1655 27.5176 32.3949 27.6001 32.5793 27.7492L32.8393 27.3067C32.5793 27.0989 32.3187 27.0197 31.9542 27.0197C31.1477 27.0197 30.627 27.5661 30.627 28.321V28.3227ZM35.6785 28.3227V27.073H35.1337V27.3853C34.9518 27.1511 34.6911 27.0214 34.353 27.0214C33.6504 27.0214 33.1034 27.5678 33.1034 28.3227C33.1034 29.0775 33.6504 29.624 34.353 29.624C34.7175 29.624 34.9776 29.4937 35.1337 29.2595V29.5718H35.6802L35.6785 28.3227ZM33.6745 28.3227C33.6745 27.8801 33.9616 27.5156 34.4294 27.5156C34.872 27.5156 35.1842 27.8543 35.1842 28.3227C35.1842 28.7653 34.872 29.1292 34.4294 29.1292C33.961 29.1034 33.6745 28.7653 33.6745 28.3227ZM27.1415 27.0214C26.4131 27.0214 25.8924 27.5414 25.8924 28.3227C25.8924 29.1039 26.4131 29.624 27.1674 29.624C27.5348 29.6316 27.8935 29.5119 28.1828 29.2853L27.9222 28.895C27.7133 29.0572 27.4581 29.1485 27.1938 29.1556C26.8551 29.1556 26.517 28.9995 26.4389 28.5569H28.2867V28.3485C28.3131 27.5414 27.8441 27.0214 27.1415 27.0214ZM27.1415 27.4898C27.4802 27.4898 27.7155 27.6981 27.7661 28.0885H26.4659C26.5181 27.7498 26.7529 27.4898 27.1427 27.4898H27.1415ZM40.7018 28.3227V26.084H40.1553V27.3853C39.9734 27.1511 39.7127 27.0214 39.3746 27.0214C38.672 27.0214 38.1256 27.5678 38.1256 28.3227C38.1256 29.0775 38.672 29.624 39.3746 29.624C39.7391 29.624 39.9992 29.4937 40.1553 29.2595V29.5718H40.7018V28.3227ZM38.6979 28.3227C38.6979 27.8801 38.9849 27.5156 39.4527 27.5156C39.8953 27.5156 40.2076 27.8543 40.2076 28.3227C40.2076 28.7653 39.8953 29.1292 39.4527 29.1292C38.9843 29.1034 38.6979 28.7653 38.6979 28.3227ZM20.4265 28.3227V27.073H19.8801V27.3853C19.6975 27.1511 19.4375 27.0214 19.0988 27.0214C18.3962 27.0214 17.8497 27.5678 17.8497 28.3227C17.8497 29.0775 18.3962 29.624 19.0988 29.624C19.4633 29.624 19.7239 29.4937 19.8801 29.2595V29.5718H20.4265V28.3227ZM18.3962 28.3227C18.3962 27.8801 18.6832 27.5156 19.1511 27.5156C19.5936 27.5156 19.9059 27.8543 19.9059 28.3227C19.9059 28.7653 19.5936 29.1292 19.1511 29.1292C18.6838 29.1034 18.3973 28.7653 18.3973 28.3227H18.3962Z" fill="white"/>
    <path d="M31.0992 8.09863H22.9004V22.8305H31.0992V8.09863Z" fill="#FF5F00"/>
    <path d="M23.4243 15.4651C23.4245 14.0479 23.7454 12.6491 24.363 11.3734C24.9805 10.0978 25.8786 8.97845 26.9901 8.09915C25.6079 7.01246 23.9479 6.3366 22.1997 6.14881C20.4515 5.96103 18.6858 6.26891 17.1043 7.03725C15.5229 7.8056 14.1895 9.00341 13.2567 10.4938C12.3238 11.9841 11.8291 13.7069 11.8291 15.4651C11.8291 17.2233 12.3238 18.9461 13.2567 20.4364C14.1895 21.9268 15.5229 23.1246 17.1043 23.8929C18.6858 24.6613 20.4515 24.9691 22.1997 24.7814C23.9479 24.5936 25.6079 23.9177 26.9901 22.831C25.8765 21.9536 24.9769 20.8346 24.3592 19.5586C23.7414 18.2825 23.4217 16.8828 23.4243 15.4651Z" fill="#EB001B"/>
    <path d="M42.1613 15.4647C42.163 17.2222 41.6699 18.9447 40.7384 20.4351C39.8069 21.9255 38.4746 23.1235 36.894 23.8921C35.3134 24.6606 33.5483 24.9687 31.8008 24.781C30.0533 24.5932 28.394 23.9173 27.0127 22.8306C28.1244 21.9515 29.0227 20.8322 29.6403 19.5565C30.2579 18.2809 30.5787 16.882 30.5787 15.4647C30.5787 14.0474 30.2579 12.6485 29.6403 11.3728C29.0227 10.0972 28.1244 8.97783 27.0127 8.09874C28.6581 6.79908 30.6941 6.0928 32.7909 6.09424C37.9703 6.09424 42.1613 10.3111 42.1613 15.4647Z" fill="#F79E1B"/>
  </g>
  <defs>
    <clipPath id="clip0_32_3513">
      <rect width="54" height="33.9899" fill="white"/>
    </clipPath>
  </defs>
</svg>