<svg xmlns="http://www.w3.org/2000/svg" width="135" height="52" viewBox="0 0 135 52" fill="none">
  <g clip-path="url(#clip0_32_3686)">
    <path d="M22.4976 6.90479C10.0754 6.90479 0 17.0031 0 29.4528C0 41.9025 10.0754 51.9998 22.4976 51.9998C34.9197 51.9998 44.9946 41.9031 44.9946 29.4534C44.9946 17.0036 34.9197 6.90586 22.4976 6.90586V6.90479ZM22.4137 13.9785C30.9452 13.9785 37.8527 20.9024 37.8527 29.4528C37.8527 38.0032 30.9452 44.9271 22.4137 44.9271C13.8822 44.9271 6.95319 38.0043 6.95319 29.4539C6.95319 20.9035 13.8822 13.9796 22.4137 13.9796V13.9785Z" fill="#FEB511"/>
    <path d="M51.6746 11.7683V31.4103H55.5819V17.7889L62.5136 31.4103H66.735V11.7683H62.8293V24.0208L56.4219 11.7688H51.6746V11.7683ZM75.6617 16.6323C73.6819 16.6304 71.7823 17.4166 70.3807 18.8179C68.979 20.2193 68.1899 22.1211 68.1869 24.1054V24.1264C68.1869 28.2731 71.528 31.642 75.666 31.642C77.6546 31.6402 79.5611 30.8473 80.9668 29.4376C82.3725 28.0279 83.1623 26.1167 83.1629 24.1237C83.1629 19.977 79.8014 16.6323 75.6639 16.6323H75.6617ZM75.6816 20.274C77.7993 20.274 79.5051 22.0056 79.5051 24.1264C79.5058 24.6297 79.4074 25.1282 79.2156 25.5934C79.0238 26.0586 78.7423 26.4812 78.3872 26.8372C78.0321 27.1931 77.6105 27.4754 77.1464 27.6678C76.6823 27.8601 76.1849 27.9589 75.6827 27.9583C73.5666 27.9583 71.8383 26.2477 71.8383 24.1264C71.8407 23.1053 72.2465 22.1268 72.967 21.4048C73.6875 20.6828 74.6639 20.2762 75.6827 20.274H75.6816ZM84.1744 16.9503V31.4103H88.4184V25.5406C88.4184 23.4597 88.8717 22.2287 89.6251 21.3368C90.407 20.4119 91.0937 19.8687 93.1926 19.8412L94.7843 19.8628L94.8059 26.4762C94.8091 27.4884 94.8596 28.3415 95.086 29.0686C95.6071 30.7393 96.8741 31.6555 99.3252 31.6555C100.445 31.6555 101.536 31.5051 102.572 31.123L102.063 28.1884C101.579 28.3755 100.997 28.493 100.557 28.4973C99.3123 28.5086 99.0251 27.9632 99.0294 26.6578V19.8628H102.085L102.096 16.9492H99.031L99.0208 12.8532L95.5942 12.8435L94.8596 16.9492H92.8656C92.2284 16.9492 91.7364 16.9546 91.2556 17.0769C89.2121 17.5932 88.3732 19.0996 87.8575 20.0411L86.6589 16.947L84.1744 16.9503ZM110.058 16.6323C109.077 16.6309 108.106 16.8232 107.199 17.1981C106.292 17.5731 105.468 18.1233 104.774 18.8174C104.08 19.5115 103.528 20.3358 103.152 21.2434C102.775 22.151 102.581 23.1241 102.58 24.107V24.1269C102.58 28.2736 105.921 31.6426 110.058 31.6426C112.047 31.6417 113.955 30.8492 115.361 29.4393C116.768 28.0294 117.558 26.1175 117.559 24.1237C117.559 19.977 114.198 16.6323 110.06 16.6323H110.058ZM110.079 20.274C112.195 20.274 113.902 22.0056 113.902 24.1264C113.903 24.6298 113.804 25.1284 113.613 25.5936C113.421 26.0589 113.139 26.4816 112.784 26.8375C112.429 27.1935 112.007 27.4758 111.543 27.6681C111.078 27.8604 110.581 27.959 110.079 27.9583C107.962 27.9583 106.234 26.2477 106.234 24.1264C106.237 23.1052 106.643 22.1266 107.363 21.4046C108.084 20.6826 109.06 20.2761 110.079 20.274H110.079ZM126.877 16.6323C124.935 16.6425 123.341 17.5787 121.856 19.1788L121.037 16.9476H118.558V31.4103H122.696V21.4737C123.119 20.9929 124.076 20.1037 125.301 20.1053C126.856 20.1053 127.421 21.1088 127.422 22.2314L127.444 31.4103H131.666V22.1048C131.669 18.4857 129.569 16.6161 126.877 16.6318V16.6323ZM132.049 18.6264V17.244H131.646V16.9557H132.775V17.2429H132.362V18.6264H132.049ZM132.987 18.6264V16.9557H133.435L133.733 18.0616L134.014 16.9567H134.438V18.6275H134.202V17.3281L133.835 18.6275H133.611L133.275 17.3044V18.6264H132.987ZM45.2043 1.76807V3.4927H46.9251V1.76807H45.2043ZM45.2043 3.4927H42.0117V5.21734H45.2043V3.4927ZM42.0117 5.21734H40.4151V8.58578H42.0117V5.21734ZM42.0117 8.58578V10.2285H43.6507V8.58578H42.0117ZM43.6507 8.58578H45.4565V6.96516H43.6497L43.6507 8.58578ZM42.0117 10.2285H40.4151V11.9127H38.7555V10.2285H36.0458V11.4277H34.5772V12.9017H36.1953V14.5439H34.5546L34.5761 12.9017H32.8106V15.4913H31.1726V17.1173H30.06V18.7601H28.8829C26.3527 22.9181 24.3227 26.7592 23.1477 29.6016C19.9212 25.2986 18.4112 23.7491 15.6917 22.2336C14.72 21.692 13.8542 21.4397 13.2336 21.7917C12.5883 22.1565 12.4001 23.3099 13.2137 24.2121C18.2617 29.8172 19.1699 32.8056 21.0064 37.0757C21.5533 38.3487 22.5858 38.8952 23.7581 38.9281C24.3845 38.9459 25.1535 38.7556 25.6692 38.1493C25.9085 37.8685 25.9785 37.4837 26.1737 37.0121C27.7079 33.3042 29.411 29.5859 31.8669 26.0445L31.8873 24.1921H33.1898L33.1688 22.5494H34.5772L34.5567 20.5909H36.1947V18.8016H34.5342L34.5551 17.1173H36.1937V18.8016H37.8322V17.0969H39.1137V15.0963H40.6049V13.7284H42.0117V10.2285ZM38.7555 10.2285H40.4151V8.58578H38.7555V10.2285ZM38.7555 8.58578V7.00666H37.0966V8.58578H38.7555Z" fill="black"/>
    <path d="M42.0117 5.22889H43.647V6.95838H42.0117V5.22889ZM46.9187 3.49993H48.6885V5.22889H46.9187V3.49993ZM46.9187 0H48.6885V1.77045H46.9187V0Z" fill="#FEB511"/>
    <path d="M52.6045 46.9641H51.8242V36.1851H53.138V40.1695C53.6574 39.5174 54.3856 39.0679 55.1911 39.0916C57.3733 39.159 58.18 41.1089 58.2025 42.9926C58.2321 45.2508 56.9937 47.0886 54.9932 47.1112C54.5811 47.1222 54.173 47.0279 53.8072 46.8373C53.4415 46.6466 53.1301 46.3659 52.9024 46.0215L52.6045 46.9641ZM53.146 45.2594C53.6838 45.7547 53.786 46.0231 54.8244 46.0322C56.3839 46.0463 56.7861 44.3076 56.7829 43.1047C56.7786 41.5838 56.3613 40.2816 55.0083 40.2428C54.1554 40.2175 53.573 40.64 53.1643 41.1052L53.146 45.2594ZM59.3394 49.6545L59.5109 48.6612C60.6133 48.8806 61.4092 48.6424 61.8426 47.4217L59.1119 39.2469H60.4789L62.4083 45.7628L64.2303 39.2469H65.566L62.9128 47.7154C62.3008 49.6701 60.8693 50.0156 59.3394 49.6518V49.6545ZM69.5874 45.828L70.2553 44.9031C71.2732 45.6334 72.0395 45.9271 73.2909 45.9352C74.645 45.9422 75.5092 45.2346 75.5022 44.1438C75.4812 41.0766 70.2321 42.7964 70.1407 38.7079C70.1009 36.9159 71.6932 36.0336 73.2291 36.0256C74.389 36.0191 75.4763 36.1953 76.2163 36.7192L75.6382 37.7594C75.2908 37.4134 74.04 37.1827 73.3603 37.1773C72.1772 37.1681 71.4297 37.6381 71.3953 38.6325C71.2958 41.5643 76.8267 39.9513 76.8202 44.1098C76.817 46.05 75.372 47.0573 73.2871 47.074C71.3614 47.0913 69.9289 46.2187 69.5874 45.8237V45.828ZM85.5232 46.9538V39.262H86.3331L86.6482 40.5161C87.2855 39.6662 88.3889 39.0987 89.3182 39.1013C90.4157 39.1046 90.8825 39.8801 91.0234 40.4487C91.716 39.6403 92.6447 39.1013 93.5853 39.0938C95.2055 39.0803 95.575 40.2649 95.575 41.5935V46.9538L94.2607 46.9587V42.0171C94.2607 40.9349 94.1311 40.2331 93.2062 40.252C92.1812 40.2741 91.6348 40.9526 91.2611 41.2841V46.9571H89.8974V41.8705C89.8974 40.8384 89.7301 40.2412 88.8557 40.2601C87.9813 40.279 87.7173 40.6336 86.866 41.3121V46.9592L85.5232 46.9538ZM102.092 46.0376C101.412 46.7512 100.538 47.0934 99.7189 47.0859C98.4143 47.073 97.3571 46.2775 97.3625 44.984C97.3679 43.4054 98.4541 42.9683 99.385 42.6584C100.303 42.3523 101.036 42.2467 101.869 42.1011C101.904 40.729 101.615 40.2218 100.495 40.2148C99.485 40.2078 98.6192 40.6681 98.2466 40.8616L97.7706 39.9815C98.139 39.6942 99.0656 39.1105 100.584 39.097C102.251 39.0836 103.24 40.0203 103.241 41.7718V46.9598H102.431L102.092 46.0376ZM101.88 42.9974C101.226 43.1224 100.581 43.2911 99.9502 43.5024C99.1177 43.767 98.7133 44.1885 98.7252 44.9543C98.7348 45.7574 99.2629 46.0667 99.92 46.0511C100.707 46.0328 101.213 45.7746 101.874 45.2756L101.88 42.9974ZM117.136 45.9169L117.337 46.8331C116.875 47.0875 116.186 47.0703 115.91 47.0713C114.288 47.0762 114.045 46.0225 114.045 44.8212V40.2094H112.899V39.2512H114.045L114.437 37.0582L115.377 37.055V39.2512H117.104V40.2094H115.377V44.8913C115.377 46.0339 115.852 46.0387 116.299 46.057C116.584 46.0614 116.867 46.0143 117.136 45.918L117.136 45.9169ZM123.809 45.2702L124.366 46.0684C123.782 46.5281 123.13 47.0891 121.718 47.0924C119.371 47.0988 118.324 45.2987 118.333 43.158C118.342 41.0173 119.326 39.1073 121.489 39.0954C124.178 39.0803 124.559 41.6824 124.557 43.4986H119.758C119.758 44.9538 120.349 46.0139 121.562 46.0252C122.812 46.0365 123.811 45.268 123.811 45.268L123.809 45.2702ZM119.758 42.5776H123.172C123.104 41.3698 122.795 40.0984 121.505 40.1146C120.12 40.1307 119.848 41.4081 119.758 42.5776ZM131.554 46.0667C131.005 46.6003 130.131 47.0633 129.004 47.0713C126.844 47.0875 125.781 45.4178 125.781 43.1111C125.781 40.8141 126.935 39.0981 129.181 39.0938C130.176 39.0938 130.892 39.4899 131.407 39.9092L130.825 40.7937C130.503 40.535 129.789 40.1755 129.166 40.1841C127.638 40.2057 127.162 41.3342 127.165 43.0756C127.168 44.5259 127.488 45.9918 129.159 46.0074C129.656 46.0123 130.256 45.8355 130.901 45.2745L131.554 46.0667ZM77.8457 49.6545L78.0167 48.6612C79.1191 48.8806 79.9155 48.6424 80.349 47.4217L77.6172 39.2469H78.9852L80.9147 45.7628L82.7366 39.2469H84.0724L81.4159 47.7181C80.8044 49.6728 79.3724 50.0183 77.843 49.6545H77.8457ZM105.482 46.9538V39.262H106.292L106.607 40.5161C107.244 39.6662 108.438 39.0927 109.517 39.1013C110.915 39.1127 111.462 40.3479 111.462 41.6468V46.9587H110.098V41.8721C110.098 40.84 109.93 40.2428 109.057 40.2617C108.183 40.2806 107.678 40.6352 106.824 41.3137V46.9592L105.482 46.9538Z" fill="#999999"/>
  </g>
  <defs>
    <clipPath id="clip0_32_3686">
      <rect width="134.439" height="52" fill="white"/>
    </clipPath>
  </defs>
</svg>