<svg xmlns="http://www.w3.org/2000/svg" width="54" height="34" viewBox="0 0 54 34" fill="none">
  <g clip-path="url(#clip0_32_3504)">
    <path d="M50.4686 0H3.53142C1.58107 0 0 1.58107 0 3.53142V30.4585C0 32.4089 1.58107 33.9899 3.53142 33.9899H50.4686C52.4189 33.9899 54 32.4089 54 30.4585V3.53142C54 1.58107 52.4189 0 50.4686 0Z" fill="#253B80"/>
    <path d="M10.7678 15.5246C10.5818 16.7461 9.64845 16.7461 8.74665 16.7461H8.23289L8.59338 14.4655C8.60391 14.3988 8.63791 14.338 8.68927 14.2941C8.74062 14.2502 8.80596 14.2261 8.87351 14.2261H9.10886C9.72307 14.2261 10.3028 14.2261 10.6013 14.5763C10.781 14.7852 10.8361 15.0958 10.7678 15.5246ZM10.3752 12.3364H6.97233C6.85924 12.3364 6.7499 12.3769 6.66416 12.4507C6.57842 12.5244 6.52197 12.6264 6.50507 12.7382L5.1274 21.4635C5.1211 21.504 5.12364 21.5453 5.13486 21.5847C5.14607 21.6241 5.16569 21.6606 5.19237 21.6917C5.21905 21.7228 5.25215 21.7478 5.28939 21.7649C5.32663 21.7819 5.36713 21.7907 5.4081 21.7907H7.0326C7.14568 21.7907 7.25503 21.7502 7.34077 21.6764C7.42651 21.6027 7.48296 21.5007 7.49986 21.3889L7.87125 19.0353C7.88803 18.9236 7.94436 18.8215 8.03001 18.7478C8.11565 18.6741 8.22492 18.6335 8.33794 18.6335H9.41769C11.6564 18.6335 12.9526 17.5492 13.2907 15.3994C13.4428 14.4592 13.297 13.7198 12.8567 13.2026C12.3716 12.6384 11.514 12.3364 10.3752 12.3364Z" fill="white"/>
    <path d="M18.2753 18.6573C18.1181 19.5884 17.3793 20.2135 16.4384 20.2135C15.9654 20.2135 15.5872 20.0614 15.3443 19.7738C15.1015 19.4862 15.012 19.0815 15.0889 18.6292C15.2353 17.7061 15.9867 17.0604 16.9149 17.0604C17.3776 17.0604 17.7535 17.2142 18.0015 17.5046C18.2495 17.7951 18.3465 18.2067 18.2753 18.6573ZM20.5468 15.4858H18.9171C18.8497 15.4865 18.7848 15.5108 18.7336 15.5546C18.6823 15.5984 18.6482 15.6587 18.637 15.7252L18.5652 16.1809L18.4504 16.0156C18.098 15.5036 17.311 15.3325 16.5257 15.3325C14.725 15.3325 13.1872 16.6964 12.8875 18.6097C12.7319 19.5637 12.9535 20.4764 13.4948 21.113C13.9914 21.6979 14.7003 21.9419 15.547 21.9419C16.9981 21.9419 17.8029 21.0091 17.8029 21.0091L17.73 21.4614C17.7235 21.5019 17.7259 21.5433 17.737 21.5828C17.748 21.6222 17.7675 21.6588 17.7941 21.69C17.8207 21.7212 17.8537 21.7463 17.8909 21.7635C17.9281 21.7807 17.9686 21.7897 18.0096 21.7898H19.4774C19.5904 21.7898 19.6998 21.7493 19.7855 21.6755C19.8713 21.6018 19.9277 21.4998 19.9446 21.3879L20.8252 15.8107C20.8313 15.7705 20.8287 15.7295 20.8175 15.6905C20.8063 15.6515 20.7868 15.6153 20.7604 15.5844C20.734 15.5536 20.7012 15.5288 20.6644 15.5118C20.6275 15.4948 20.5874 15.4859 20.5468 15.4858Z" fill="white"/>
    <path d="M29.226 15.4854H27.5882C27.5111 15.4854 27.435 15.5043 27.3668 15.5404C27.2986 15.5765 27.2402 15.6288 27.1968 15.6926L24.9385 19.0219L23.9811 15.8252C23.9516 15.7276 23.8916 15.6422 23.8098 15.5814C23.728 15.5206 23.6289 15.4877 23.527 15.4876H21.9197C21.8748 15.4883 21.8307 15.4994 21.791 15.5202C21.7512 15.5409 21.7168 15.5707 21.6906 15.6072C21.6644 15.6436 21.6472 15.6857 21.6402 15.7301C21.6332 15.7744 21.6368 15.8198 21.6505 15.8625L23.4541 21.1562L21.7596 23.5476C21.7295 23.5899 21.7117 23.6396 21.7079 23.6914C21.7042 23.7432 21.7148 23.795 21.7384 23.8412C21.7621 23.8873 21.798 23.9261 21.8422 23.9533C21.8865 23.9805 21.9373 23.995 21.9892 23.9953H23.6252C23.7015 23.9953 23.7768 23.9769 23.8444 23.9415C23.9121 23.9061 23.9702 23.8548 24.0138 23.7921L29.4602 15.9279C29.489 15.8853 29.5057 15.8357 29.5085 15.7843C29.5113 15.7329 29.5001 15.6818 29.476 15.6363C29.4519 15.5908 29.4159 15.5527 29.3719 15.5261C29.3279 15.4996 29.2774 15.4855 29.226 15.4854Z" fill="white"/>
    <path d="M35.0394 15.5246C34.8534 16.7461 33.9206 16.7461 33.0182 16.7461H32.5051L32.8655 14.4655C32.8761 14.3988 32.9101 14.338 32.9614 14.2941C33.0128 14.2502 33.0781 14.2261 33.1457 14.2261H33.381C33.9947 14.2261 34.575 14.2261 34.8735 14.5763C35.0532 14.7852 35.1071 15.0958 35.0394 15.5246ZM34.6468 12.3364H31.2433C31.1303 12.3365 31.0211 12.3771 30.9355 12.4508C30.8499 12.5246 30.7935 12.6265 30.7766 12.7382L29.399 21.4635C29.3926 21.5039 29.395 21.5452 29.4061 21.5845C29.4173 21.6239 29.4368 21.6604 29.4633 21.6915C29.4899 21.7226 29.5229 21.7476 29.5601 21.7647C29.5972 21.7818 29.6376 21.7907 29.6785 21.7907H31.4253C31.504 21.7905 31.5801 21.7623 31.6399 21.711C31.6997 21.6598 31.7392 21.5889 31.7514 21.5111L32.1423 19.0376C32.159 18.9259 32.2154 18.8238 32.301 18.7501C32.3867 18.6763 32.4959 18.6358 32.609 18.6358H33.687C35.9286 18.6358 37.2218 17.5515 37.5605 15.4017C37.7132 14.4615 37.5663 13.7221 37.126 13.2049C36.6426 12.6384 35.7856 12.3364 34.6468 12.3364Z" fill="#179BD7"/>
    <path d="M42.5466 18.6573C42.3905 19.5884 41.6506 20.2135 40.7097 20.2135C40.2379 20.2135 39.8584 20.0614 39.6156 19.7738C39.3728 19.4862 39.2844 19.0815 39.3602 18.6292C39.5077 17.7061 40.258 17.0604 41.1862 17.0604C41.6488 17.0604 42.0248 17.2142 42.2728 17.5046C42.5208 17.7951 42.6189 18.2067 42.5466 18.6573ZM44.818 15.4858H43.1895C43.122 15.4856 43.0566 15.5096 43.0053 15.5535C42.954 15.5975 42.9202 15.6584 42.91 15.7252L42.8376 16.1809L42.7228 16.0156C42.3698 15.5036 41.584 15.3325 40.7987 15.3325C38.998 15.3325 37.4601 16.6964 37.1611 18.6097C37.0055 19.5637 37.2259 20.4764 37.7673 21.113C38.2649 21.6979 38.9727 21.9419 39.82 21.9419C41.2705 21.9419 42.0753 21.0091 42.0753 21.0091L42.0024 21.4614C41.9959 21.502 41.9984 21.5435 42.0095 21.583C42.0206 21.6226 42.0402 21.6592 42.0669 21.6905C42.0936 21.7217 42.1268 21.7467 42.1641 21.7639C42.2014 21.781 42.2421 21.7899 42.2831 21.7898H43.7509C43.8639 21.7895 43.973 21.7489 44.0586 21.6752C44.1442 21.6015 44.2006 21.4996 44.2176 21.3879L45.0987 15.8107C45.1041 15.7705 45.1009 15.7296 45.0893 15.6907C45.0777 15.6518 45.058 15.6158 45.0314 15.5851C45.0049 15.5544 44.9722 15.5297 44.9354 15.5126C44.8986 15.4955 44.8586 15.4863 44.818 15.4858Z" fill="#179BD7"/>
    <path d="M46.74 12.577L45.3434 21.4636C45.3369 21.504 45.3393 21.5453 45.3504 21.5847C45.3614 21.6241 45.381 21.6607 45.4075 21.6918C45.4341 21.7229 45.4672 21.7479 45.5044 21.765C45.5416 21.7821 45.582 21.7909 45.623 21.7908H47.027C47.1401 21.7908 47.2495 21.7503 47.3352 21.6765C47.421 21.6028 47.4774 21.5008 47.4943 21.3889L48.872 12.6637C48.8783 12.6233 48.8759 12.5819 48.8648 12.5426C48.8537 12.5032 48.8342 12.4666 48.8076 12.4355C48.7811 12.4044 48.7481 12.3793 48.7109 12.3621C48.6738 12.345 48.6333 12.336 48.5924 12.3359H47.0202C46.9523 12.3359 46.8867 12.3602 46.8353 12.4044C46.7839 12.4487 46.7501 12.5099 46.74 12.577Z" fill="#179BD7"/>
  </g>
  <defs>
    <clipPath id="clip0_32_3504">
      <rect width="54" height="33.9899" fill="white"/>
    </clipPath>
  </defs>
</svg>