<svg xmlns="http://www.w3.org/2000/svg" width="201" height="52" viewBox="0 0 201 52" fill="none">
  <g clip-path="url(#clip0_32_3699)">
    <path d="M45.5787 2.62932V27.8198H41.7751V2.62932H33.7285V0H53.5354V2.62932H45.5787Z" fill="#298BB7"/>
    <path d="M51.0762 27.82V8.11448H54.5302V10.6832C54.9792 10.0458 56.5474 7.75434 59.3665 7.75434C60.2059 7.73577 61.0271 7.99846 61.698 8.50011V11.5884C60.7574 10.8722 59.6053 10.4846 58.4204 10.4856C54.976 10.4856 54.527 13.1628 54.527 14.2241V27.82H51.0762Z" fill="#298BB7"/>
    <path d="M77.0916 27.8198V25.5251C75.3368 27.2271 72.9883 28.1897 70.5363 28.2118C69.1715 28.2792 67.8255 27.8724 66.7295 27.0613C64.7123 25.5251 64.584 23.2751 64.584 21.0441V8.11426H67.9578V20.1422C67.9578 22.8448 68.2304 26.0128 72.034 26.0128C73.3361 26.0128 75.0968 25.4933 75.9627 24.5945C76.9505 23.5651 77.1173 22.7014 77.1173 21.4298V8.11426H80.4719V27.8198H77.0916Z" fill="#298BB7"/>
    <path d="M94.0219 13.7424V13.1911C94.0219 11.8525 93.3453 9.76497 90.2889 9.76497C87.6334 9.76497 86.4885 11.2756 86.4885 12.7226C86.4885 14.6093 88.5026 15.3965 90.337 15.9096L92.4152 16.4833C95.7377 17.4394 97.6427 19.0903 97.6427 22.255C97.6427 25.1967 95.7698 28.1957 90.1478 28.1957C84.6027 28.1957 82.8164 25.474 82.8164 22.2041V21.7164H86.2159V22.22C86.2159 23.9219 86.9632 26.0094 90.4621 26.0094C93.3998 26.0094 94.3106 24.4955 94.3106 22.9371C94.3106 20.4926 92.3639 19.8998 90.5294 19.3484L87.9958 18.6059C86.7707 18.2489 83.3648 17.2641 83.3648 13.5512C83.3648 10.7211 85.0293 7.68701 90.4204 7.68701C93.8744 7.68701 97.2354 9.09888 97.2354 13.5066V13.7424H94.0219Z" fill="#298BB7"/>
    <path d="M105.151 22.0319C105.151 24.1162 105.446 25.697 107.732 25.697C108.511 25.6748 109.28 25.5117 110 25.2158V27.4881C108.807 27.9239 107.547 28.1514 106.276 28.1606C105.814 28.1606 104.371 28.1606 103.185 27.2937C101.809 26.2739 101.69 25.0978 101.69 21.9363C101.69 21.9363 101.713 11.5401 101.761 10.1442H98.7812V8.1172H101.761V3.8338L105.211 3.23145V8.1172H108.938V10.1282H105.205L105.151 22.0319Z" fill="#298BB7"/>
    <path d="M133.411 27.8198H129.745L125.358 12.6909L120.567 27.8198H116.952L111.192 8.11426H114.807L119.091 24.3045L124.152 8.11426H127.289L131.824 24.3045L136.301 8.11426H139.264L133.411 27.8198Z" fill="#298BB7"/>
    <path d="M153.703 27.8196C152.401 27.8196 152.077 27.3766 152.077 26.1974V25.6461C151.339 26.4641 150.433 27.1152 149.419 27.555C148.406 27.9949 147.31 28.2134 146.205 28.1957C142.404 28.1957 139.989 26.2548 139.989 22.4749C139.989 19.8106 141.577 18.3732 142.475 17.8697C143.822 17.1303 145.701 16.4833 152.077 15.9096V13.8317C152.077 11.1832 150.957 9.88927 148.305 9.88927C147.077 9.88927 143.915 10.055 143.915 14.1026V14.3862H140.688V13.7902C140.688 9.09888 144.704 7.68701 148.546 7.68701C151.727 7.68701 153.578 8.61763 154.498 9.93707C155.245 10.9888 155.419 12.6907 155.419 14.1727V24.9354C155.419 26.4365 155.605 27.2332 156.323 27.348V27.8196H153.703ZM152.077 17.7709C147.988 18.2489 146.256 18.727 145.374 19.2273C144.811 19.5457 144.347 20.011 144.032 20.5728C143.716 21.1346 143.562 21.7715 143.584 22.4144C143.584 24.6167 144.903 25.9584 147.196 25.9584C148.274 25.982 149.336 25.6989 150.258 25.1425C151.958 24.043 152.077 22.1754 152.077 20.7157V17.7709Z" fill="#298BB7"/>
    <path d="M167.268 27.8198H163.654L157.099 8.11426H160.835L165.796 24.2694L171.393 8.11426H174.475L167.268 27.8198Z" fill="#298BB7"/>
    <path d="M178.474 18.0769C178.474 20.5245 178.551 26.0094 183.685 26.0094C184.939 26.0094 187.996 25.49 188.236 21.793H191.613C191.613 25.1426 188.858 28.2117 183.509 28.2117C177.294 28.2117 174.869 24.1865 174.869 18.5103C174.869 12.0884 177.435 7.67432 183.756 7.67432C188.833 7.67432 191.684 10.5937 191.684 16.8913V17.8888H178.474V18.0769ZM188.307 15.8459C188.278 14.6285 188.159 9.90526 183.817 9.90526C180.931 9.90526 178.852 11.9163 178.609 15.8459H188.307Z" fill="#298BB7"/>
    <path d="M197.339 14.1093C196.731 14.1049 196.139 13.9221 195.636 13.584C195.133 13.2458 194.742 12.7674 194.512 12.2089C194.282 11.6503 194.223 11.0367 194.343 10.4451C194.463 9.85352 194.756 9.31042 195.186 8.88413C195.616 8.45783 196.163 8.16739 196.759 8.04934C197.354 7.93129 197.972 7.9909 198.533 8.22068C199.095 8.45045 199.575 8.84013 199.915 9.34068C200.254 9.84124 200.437 10.4303 200.44 11.0338C200.445 11.4395 200.368 11.8421 200.213 12.2178C200.059 12.5935 199.831 12.9347 199.542 13.2213C199.253 13.5079 198.909 13.7341 198.53 13.8866C198.152 14.0392 197.747 14.1149 197.339 14.1093ZM197.339 8.27699C196.785 8.27257 196.242 8.43172 195.779 8.73425C195.316 9.03679 194.954 9.46907 194.739 9.9763C194.524 10.4835 194.465 11.0428 194.57 11.5833C194.675 12.1238 194.94 12.621 195.33 13.0121C195.719 13.4031 196.217 13.6703 196.76 13.7797C197.303 13.8891 197.866 13.8358 198.379 13.6266C198.891 13.4175 199.33 13.0618 199.638 12.6047C199.947 12.1476 200.112 11.6098 200.113 11.0593C200.118 10.6963 200.05 10.3358 199.914 9.99891C199.778 9.66198 199.576 9.35523 199.32 9.09644C199.064 8.83766 198.758 8.63197 198.421 8.49131C198.085 8.35064 197.723 8.2778 197.358 8.27699M197.624 9.23311C198.349 9.23311 198.74 9.49763 198.74 10.1669C198.757 10.3819 198.694 10.5955 198.565 10.7684C198.435 10.9412 198.247 11.0615 198.034 11.1071C198.183 11.1442 198.317 11.2248 198.419 11.3385C198.52 11.4521 198.586 11.5936 198.605 11.7445L198.791 12.4457C198.829 12.6036 198.902 12.7509 199.006 12.8759H198.32C198.239 12.8068 198.185 12.7123 198.166 12.6082L197.99 11.9708C197.868 11.4258 197.746 11.3334 197.027 11.3334H196.761V12.9014H196.12V9.25223L197.624 9.23311ZM196.777 10.9095H197.156C197.797 10.9095 198.118 10.8075 198.118 10.2721C198.118 9.84183 197.906 9.63468 197.316 9.63468H196.774L196.777 10.9095Z" fill="#298BB7"/>
    <path d="M0.442383 1.37996V22.4783C0.442383 22.4783 6.41076 19.049 11.1797 15.148C15.9486 11.2471 18.1006 8.04091 18.1006 8.04091C13.2406 3.73576 6.95295 1.36398 0.442383 1.37996Z" fill="#298BB7"/>
    <path d="M9.29102 0.00976562C13.7692 1.42513 17.8404 3.88732 21.1629 7.18968C24.4855 10.492 26.9625 14.5382 28.386 18.9887V0.00976562H9.29102Z" fill="#5AB456"/>
    <path d="M27.0363 27.8104H5.80859C5.80859 27.8104 9.24338 21.8538 13.1528 17.1401C17.0622 12.4264 20.3271 10.2656 20.3271 10.2656C24.6568 15.0962 27.0461 21.3414 27.0395 27.8104" fill="#298BB7"/>
    <path d="M9.96798 45.4728C9.97066 45.9236 9.8812 46.3704 9.705 46.7858C9.50665 47.194 9.21039 47.5475 8.8423 47.8153C8.40906 48.1412 7.91201 48.3735 7.38307 48.4973C6.69489 48.6844 5.98284 48.7703 5.26961 48.7523C3.8617 48.7523 2.75846 48.4973 1.96631 48.0256C1.58226 47.7879 1.25069 47.4752 0.991616 47.1066C0.732545 46.7379 0.551354 46.3209 0.458984 45.8807L1.94386 45.5907C2.0172 45.8706 2.13639 46.1365 2.29664 46.3779C2.47266 46.6249 2.68954 46.8404 2.93806 47.0153C3.24909 47.1983 3.58656 47.3326 3.93867 47.4137C4.40274 47.5175 4.87732 47.5678 5.35299 47.5635C5.77698 47.5638 6.20006 47.5243 6.61658 47.4456C6.96212 47.3825 7.29411 47.2607 7.59795 47.0854C7.85285 46.9274 8.0714 46.7178 8.23937 46.4703C8.4035 46.1939 8.48369 45.8763 8.47027 45.5556C8.48926 45.2339 8.39641 44.9155 8.20729 44.6537C8.0216 44.4064 7.77842 44.2073 7.49853 44.0737C7.14163 43.9141 6.77001 43.7892 6.38888 43.7008C5.95592 43.586 5.49731 43.4777 4.97135 43.3629C4.65064 43.2992 4.32993 43.2291 4.02526 43.1399C3.71082 43.0534 3.4023 42.947 3.10162 42.8211C2.81429 42.7076 2.53468 42.5756 2.26457 42.4259C2.01963 42.2659 1.7937 42.0788 1.59108 41.8682C1.40138 41.6463 1.25067 41.3942 1.1453 41.1224C1.04072 40.8037 0.990848 40.4697 0.997774 40.1345C0.979882 39.6523 1.09052 39.1741 1.31848 38.7481C1.53098 38.3534 1.84676 38.0231 2.2325 37.792C2.64732 37.5352 3.10433 37.3529 3.58268 37.2534C4.1515 37.139 4.73102 37.0856 5.3113 37.094C5.91786 37.0803 6.52418 37.1305 7.12009 37.2438C7.5738 37.3366 8.00786 37.507 8.40293 37.7474C8.73385 37.9598 9.01406 38.2415 9.22394 38.5728C9.44286 38.9174 9.61233 39.2907 9.72745 39.6819L8.20088 39.9496C8.13659 39.6949 8.02806 39.4533 7.88017 39.2357C7.73798 39.01 7.54608 38.8193 7.31893 38.678C7.05446 38.5397 6.77461 38.4328 6.48509 38.3593C6.09745 38.2834 5.70318 38.246 5.30809 38.2477C4.8623 38.2405 4.41734 38.2887 3.98357 38.3911C3.67242 38.4589 3.38008 38.5938 3.12728 38.7863C2.91576 38.9257 2.75058 39.1242 2.65263 39.3568C2.55584 39.5715 2.50453 39.8036 2.5019 40.0388C2.49765 40.3409 2.58971 40.6365 2.76488 40.8834C2.94566 41.1172 3.1769 41.3078 3.44157 41.4412C3.75943 41.6071 4.09807 41.7303 4.44859 41.8077C4.82062 41.9001 5.24074 41.9957 5.67049 42.0881C6.02006 42.1614 6.37605 42.2634 6.71279 42.3367C7.05227 42.4159 7.38734 42.5127 7.71661 42.6267C8.02322 42.7414 8.32118 42.8777 8.60818 43.0347C8.87476 43.1791 9.11536 43.3665 9.32015 43.5892C9.52613 43.8254 9.69187 44.0935 9.81083 44.3828C9.92594 44.7355 9.9791 45.1053 9.96798 45.476" fill="#626367"/>
    <path d="M16.9368 48.5865V43.0793C16.9367 42.7285 16.9121 42.3781 16.863 42.0307C16.823 41.7823 16.7252 41.5466 16.5776 41.3423C16.4656 41.1649 16.2958 41.031 16.0965 40.9631C15.8477 40.8904 15.5893 40.855 15.33 40.8579C15.0486 40.8575 14.7705 40.9184 14.5154 41.0364C14.263 41.162 14.0434 41.3442 13.874 41.5686C13.694 41.8189 13.5614 42.0997 13.4827 42.3972C13.3828 42.7769 13.3343 43.1681 13.3384 43.5605V48.5865H11.876V41.7598C11.876 41.5845 11.876 41.3742 11.876 41.1798C11.876 40.9854 11.876 40.8005 11.876 40.6029C11.876 40.4053 11.876 40.2842 11.876 40.1472C11.8846 40.0688 11.8846 39.9897 11.876 39.9113H13.2326C13.2462 39.9838 13.2527 40.0575 13.2518 40.1312C13.2518 40.2428 13.2711 40.3703 13.2775 40.5264C13.2839 40.6826 13.2967 40.826 13.3063 40.9886C13.316 41.1511 13.3063 41.2754 13.3063 41.3806H13.3352C13.4485 41.1393 13.5871 40.9107 13.7489 40.6985C13.8939 40.5024 14.0693 40.3303 14.2685 40.1886C14.4788 40.0388 14.7161 39.9306 14.9676 39.8699C15.267 39.792 15.5754 39.7535 15.8848 39.7552C16.4379 39.7284 16.986 39.8695 17.4563 40.1599C17.8635 40.4624 18.148 40.9 18.2581 41.3933C18.3899 41.1584 18.5344 40.9307 18.691 40.7113C18.8553 40.5169 19.0452 40.3454 19.2555 40.2014C19.4799 40.0495 19.7313 39.9413 19.9963 39.8827C20.2977 39.804 20.6083 39.7655 20.9199 39.7679C21.3022 39.7632 21.6822 39.8258 22.0424 39.9528C22.3466 40.05 22.6147 40.2353 22.8121 40.485C23.0401 40.7547 23.1967 41.0768 23.2675 41.422C23.3756 41.8815 23.4262 42.3525 23.4183 42.8243V48.5961H21.9911V43.0793C21.9926 42.7282 21.9658 42.3776 21.9109 42.0307C21.8699 41.7837 21.7747 41.5487 21.6319 41.3423C21.5162 41.1605 21.3387 41.0259 21.1316 40.9631C20.8894 40.8903 20.6374 40.8548 20.3844 40.8579C20.1007 40.8557 19.8202 40.9167 19.5634 41.0364C19.311 41.1504 19.0907 41.3245 18.9219 41.5431C18.7384 41.7941 18.6045 42.0775 18.5275 42.3781C18.427 42.7642 18.3774 43.1617 18.3799 43.5605V48.5865H16.9368Z" fill="#626367"/>
    <path d="M27.8508 48.7491C26.972 48.7491 26.3146 48.5133 25.8784 48.048C25.6476 47.7909 25.4701 47.4911 25.3562 47.1656C25.2422 46.8402 25.1941 46.4956 25.2145 46.1517C25.1944 45.6653 25.3051 45.1823 25.5352 44.7526C25.7394 44.4007 26.0309 44.1066 26.3819 43.8984C26.7605 43.6821 27.1757 43.5363 27.607 43.4682C28.0551 43.3736 28.5119 43.3256 28.97 43.3248L30.952 43.2865V42.8148C30.9525 42.5095 30.9137 42.2053 30.8365 41.9097C30.7592 41.6824 30.6396 41.4716 30.4838 41.2882C30.3099 41.1403 30.1112 41.0238 29.8969 40.944C29.6231 40.87 29.3404 40.8335 29.0566 40.8357C28.8026 40.8363 28.5491 40.8608 28.2997 40.909C28.0912 40.9404 27.8914 41.0142 27.7129 41.1257C27.5458 41.2312 27.4071 41.3756 27.3088 41.5464C27.2032 41.7604 27.137 41.9913 27.1131 42.2284L25.6026 42.0786C25.6468 41.7424 25.7557 41.4178 25.9233 41.1225C26.0695 40.8227 26.2902 40.5649 26.5647 40.3736C26.8801 40.1487 27.2379 39.9894 27.6166 39.9051C28.1061 39.7757 28.6111 39.7135 29.1176 39.7202C30.208 39.7202 31.0418 39.972 31.603 40.4596C32.1643 40.9472 32.4305 41.6866 32.4305 42.6459V46.3748C32.4124 46.7022 32.4705 47.0294 32.6004 47.3309C32.6648 47.44 32.7597 47.5282 32.8736 47.5848C32.9874 47.6414 33.1154 47.6639 33.2419 47.6496C33.323 47.6544 33.4044 47.6544 33.4856 47.6496L33.7229 47.6018V48.5006C33.5441 48.5411 33.3631 48.572 33.1809 48.593C32.9877 48.6214 32.7926 48.6352 32.5972 48.6344C32.3545 48.6335 32.1134 48.5959 31.8821 48.5229C31.707 48.4506 31.5495 48.3419 31.4202 48.2042C31.29 48.0414 31.1901 47.8568 31.1252 47.6592C31.0644 47.4044 31.0226 47.1456 31.0001 46.8847H30.9712C30.8178 47.1566 30.6407 47.4147 30.4421 47.656C30.2643 47.881 30.047 48.0721 29.8007 48.2201C29.5428 48.3817 29.2616 48.5031 28.9668 48.5802C28.6075 48.6722 28.2378 48.7182 27.8668 48.7173M28.1875 47.6337C28.577 47.6457 28.9644 47.5742 29.3236 47.424C29.6828 47.2739 30.0052 47.0486 30.2689 46.7636C30.4873 46.5144 30.657 46.2269 30.7692 45.9158C30.8827 45.6312 30.9467 45.3294 30.9584 45.0235V44.3096L29.3549 44.3478C29.016 44.3522 28.6777 44.3756 28.3414 44.4179C28.0436 44.4584 27.7556 44.5523 27.4916 44.6952C27.2516 44.8257 27.0562 45.0243 26.9303 45.2657C26.7734 45.5511 26.7012 45.8749 26.7219 46.1995C26.703 46.396 26.7258 46.5942 26.7887 46.7814C26.8517 46.9686 26.9535 47.1406 27.0875 47.2863C27.2331 47.4227 27.4052 47.5281 27.5932 47.5961C27.7813 47.6641 27.9813 47.6931 28.1811 47.6815" fill="#626367"/>
    <path d="M34.8608 48.5869V41.9259C34.8608 41.7411 34.8608 41.5626 34.8608 41.3682C34.8608 41.1738 34.8608 40.9985 34.8608 40.8136C34.8608 40.6288 34.8608 40.479 34.8415 40.3228C34.8223 40.1667 34.8415 40.0328 34.8223 39.9117H36.2013C36.2013 40.0328 36.2013 40.1603 36.2238 40.3228C36.2462 40.4854 36.2238 40.6415 36.2238 40.8136C36.2238 40.9857 36.2238 41.1323 36.2238 41.2821C36.2238 41.4319 36.2238 41.5785 36.2238 41.6837H36.2622C36.3482 41.3865 36.4553 41.0957 36.583 40.8136C36.692 40.5977 36.8266 40.3955 36.9838 40.2113C37.1384 40.0503 37.3298 39.9289 37.5419 39.8575C37.7962 39.779 38.0613 39.7403 38.3276 39.7428C38.4416 39.7436 38.5554 39.7543 38.6676 39.7747C38.7519 39.7945 38.8377 39.8073 38.9241 39.8129V41.1451C38.8109 41.1188 38.6964 41.0986 38.581 41.0845C38.4362 41.0679 38.2905 41.0604 38.1448 41.0622C37.8506 41.0553 37.5608 41.134 37.311 41.2885C37.0612 41.4437 36.8592 41.6642 36.7273 41.9259C36.5617 42.2142 36.4529 42.5311 36.4066 42.8597C36.3281 43.2531 36.2948 43.654 36.3071 44.0549V48.5869H34.8608Z" fill="#626367"/>
    <path d="M43.6936 48.5197C43.4733 48.5817 43.2495 48.6306 43.0233 48.6663C42.7593 48.6959 42.4937 48.7098 42.2279 48.7077C41.0477 48.7077 40.4641 48.0512 40.4641 46.7509V40.9504H39.457V39.9114H40.5314L40.9547 37.9546H41.9169V39.9114H43.5429V40.9504H41.9169V46.4385C41.8958 46.7461 41.9721 47.0526 42.1349 47.315C42.2267 47.4081 42.3383 47.4796 42.4615 47.5242C42.5847 47.5689 42.7164 47.5856 42.8469 47.5731C42.9836 47.5743 43.1201 47.5614 43.2542 47.5349C43.3989 47.5011 43.5457 47.4766 43.6936 47.4616V48.5197Z" fill="#626367"/>
    <path d="M56.0787 46.1839C56.083 46.5579 55.9996 46.9279 55.8349 47.2643C55.6691 47.584 55.4309 47.8611 55.139 48.0738C54.8047 48.3103 54.4297 48.4842 54.0325 48.5869C53.5362 48.7001 53.028 48.7536 52.5188 48.7462C52.0638 48.747 51.6097 48.7064 51.1622 48.6251C50.7819 48.564 50.4152 48.4378 50.0782 48.2523C49.7785 48.0862 49.5173 47.8592 49.3117 47.5862C49.0963 47.2701 48.9459 46.9148 48.8691 46.5408L50.152 46.2827C50.1979 46.4993 50.2901 46.7036 50.4223 46.8817C50.5545 47.0599 50.7237 47.2077 50.9185 47.3153C51.4177 47.5532 51.9691 47.6628 52.522 47.634C52.8138 47.6333 53.1053 47.6131 53.3943 47.5734C53.6305 47.5359 53.8591 47.4605 54.071 47.3503C54.255 47.2519 54.4073 47.1039 54.5104 46.9233C54.6162 46.7279 54.6661 46.5074 54.6547 46.2858C54.6692 46.0588 54.6046 45.8338 54.4719 45.6484C54.3428 45.4683 54.1679 45.3253 53.9652 45.2341C53.7041 45.1082 53.434 45.0017 53.157 44.9154L52.1147 44.6509C51.7619 44.5648 51.4124 44.4565 51.0788 44.3513C50.7508 44.2454 50.4389 44.0953 50.152 43.9051C49.8803 43.7233 49.648 43.4892 49.4689 43.2167C49.2828 42.9036 49.1905 42.5443 49.2027 42.1809C49.1888 41.8315 49.26 41.4839 49.4102 41.1676C49.5604 40.8514 49.7851 40.5758 50.0654 40.3643C50.633 39.9595 51.4573 39.7524 52.538 39.7524C53.3389 39.7104 54.1367 39.8797 54.8503 40.2432C55.1375 40.4231 55.3816 40.6632 55.5655 40.9468C55.7494 41.2303 55.8688 41.5503 55.9151 41.8845L54.6323 42.0311C54.5815 41.8242 54.4864 41.6307 54.3533 41.4638C54.2205 41.3182 54.0617 41.1983 53.885 41.1101C53.6943 41.0099 53.4885 40.9411 53.2757 40.9061C53.0364 40.8636 52.7939 40.8423 52.5509 40.8423C52.0498 40.8124 51.5495 40.9111 51.0981 41.1292C50.951 41.2282 50.8321 41.3632 50.7529 41.5212C50.6737 41.6792 50.6368 41.8548 50.6459 42.0311C50.6322 42.2383 50.6899 42.444 50.8094 42.6144C50.938 42.7868 51.1077 42.9248 51.3033 43.0159C51.5405 43.1247 51.7875 43.2112 52.0409 43.2741C52.3232 43.3474 52.6567 43.443 53.0031 43.5258C53.2372 43.5705 53.4745 43.6501 53.7215 43.7011C53.9684 43.7521 54.2089 43.8573 54.4366 43.9497C54.6613 44.0329 54.8763 44.1398 55.0781 44.2684C55.2723 44.3961 55.4482 44.5494 55.6008 44.7242C55.7607 44.905 55.8857 45.1135 55.9696 45.3393C56.0592 45.6032 56.1047 45.8799 56.1043 46.1584" fill="#626367"/>
    <path d="M58.8948 44.5518C58.8906 44.9743 58.9369 45.3959 59.0327 45.8075C59.1211 46.1604 59.2673 46.4963 59.4657 46.8019C59.6716 47.0696 59.9358 47.2876 60.2386 47.4393C60.5866 47.5965 60.9661 47.6728 61.3482 47.6624C61.8759 47.6882 62.3991 47.5549 62.8491 47.2799C63.2072 47.0578 63.4778 46.7203 63.6156 46.3238L64.8985 46.6872C64.7956 46.9423 64.6621 47.1841 64.5008 47.4074C64.3366 47.6701 64.1179 47.895 63.8594 48.0671C63.5414 48.2809 63.1919 48.4443 62.8235 48.5516C62.3454 48.6885 61.8488 48.7508 61.3514 48.7364C60.0397 48.7364 59.0648 48.354 58.3817 47.5795C57.6986 46.8051 57.3747 45.6896 57.3747 44.1758C57.3542 43.4786 57.4551 42.7831 57.6729 42.1201C57.8529 41.602 58.1439 41.129 58.526 40.7337C58.8766 40.3869 59.3038 40.1261 59.7736 39.972C60.2581 39.8056 60.7683 39.7247 61.2809 39.733C61.9154 39.7135 62.5464 39.8343 63.1282 40.0868C63.5927 40.3059 63.9966 40.6341 64.3052 41.0429C64.6156 41.4863 64.8337 41.9869 64.9466 42.5153C65.085 43.1143 65.1549 43.7269 65.155 44.3415V44.5295L58.8948 44.5518ZM63.6221 43.4491C63.5515 42.528 63.3013 41.8556 62.9165 41.4444C62.7012 41.2241 62.4402 41.0529 62.1517 40.9428C61.8632 40.8328 61.554 40.7864 61.2456 40.807C60.9874 40.8083 60.7306 40.8448 60.4823 40.9154C60.2199 41.0111 59.9791 41.1573 59.7736 41.3456C59.5286 41.5707 59.3322 41.8429 59.1963 42.1456C59.0188 42.5578 58.925 43.0008 58.9205 43.4491H63.6221Z" fill="#626367"/>
    <path d="M68.0768 44.2043C68.0782 44.6665 68.1157 45.1279 68.1891 45.5843C68.2561 45.9594 68.3816 46.3218 68.5611 46.6584C68.7214 46.9516 68.96 47.1953 69.2506 47.3627C69.5705 47.5327 69.9305 47.6142 70.2929 47.5985C70.756 47.6168 71.2106 47.4711 71.5757 47.1874C71.9496 46.8626 72.18 46.4047 72.2171 45.9126L73.6924 46.0082C73.6332 46.3622 73.5253 46.7065 73.3717 47.0312C73.2055 47.3579 72.9891 47.6568 72.7303 47.9173C72.4221 48.1661 72.0784 48.3681 71.7104 48.5164C71.2676 48.6802 70.7973 48.7581 70.325 48.7459C69.7276 48.7626 69.1342 48.6438 68.5899 48.3985C68.1243 48.1798 67.7192 47.8516 67.4097 47.4424C67.1096 47.0096 66.8922 46.5256 66.7683 46.0146C66.6271 45.4302 66.5592 44.8308 66.5663 44.2298C66.554 43.7106 66.6036 43.1918 66.7138 42.6841C66.7953 42.2735 66.9323 41.8758 67.1211 41.5017C67.2714 41.1914 67.4755 40.9098 67.724 40.6699C67.9504 40.4465 68.2127 40.2623 68.5001 40.1249C68.7839 39.9847 69.0831 39.8777 69.3917 39.8062C69.6927 39.7551 69.9972 39.7274 70.3025 39.7233C70.7526 39.7192 71.2005 39.7848 71.6303 39.9177C71.9854 40.0487 72.3184 40.2324 72.618 40.4627C72.8824 40.7052 73.1074 40.9869 73.2851 41.2977C73.455 41.619 73.575 41.9639 73.6411 42.3208L72.153 42.4355C72.0975 41.9985 71.8965 41.5924 71.5821 41.2818C71.2192 40.9815 70.7547 40.8299 70.2833 40.8579C69.9229 40.8404 69.5635 40.9081 69.2346 41.0555C68.9504 41.1967 68.7149 41.4185 68.5579 41.6929C68.3751 42.0122 68.2492 42.3605 68.1858 42.7224C68.1091 43.2094 68.0716 43.7018 68.0736 44.1948" fill="#626367"/>
    <path d="M76.6582 39.9116V45.4029C76.6509 45.7642 76.6886 46.1249 76.7705 46.477C76.8045 46.7235 76.9079 46.9555 77.0687 47.1462C77.2036 47.3294 77.3969 47.462 77.6171 47.5223C77.8934 47.5945 78.1782 47.6288 78.4638 47.6243C78.7848 47.6335 79.1044 47.5782 79.4035 47.4618C79.6768 47.329 79.9209 47.1437 80.1219 46.9168C80.3237 46.6706 80.4761 46.3882 80.5709 46.085C80.6825 45.7086 80.7344 45.3172 80.7248 44.9249V39.9116H82.184V46.7287C82.184 46.9168 82.184 47.1112 82.184 47.3024C82.184 47.4936 82.184 47.6976 82.2 47.8793C82.2161 48.0609 82.2 48.198 82.2193 48.3446C82.2181 48.4257 82.2245 48.5068 82.2385 48.5868H80.8563C80.8457 48.5128 80.8393 48.4384 80.837 48.3637C80.837 48.2521 80.837 48.1215 80.8146 47.9621C80.7921 47.8028 80.7953 47.6434 80.7889 47.4904V47.108H80.7697C80.6321 47.3444 80.48 47.5722 80.3143 47.79C80.1389 47.9841 79.9396 48.1555 79.721 48.3C79.491 48.4479 79.2371 48.5557 78.9705 48.6187C78.6465 48.7001 78.3137 48.7418 77.9795 48.743C77.5539 48.7532 77.1294 48.695 76.7224 48.5709C76.3964 48.4602 76.1033 48.2707 75.8693 48.0195C75.6189 47.75 75.4432 47.4206 75.3593 47.0634C75.2479 46.612 75.1972 46.148 75.2086 45.6834V39.9116H76.6582Z" fill="#626367"/>
    <path d="M84.4678 48.5868V41.3682C84.4678 41.1738 84.4678 40.9985 84.4678 40.8136C84.4678 40.6288 84.4678 40.479 84.4678 40.3228C84.4678 40.1666 84.4678 40.0328 84.4453 39.9117H85.8244C85.8244 40.0328 85.8244 40.1603 85.8244 40.3228C85.8244 40.4853 85.8244 40.6415 85.85 40.8136C85.8757 40.9857 85.85 41.1323 85.85 41.2821C85.85 41.4319 85.85 41.5785 85.85 41.6837H85.8949C85.9779 41.3855 86.0852 41.0945 86.2156 40.8136C86.3225 40.5972 86.4561 40.3948 86.6133 40.2113C86.7666 40.0503 86.957 39.9289 87.1681 39.8575C87.4214 39.7793 87.6854 39.7406 87.9507 39.7428C88.0658 39.7432 88.1806 39.7538 88.2938 39.7746C88.3778 39.7958 88.4638 39.8086 88.5504 39.8129V41.1451C88.4372 41.1185 88.3227 41.0983 88.2072 41.0845C88.0635 41.0684 87.9189 41.0609 87.7743 41.0622C87.4741 41.0558 87.1782 41.1342 86.9212 41.2885C86.6804 41.4494 86.485 41.6688 86.3535 41.9259C86.1894 42.2148 86.0807 42.5314 86.0328 42.8597C85.9569 43.2535 85.9214 43.6539 85.927 44.0548V48.5868H84.4678Z" fill="#626367"/>
    <path d="M89.9492 48.5868H91.402V39.9116H89.9492V48.5868ZM89.9492 38.0504H91.402V36.6831H89.9492V38.0504Z" fill="#626367"/>
    <path d="M96.9917 48.5197C96.7701 48.5807 96.5452 48.6296 96.3182 48.6663C96.0531 48.6962 95.7865 48.71 95.5197 48.7077C94.3459 48.7077 93.759 48.0512 93.759 46.7509V40.9504H92.752V39.9114H93.8295L94.2529 37.9546H95.215V39.9114H96.8378V40.9504H95.215V46.4385C95.194 46.7453 95.2678 47.0511 95.4267 47.315C95.5195 47.4076 95.6317 47.4787 95.7553 47.5234C95.8789 47.568 96.0109 47.585 96.1418 47.5731C96.2764 47.5743 96.4108 47.5615 96.5427 47.5349C96.6908 47.5014 96.8407 47.477 96.9917 47.4616V48.5197Z" fill="#626367"/>
    <path d="M101.982 48.5867C101.8 49.073 101.586 49.5468 101.34 50.0049C101.15 50.3901 100.912 50.7498 100.632 51.0758C100.379 51.3507 100.082 51.5823 99.7529 51.761C99.4053 51.9245 99.0245 52.0063 98.64 52C98.4412 52 98.2872 52 98.1172 51.9809C97.9473 51.9618 97.7965 51.9363 97.6394 51.9171V50.8176C97.755 50.838 97.8717 50.8519 97.989 50.859C98.098 50.859 98.2103 50.859 98.3097 50.859C98.7502 50.8468 99.1715 50.677 99.4963 50.381C99.9308 49.9666 100.256 49.4521 100.442 48.8831L100.587 48.5325L97.123 39.8956H98.6721L100.523 44.6761C100.564 44.8196 100.651 45.0108 100.725 45.2498C100.798 45.4888 100.888 45.7438 100.981 45.986C101.074 46.2282 101.125 46.445 101.202 46.6234C101.279 46.8019 101.299 46.9421 101.311 46.9931C101.341 46.8714 101.383 46.7529 101.437 46.6394C101.491 46.4378 101.559 46.2398 101.639 46.0466C101.709 45.8362 101.786 45.6195 101.882 45.4092C101.979 45.1988 102.011 45.0044 102.078 44.8323L103.794 39.8828H105.327L101.982 48.5867Z" fill="#626367"/>
    <path d="M118.463 44.2458C118.463 45.7565 118.142 46.8911 117.456 47.6241C116.77 48.3571 115.811 48.7459 114.537 48.7459C113.979 48.7582 113.423 48.6652 112.899 48.4718C112.428 48.3019 112.009 48.0143 111.683 47.6368C111.331 47.2334 111.074 46.7563 110.933 46.2409C110.735 45.5946 110.642 44.9212 110.657 44.2458C110.657 41.2532 111.965 39.7425 114.576 39.7425C115.175 39.7215 115.771 39.8212 116.33 40.0357C116.805 40.1969 117.227 40.4846 117.549 40.8675C117.883 41.2731 118.119 41.7496 118.238 42.2603C118.402 42.9092 118.478 43.577 118.463 44.2458ZM116.949 44.2458C116.957 43.6843 116.899 43.1238 116.776 42.5758C116.701 42.1949 116.549 41.8329 116.33 41.5113C116.136 41.2621 115.874 41.0722 115.577 40.9631C115.267 40.8577 114.942 40.8038 114.614 40.8038C114.274 40.7965 113.935 40.8505 113.614 40.9631C113.31 41.0728 113.046 41.269 112.854 41.5272C112.619 41.8407 112.451 42.1986 112.36 42.579C112.243 43.1236 112.19 43.6796 112.199 44.2362C112.184 44.7994 112.245 45.3621 112.379 45.9094C112.463 46.2889 112.63 46.6456 112.867 46.9548C113.052 47.2043 113.306 47.3957 113.598 47.5062C113.897 47.62 114.214 47.6784 114.534 47.6783C114.876 47.6761 115.214 47.6201 115.538 47.5125C115.843 47.4089 116.111 47.2182 116.308 46.9644C116.533 46.6466 116.694 46.2883 116.782 45.9094C116.907 45.3606 116.967 44.7989 116.959 44.2362" fill="#626367"/>
    <path d="M125.817 48.5865V43.0793C125.829 42.7275 125.798 42.3755 125.727 42.0307C125.692 41.7788 125.589 41.541 125.429 41.3423C125.291 41.1602 125.097 41.0271 124.877 40.9631C124.599 40.8899 124.312 40.8545 124.024 40.8579C123.704 40.8555 123.387 40.9162 123.091 41.0364C122.812 41.1534 122.565 41.336 122.372 41.5686C122.163 41.8106 122.006 42.0926 121.911 42.3972C121.805 42.7758 121.755 43.1677 121.763 43.5605V48.5865H120.31V41.7598C120.31 41.5845 120.31 41.3742 120.31 41.1798C120.31 40.9854 120.31 40.8005 120.31 40.6029C120.31 40.4053 120.291 40.2842 120.288 40.1472C120.287 40.0682 120.281 39.9894 120.269 39.9113H121.644C121.66 39.9836 121.668 40.0573 121.667 40.1312C121.667 40.2428 121.667 40.3703 121.692 40.5264C121.718 40.6826 121.692 40.826 121.692 40.9886C121.692 41.1511 121.692 41.2754 121.692 41.3806H121.718C121.866 41.1447 122.016 40.9153 122.18 40.6985C122.352 40.5037 122.55 40.3322 122.767 40.1886C122.998 40.0389 123.255 39.931 123.524 39.8699C123.847 39.7921 124.179 39.7536 124.512 39.7552C124.938 39.75 125.362 39.8124 125.769 39.94C126.1 40.0389 126.397 40.2289 126.625 40.4882C126.873 40.7525 127.049 41.0748 127.138 41.4252C127.238 41.8857 127.284 42.3564 127.273 42.8275V48.5993L125.817 48.5865Z" fill="#626367"/>
    <path d="M139.572 47.1781C139.362 47.6802 138.991 48.0993 138.517 48.37C138.009 48.6298 137.442 48.756 136.871 48.7365C135.768 48.7365 134.947 48.3605 134.424 47.6275C133.902 46.8944 133.639 45.779 133.639 44.2683C133.639 41.2502 134.723 39.7331 136.871 39.7331C137.444 39.7111 138.012 39.8374 138.52 40.0996C138.988 40.3579 139.358 40.7622 139.572 41.2502H139.591C139.591 41.1896 139.591 41.1067 139.591 40.992C139.591 40.8773 139.591 40.7593 139.591 40.6255C139.591 40.4916 139.591 40.3769 139.591 40.2622V36.6831H141.047V47.3916C141.047 47.586 141.047 47.7709 141.069 47.9175C141.092 48.0641 141.069 48.2362 141.089 48.3509C141.089 48.4299 141.096 48.5087 141.108 48.5868H139.706C139.693 48.5131 139.687 48.4385 139.687 48.3637C139.687 48.2489 139.687 48.1406 139.668 48.029C139.649 47.9175 139.649 47.7549 139.646 47.6051C139.642 47.4553 139.646 47.3342 139.646 47.1876L139.572 47.1781ZM135.181 44.2364C135.167 44.751 135.206 45.2658 135.297 45.7726C135.341 46.14 135.46 46.4945 135.646 46.8148C135.791 47.0862 136.015 47.3082 136.288 47.4522C136.58 47.5835 136.9 47.6446 137.221 47.6306C137.568 47.6445 137.915 47.5859 138.238 47.4585C138.542 47.3318 138.802 47.119 138.985 46.8466C139.204 46.5227 139.355 46.1587 139.431 45.7758C139.538 45.2409 139.585 44.6956 139.569 44.1504C139.584 43.6284 139.538 43.1063 139.431 42.5951C139.357 42.2215 139.202 41.8682 138.978 41.5593C138.791 41.3028 138.534 41.1048 138.238 40.9888C137.92 40.8678 137.581 40.8104 137.24 40.8199C136.922 40.8096 136.606 40.8729 136.317 41.0048C136.056 41.1445 135.836 41.3473 135.675 41.5944C135.491 41.9239 135.367 42.2832 135.31 42.6556C135.206 43.1803 135.163 43.7149 135.181 44.2492" fill="#626367"/>
    <path d="M144.367 44.5519C144.368 44.9749 144.419 45.3962 144.518 45.8076C144.604 46.1609 144.751 46.4971 144.95 46.802C145.153 47.0658 145.41 47.2832 145.704 47.4394C146.055 47.5946 146.436 47.6708 146.82 47.6625C147.352 47.6883 147.879 47.5551 148.334 47.28C148.688 47.0533 148.957 46.7174 149.1 46.3239L150.383 46.6872C150.278 46.9412 150.144 47.1827 149.986 47.4075C149.822 47.6705 149.603 47.8954 149.344 48.0672C149.025 48.2785 148.676 48.4418 148.308 48.5517C147.828 48.6897 147.329 48.7521 146.83 48.7365C145.547 48.7365 144.553 48.3541 143.876 47.5796C143.199 46.8052 142.837 45.6993 142.837 44.1854C142.819 43.4881 142.921 42.7929 143.138 42.1298C143.317 41.6111 143.608 41.1378 143.992 40.7434C144.343 40.3973 144.77 40.1366 145.239 39.9817C145.724 39.8137 146.236 39.7328 146.75 39.7427C147.383 39.7237 148.013 39.8445 148.594 40.0964C149.058 40.3156 149.462 40.6437 149.771 41.0525C150.08 41.4967 150.298 41.997 150.412 42.525C150.548 43.1242 150.616 43.7368 150.614 44.3511V44.5392L144.367 44.5519ZM149.113 43.4492C149.034 42.5271 148.797 41.8589 148.401 41.4445C148.186 41.2236 147.924 41.052 147.635 40.9419C147.346 40.8318 147.036 40.7858 146.727 40.8071C146.471 40.8082 146.216 40.8447 145.97 40.9155C145.7 41.0048 145.451 41.1491 145.239 41.3394C144.989 41.5588 144.794 41.8325 144.668 42.1393C144.487 42.5503 144.392 42.9939 144.389 43.4428L149.113 43.4492Z" fill="#626367"/>
    <path d="M157.548 48.5867V43.0794C157.557 42.7277 157.527 42.3761 157.458 42.0309C157.434 41.7838 157.347 41.547 157.205 41.3425C157.081 41.1647 156.902 41.0317 156.695 40.9632C156.455 40.8909 156.205 40.8554 155.954 40.858C155.663 40.8583 155.374 40.9191 155.108 41.0365C154.853 41.1589 154.633 41.3417 154.466 41.5688C154.286 41.819 154.154 42.0998 154.075 42.3974C153.964 42.775 153.915 43.1676 153.927 43.5607V48.5867H152.484V41.76C152.484 41.5847 152.484 41.3743 152.484 41.1799C152.484 40.9855 152.484 40.8007 152.468 40.6031C152.452 40.4055 152.452 40.2844 152.449 40.1473C152.447 40.0684 152.44 39.9897 152.43 39.9115H153.809C153.809 39.9274 153.809 40.0071 153.831 40.1314C153.854 40.2557 153.831 40.3704 153.85 40.5266C153.87 40.6828 153.85 40.8262 153.85 40.9887C153.85 41.1513 153.85 41.2755 153.85 41.3807H153.876C154.011 41.1449 154.158 40.9154 154.293 40.6987C154.444 40.5004 154.628 40.3282 154.835 40.1888C155.041 40.0421 155.273 39.9341 155.518 39.8701C155.813 39.7921 156.117 39.7535 156.422 39.7553C156.976 39.7237 157.526 39.8652 157.994 40.1601C158.412 40.4536 158.701 40.8949 158.802 41.3935H158.873C159 41.1543 159.147 40.9262 159.312 40.7114C159.471 40.5135 159.661 40.3414 159.873 40.2015C160.091 40.0551 160.333 39.9473 160.588 39.8828C160.892 39.806 161.205 39.7675 161.519 39.7681C161.909 39.764 162.297 39.8265 162.667 39.9529C162.976 40.0565 163.249 40.2469 163.452 40.5011C163.673 40.775 163.828 41.0955 163.905 41.4381C164.005 41.8987 164.051 42.3692 164.043 42.8404V48.6121H162.599V43.0794C162.615 42.7282 162.591 42.3764 162.526 42.0309C162.491 41.7836 162.399 41.5478 162.256 41.3425C162.141 41.1612 161.965 41.0267 161.759 40.9632C161.519 40.8913 161.269 40.8559 161.018 40.858C160.726 40.8552 160.437 40.9162 160.172 41.0365C159.915 41.1438 159.693 41.3191 159.53 41.5433C159.339 41.7927 159.198 42.0761 159.113 42.3783C159.02 42.7652 158.977 43.1628 158.988 43.5607V48.5867H157.548Z" fill="#626367"/>
    <path d="M168.465 48.7491C167.592 48.7491 166.932 48.5133 166.483 48.048C166.249 47.7922 166.07 47.4927 165.955 47.167C165.84 46.8414 165.791 46.4962 165.812 46.1517C165.796 45.6629 165.915 45.1789 166.156 44.7525C166.357 44.3968 166.652 44.1018 167.009 43.8984C167.379 43.6807 167.787 43.5347 168.211 43.4682C168.668 43.3739 169.133 43.3259 169.6 43.3247L171.55 43.2865V42.8148C171.559 42.5092 171.521 42.2039 171.438 41.9097C171.38 41.6741 171.258 41.459 171.085 41.2882C170.918 41.1343 170.72 41.0171 170.504 40.944C170.236 40.8698 169.959 40.8334 169.68 40.8356C169.428 40.8351 169.177 40.8596 168.93 40.9089C168.717 40.9377 168.514 41.0116 168.333 41.1257C168.168 41.2308 168.033 41.3755 167.939 41.5464C167.817 41.7553 167.741 41.9879 167.717 42.2284L166.207 42.085C166.262 41.7538 166.363 41.4319 166.508 41.1289C166.666 40.8368 166.885 40.5815 167.15 40.3799C167.463 40.1589 167.815 39.9998 168.189 39.9114C168.688 39.7821 169.203 39.7199 169.719 39.7265C170.809 39.7265 171.624 39.9783 172.185 40.4659C172.473 40.7501 172.696 41.0922 172.84 41.4693C172.984 41.8464 173.045 42.2498 173.019 42.6523V46.3811C173.003 46.7075 173.058 47.0335 173.179 47.3372C173.248 47.4476 173.347 47.5362 173.464 47.5927C173.582 47.6492 173.713 47.6711 173.843 47.6559C173.921 47.6603 173.999 47.6603 174.077 47.6559C174.164 47.6559 174.231 47.6241 174.298 47.6081V48.5069C174.12 48.5504 173.939 48.5813 173.756 48.5993C173.565 48.6293 173.372 48.6431 173.179 48.6407C172.944 48.6411 172.71 48.6034 172.486 48.5292C172.304 48.4562 172.138 48.3479 171.999 48.2105C171.867 48.0518 171.774 47.8654 171.726 47.6655C171.646 47.415 171.605 47.1538 171.604 46.8911H171.543C171.41 47.1723 171.247 47.4392 171.059 47.6878C170.872 47.9039 170.656 48.0937 170.418 48.2519C170.154 48.4153 169.866 48.5368 169.565 48.6121C169.212 48.7043 168.849 48.7503 168.484 48.7491M168.805 47.6655C169.224 47.6779 169.64 47.5894 170.017 47.4074C170.346 47.2593 170.638 47.0417 170.873 46.7699C171.091 46.5121 171.262 46.2188 171.38 45.9031C171.484 45.6168 171.538 45.315 171.54 45.0107V44.3095L169.937 44.3478C169.599 44.3537 169.262 44.3771 168.926 44.4179C168.632 44.4608 168.348 44.5546 168.086 44.6952C167.851 44.8294 167.658 45.0272 167.531 45.2657C167.372 45.5504 167.298 45.8742 167.317 46.1995C167.301 46.398 167.328 46.5976 167.396 46.7849C167.464 46.9722 167.572 47.1431 167.711 47.2862C167.854 47.4259 168.025 47.5334 168.213 47.6016C168.401 47.6698 168.602 47.697 168.801 47.6814" fill="#626367"/>
    <path d="M180.979 48.5865V43.0792C180.981 42.728 180.953 42.3772 180.896 42.0307C180.843 41.7798 180.734 41.5442 180.575 41.3423C180.445 41.159 180.256 41.0252 180.039 40.963C179.764 40.8902 179.481 40.8548 179.196 40.8579C178.875 40.8574 178.557 40.9179 178.259 41.0363C177.986 41.1531 177.747 41.3361 177.564 41.5686C177.346 41.8043 177.189 42.0885 177.105 42.3972C176.984 42.7731 176.925 43.1659 176.929 43.5605V48.5865H175.476V41.7598C175.476 41.5845 175.476 41.3742 175.476 41.1797C175.476 40.9853 175.476 40.8005 175.46 40.6029C175.444 40.4053 175.46 40.2842 175.44 40.1471V39.9113H176.797C176.809 39.9841 176.817 40.0575 176.819 40.1312C176.819 40.2428 176.819 40.3702 176.845 40.5264C176.871 40.6826 176.845 40.826 176.871 40.9885C176.896 41.1511 176.871 41.2754 176.871 41.3805H176.9C177.032 41.1441 177.18 40.9163 177.342 40.6985C177.514 40.5045 177.71 40.3331 177.926 40.1886C178.159 40.0389 178.416 39.931 178.686 39.8699C179.014 39.7927 179.35 39.7542 179.687 39.7551C180.108 39.7504 180.527 39.8128 180.928 39.94C181.268 40.0369 181.573 40.2269 181.81 40.4882C182.05 40.7534 182.215 41.0764 182.291 41.4252C182.409 41.8831 182.466 42.3546 182.461 42.8275V48.5992L180.979 48.5865Z" fill="#626367"/>
    <path d="M190.144 47.1781C189.918 47.6779 189.54 48.0948 189.064 48.37C188.555 48.6305 187.987 48.7567 187.415 48.7365C186.315 48.7365 185.491 48.3605 184.991 47.6275C184.49 46.8944 184.208 45.7885 184.208 44.2779C184.208 41.2597 185.266 39.7427 187.415 39.7427C187.987 39.7195 188.556 39.8459 189.064 40.1092C189.535 40.3721 189.913 40.7741 190.144 41.2597H190.167C190.167 41.1992 190.167 41.1163 190.167 41.0016C190.167 40.8868 190.167 40.7689 190.167 40.6351C190.167 40.5012 190.167 40.3865 190.167 40.2717V36.6831H191.626V46.8084C191.626 47.0123 191.626 47.2099 191.626 47.3916C191.626 47.5733 191.626 47.7709 191.626 47.9175C191.626 48.0641 191.626 48.2362 191.626 48.3509C191.622 48.4295 191.622 48.5082 191.626 48.5868H190.25C190.233 48.5131 190.22 48.4387 190.212 48.3637C190.212 48.2489 190.192 48.1406 190.183 48.029C190.173 47.9175 190.164 47.7549 190.157 47.6051V47.1781H190.144ZM185.728 44.2364C185.726 44.7506 185.764 45.2641 185.84 45.7726C185.9 46.1394 186.026 46.4925 186.212 46.8148C186.358 47.0854 186.582 47.3071 186.854 47.4522C187.156 47.5855 187.486 47.6467 187.816 47.6306C188.161 47.6406 188.504 47.5821 188.826 47.4585C189.124 47.3301 189.377 47.1173 189.554 46.8466C189.77 46.5213 189.922 46.1578 190 45.7758C190.115 45.2417 190.169 44.6964 190.16 44.1504C190.168 43.6275 190.115 43.1055 190 42.5951C189.923 42.2224 189.769 41.8696 189.548 41.5593C189.366 41.3052 189.116 41.1073 188.826 40.9888C188.508 40.8719 188.171 40.8146 187.832 40.8199C187.514 40.8096 187.198 40.8729 186.908 41.0048C186.639 41.1312 186.415 41.3371 186.267 41.5944C186.064 41.9179 185.93 42.2789 185.872 42.6556C185.785 43.1823 185.743 43.7154 185.747 44.2492" fill="#626367"/>
  </g>
  <defs>
    <clipPath id="clip0_32_3699">
      <rect width="200" height="52" fill="white" transform="translate(0.439453)"/>
    </clipPath>
  </defs>
</svg>