<svg xmlns="http://www.w3.org/2000/svg" width="167" height="48" viewBox="0 0 167 48" fill="none">
  <g clip-path="url(#clip0_32_3692)">
    <path fill-rule="evenodd" clip-rule="evenodd" d="M131.049 26.6398H166.442V0.50293H131.049V26.6398Z" fill="black"/>
    <path fill-rule="evenodd" clip-rule="evenodd" d="M0.439453 26.6398H131.049V0.50293H0.439453V26.6398Z" fill="#90B36C"/>
    <path fill-rule="evenodd" clip-rule="evenodd" d="M11.9932 44.3316V44.0681C12.4578 44.0681 12.7906 43.9356 12.9894 43.7372C13.1227 43.5389 13.2552 43.1428 13.2552 42.4825V36.9388C13.2552 36.3436 13.1227 35.9483 12.9894 35.8165C12.8569 35.6182 12.5248 35.553 11.9932 35.4864V35.2221H14.6491L17.903 42.219L21.0898 35.2221H23.7458V35.4864C23.2149 35.5515 22.8828 35.6182 22.7503 35.7499C22.5515 35.9483 22.4852 36.2777 22.4852 36.8721V42.7468C22.4852 43.2746 22.5515 43.6047 22.7503 43.8031C22.8835 43.9356 23.2149 44.0667 23.7458 44.0667V44.3309H19.8292V44.0667C20.2939 44.0667 20.6922 43.9349 20.8255 43.8031C20.958 43.6047 21.0913 43.2753 21.0913 42.7468V36.8099L17.6386 44.3353H17.3714L13.8524 36.8099V42.552C13.8524 43.2123 13.9842 43.6084 14.1175 43.8067C14.317 43.9392 14.6484 44.0703 15.18 44.0703V44.3345H11.9932V44.3316ZM28.1947 43.0769V40.7015C27.3937 41.0323 26.8001 41.2951 26.4018 41.6246C26.0034 41.8881 25.8716 42.2849 25.8716 42.6809C25.8716 43.0118 25.9371 43.2753 26.1367 43.4773C26.3362 43.7409 26.6013 43.8075 26.9378 43.8075C27.2028 43.8075 27.4024 43.7416 27.666 43.6098C27.9031 43.5042 28.0918 43.3141 28.1947 43.0769ZM28.261 43.6062C27.9551 43.8949 27.5937 44.1193 27.1985 44.2658C26.8823 44.3949 26.544 44.4623 26.2022 44.4641C25.7369 44.4641 25.4055 44.3316 25.139 44.0681C24.8076 43.8038 24.6743 43.4737 24.6743 43.0118C24.6743 42.4174 24.9401 41.9547 25.4026 41.6246C25.9335 41.2285 26.8591 40.8332 28.1918 40.3698V39.6458C28.1918 39.1839 28.1255 38.7872 27.9923 38.6554C27.7935 38.457 27.5276 38.3245 27.1293 38.3245C26.8724 38.3196 26.6195 38.3885 26.401 38.5229C26.2022 38.7205 26.0689 38.853 26.0689 39.0507C26.1147 39.1062 26.138 39.1767 26.1345 39.2484V39.5126C26.1345 39.6451 26.0689 39.7762 26.0019 39.9087C25.8624 39.9953 25.7011 40.0412 25.5366 40.0412C25.3721 40.0412 25.2108 39.9953 25.0712 39.9087C24.9889 39.7444 24.9437 39.5643 24.9387 39.3808C24.9387 39.0507 25.1375 38.7206 25.6029 38.457C26.0005 38.1261 26.5321 37.9951 27.1963 37.9951C27.9246 37.9951 28.4576 38.1935 28.8567 38.5229C29.1888 38.853 29.3876 39.315 29.3876 40.0433V43.0791C29.3876 43.3434 29.3876 43.4751 29.4546 43.6069C29.4863 43.6472 29.5265 43.68 29.5725 43.7029C29.6185 43.7258 29.669 43.7383 29.7204 43.7394C29.8522 43.7394 29.9185 43.6735 29.9855 43.6735C30.1188 43.6076 30.1851 43.541 30.3183 43.4751L30.4516 43.6735C30.2521 43.9378 30.0525 44.1354 29.7874 44.2679C29.5885 44.3932 29.3587 44.4619 29.1233 44.4663C28.8582 44.4663 28.7249 44.4004 28.5924 44.2679C28.4174 44.0867 28.3019 43.857 28.261 43.6091V43.6062ZM30.1195 44.3302H33.2416V44.0667H33.1753C32.8432 44.0667 32.6437 44.0008 32.5111 43.8683C32.3786 43.7358 32.3123 43.4722 32.3123 43.0719V41.2314C32.321 41.2316 32.3296 41.2301 32.3376 41.2269C32.3457 41.2237 32.353 41.2189 32.3591 41.2128C32.3652 41.2067 32.37 41.1994 32.3733 41.1914C32.3765 41.1834 32.378 41.1749 32.3778 41.1663C32.4441 41.1663 32.4441 41.1663 32.5111 41.2314L32.5774 41.2966L34.2371 43.41C34.2895 43.4343 34.3351 43.4711 34.3699 43.517C34.4047 43.563 34.4276 43.6167 34.4366 43.6735C34.4616 43.6998 34.4804 43.7311 34.4917 43.7654C34.503 43.7997 34.5066 43.8361 34.5022 43.8719C34.5022 43.9378 34.5022 44.0044 34.3689 44.0695H33.9043V44.3338H36.8901V44.0695H36.8239C36.6091 44.0649 36.4008 43.996 36.226 43.8719C35.9733 43.7113 35.7489 43.5105 35.5618 43.2775L33.3705 40.5045L34.4337 39.5148C34.8984 39.0529 35.2967 38.7908 35.5618 38.6561C35.8276 38.4585 36.1597 38.3926 36.4918 38.3926H36.5573V38.1283H33.7062V38.3926C33.892 38.388 34.0755 38.4338 34.2371 38.5251C34.3041 38.5251 34.3704 38.5909 34.3704 38.7227C34.3733 38.8152 34.3503 38.9067 34.3041 38.987L34.039 39.2505L32.6437 40.6377C32.5774 40.7036 32.5111 40.7036 32.5111 40.7702H32.316V34.8283L31.3153 35.2221C30.9832 35.3546 30.5871 35.4205 30.2528 35.4857V35.7499H30.5186C30.7837 35.7499 30.9832 35.8158 31.0495 35.8824C31.144 36.1119 31.1892 36.3585 31.1821 36.6064V43.2073C31.1821 43.5374 31.1165 43.8017 30.9832 43.9313C30.85 44.0609 30.5842 44.0638 30.1865 44.0638H30.1195V44.3295V44.3302ZM42.7366 42.0191L42.9361 42.1516C42.6606 42.8353 42.2285 43.4456 41.6741 43.9342C41.2092 44.3221 40.6206 44.5328 40.0136 44.5286C39.6493 44.5331 39.2884 44.4586 38.956 44.3104C38.6235 44.1621 38.3276 43.9435 38.0889 43.6699C37.5572 43.0755 37.3606 42.35 37.3606 41.4255C37.3606 40.3691 37.6264 39.5778 38.158 38.9175C38.6889 38.3231 39.3524 37.9936 40.2161 37.9936C40.9444 37.9936 41.4782 38.192 41.9428 38.6539C42.3412 39.05 42.607 39.6444 42.607 40.435H38.3539V40.5682C38.3539 41.4913 38.5528 42.1524 38.9511 42.6802C39.3495 43.208 39.9466 43.4766 40.6108 43.4766C41.0216 43.4761 41.4198 43.3361 41.7396 43.0798C42.1387 42.8822 42.4045 42.4869 42.7366 42.0235V42.0191ZM38.4202 40.0397H41.2735V39.842C41.2735 39.3794 41.2073 39.0492 40.9407 38.785C40.8105 38.655 40.655 38.5528 40.4837 38.4847C40.3124 38.4166 40.1289 38.384 39.9445 38.3889C39.5468 38.3889 39.1485 38.5214 38.8819 38.8509C38.7291 39.0087 38.6096 39.1953 38.5303 39.3997C38.451 39.6041 38.4136 39.8222 38.4202 40.0412V40.0397ZM48.779 43.2739C48.9663 43.5069 49.1909 43.7077 49.4439 43.8683C49.7137 43.9966 50.0085 44.0643 50.3076 44.0667C50.9055 44.0667 51.3031 43.8683 51.6352 43.4064C51.968 42.8786 52.1661 42.2841 52.1661 41.4262C52.1661 40.7022 51.9666 40.0397 51.6352 39.5778C51.3038 39.1159 50.8392 38.8538 50.3076 38.8538C50.0531 38.8653 49.8044 38.9328 49.5793 39.0514C49.2836 39.2065 49.0145 39.4071 48.7819 39.6458V43.2753L48.779 43.2739ZM46.7202 47.4985V47.2349C47.0523 47.2349 47.3181 47.1691 47.4484 47.0366C47.5788 46.9041 47.648 46.6412 47.648 46.2452V39.842C47.648 39.5112 47.5817 39.2476 47.5147 39.1817C47.3814 39.0492 47.1826 38.9834 46.8505 38.9834H46.7173V38.785C47.1163 38.6532 47.5183 38.5214 47.8461 38.3889C48.1738 38.2565 48.5102 38.1254 48.7761 37.9929V39.0492C49.1744 38.7184 49.5728 38.4548 49.8386 38.2528C50.1548 38.1239 50.4931 38.0567 50.8348 38.0552C51.5631 38.0552 52.1608 38.3192 52.6278 38.8472C53.0924 39.3758 53.3561 40.102 53.3561 41.0258C53.3657 41.9356 53.0611 42.8211 52.4931 43.5345C51.9622 44.1941 51.231 44.525 50.368 44.525C50.0755 44.5186 49.7851 44.4741 49.5043 44.3925C49.2392 44.3266 49.0397 44.1941 48.7761 44.0616V46.2401C48.7761 46.6369 48.8423 46.8997 48.9756 47.0322C49.1751 47.1647 49.4402 47.2299 49.8386 47.2299V47.4941H46.7202V47.4985ZM53.4274 44.3302V44.0667C53.8251 44.0667 54.0909 44.0008 54.2904 43.8024C54.4239 43.6701 54.4905 43.4061 54.49 43.0103V39.7762C54.49 39.4453 54.423 39.1817 54.2904 39.0521C54.2242 38.9197 54.0253 38.9196 53.6933 38.9196H53.4944V38.6561C53.9591 38.5236 54.3574 38.3918 54.7558 38.2601C55.0879 38.1942 55.353 38.0617 55.6188 37.9958V39.1846C55.8719 38.8662 56.1615 38.5783 56.4818 38.3267C56.7468 38.1283 57.0127 37.9958 57.2792 37.9958C57.4754 37.9905 57.666 38.0617 57.8101 38.1942C57.9301 38.3194 58.0007 38.4834 58.0089 38.6561C58.0089 38.8545 58.0089 38.9863 57.8756 39.118C57.8101 39.2505 57.6768 39.3164 57.4773 39.3164C57.3033 39.3087 57.1381 39.2382 57.0127 39.118C56.8131 38.9855 56.6798 38.9196 56.6143 38.9196C56.4813 38.9196 56.3487 38.9858 56.2167 39.118C56.0171 39.2505 55.8839 39.4489 55.6188 39.7783V43.1443C55.612 43.4104 55.707 43.6691 55.8846 43.8683C56.0179 44.0008 56.3492 44.0667 56.8146 44.0667V44.3302H53.4274ZM58.5398 44.3302V44.0667C58.9382 44.0667 59.2047 44.0008 59.3373 43.8683C59.4691 43.8024 59.4691 43.4722 59.4691 43.0719V39.64C59.4691 39.244 59.4691 39.0456 59.4035 38.916C59.2205 38.8182 59.0139 38.7723 58.8064 38.7835H58.6061V38.5859C58.8726 38.52 59.1377 38.4534 59.4698 38.3875L60.6641 37.9915V43.1399C60.6641 43.5367 60.7304 43.8002 60.8637 43.9327C60.997 43.9986 61.1958 44.0652 61.5919 44.0652V44.3288L58.5398 44.3302ZM59.4072 35.6182C59.4014 35.4233 59.4728 35.2341 59.606 35.0911C59.8055 34.9586 59.9388 34.8927 60.1369 34.8927C60.4027 34.8927 60.5352 34.9586 60.6678 35.0911C60.8011 35.2887 60.9329 35.4212 60.9329 35.6182C60.9329 35.8151 60.8003 36.0149 60.6678 36.146C60.5352 36.277 60.4027 36.3443 60.1369 36.3443C59.9493 36.328 59.7734 36.2465 59.6402 36.1141C59.507 35.9817 59.425 35.8069 59.4086 35.6203L59.4072 35.6182ZM65.3155 44.53L63.0579 39.2491C62.8584 38.9182 62.7251 38.7213 62.6588 38.5888C62.5256 38.4563 62.3938 38.3904 62.2605 38.3904H62.1942V38.1269H65.049V38.3904C64.8203 38.3806 64.5927 38.4261 64.3855 38.5229C64.2523 38.5888 64.1867 38.7213 64.1867 38.9189C64.1823 38.9548 64.1859 38.9911 64.1972 39.0254C64.2086 39.0597 64.2274 39.0911 64.2523 39.1173C64.2493 39.2096 64.2723 39.3008 64.3185 39.3808L65.7124 42.7475L67.0408 39.5133V39.4482C67.174 39.1173 67.2403 38.9204 67.2403 38.7879C67.2403 38.6554 67.174 38.5895 67.0408 38.5236C66.9745 38.4585 66.7757 38.3911 66.5099 38.3911V38.1276H68.5017V38.3911C68.3028 38.3911 68.1696 38.457 68.1033 38.5895C67.9715 38.6554 67.8382 38.8538 67.7057 39.2498L65.5143 44.5307H65.3148L65.3155 44.53ZM72.4874 43.0769V40.7015C71.6907 41.0323 71.0265 41.2951 70.6952 41.6246C70.5149 41.7372 70.3659 41.8928 70.2616 42.0773C70.1573 42.2618 70.1011 42.4693 70.098 42.6809C70.0963 42.829 70.1248 42.9759 70.1818 43.1128C70.2387 43.2497 70.3229 43.3737 70.4294 43.4773C70.6289 43.7409 70.894 43.8075 71.2304 43.8075C71.4849 43.7957 71.7336 43.7282 71.9587 43.6098C72.1575 43.4773 72.3563 43.3455 72.4896 43.0806L72.4874 43.0769ZM72.5537 43.6062C72.2376 43.8816 71.8788 44.1043 71.4912 44.2658C71.175 44.395 70.8367 44.4624 70.4949 44.4641C70.0303 44.4641 69.6312 44.3316 69.3661 44.0681C69.101 43.8046 68.9678 43.4737 68.9678 43.0118C68.9678 42.4174 69.2328 41.9554 69.696 41.6246C70.2269 41.2285 71.1525 40.8332 72.4852 40.3698V39.6458C72.4852 39.1839 72.419 38.7879 72.2857 38.6554C72.0869 38.457 71.8211 38.3245 71.4227 38.3245C71.0899 38.3245 70.8918 38.3904 70.6945 38.5229C70.4956 38.7205 70.3624 38.853 70.3624 39.0507C70.3706 39.1204 70.3932 39.1877 70.4286 39.2484V39.5126C70.4286 39.6451 70.3624 39.7762 70.2298 39.9087C70.1135 39.9918 69.9747 40.038 69.8315 40.0412C69.6677 40.0372 69.5078 39.9916 69.3668 39.9087C69.2336 39.7653 69.162 39.5759 69.1673 39.3808C69.1673 39.0507 69.4331 38.7206 69.8315 38.457C70.2968 38.1261 70.8277 37.9951 71.4919 37.9951C72.2201 37.9951 72.754 38.1935 73.0853 38.5229C73.4837 38.853 73.6162 39.315 73.6162 40.0433V43.0791C73.6114 43.2638 73.6575 43.4463 73.7495 43.6069C73.781 43.6472 73.8212 43.6799 73.867 43.7028C73.9129 43.7258 73.9633 43.7383 74.0146 43.7394C74.1479 43.7394 74.2141 43.6735 74.2811 43.6735C74.3474 43.6076 74.4792 43.541 74.5462 43.4751L74.745 43.6735C74.5462 43.9378 74.3474 44.1354 74.0816 44.2679C73.8158 44.4004 73.6162 44.4663 73.3533 44.4663C73.1571 44.4718 72.9665 44.4006 72.8224 44.2679C72.6891 44.1354 72.6229 43.9385 72.5566 43.6091L72.5537 43.6062ZM80.5216 42.219L80.7211 42.3515C80.389 43.0755 79.9929 43.6062 79.5253 44.0022C79.0607 44.3324 78.5968 44.53 77.996 44.53C77.2677 44.53 76.6676 44.1992 76.1367 43.6062C75.6721 43.0118 75.4085 42.2856 75.4085 41.3617C75.4085 40.3706 75.675 39.58 76.2715 38.9189C76.8679 38.2579 77.5998 37.9285 78.4628 37.9285C79.06 37.9285 79.5246 38.061 79.9229 38.3245C80.3213 38.5881 80.5201 38.9189 80.5201 39.315C80.5227 39.4019 80.5062 39.4883 80.4717 39.5682C80.4372 39.6481 80.3857 39.7195 80.3206 39.7776C80.188 39.9087 80.0555 39.9094 79.8559 39.9094C79.6564 39.9094 79.5239 39.9094 79.3913 39.7776C79.3251 39.7117 79.1925 39.5133 79.1925 39.1832C79.138 38.9587 79.0229 38.7532 78.8597 38.5888C78.7264 38.4563 78.5283 38.3904 78.2625 38.3904C77.7316 38.3904 77.3333 38.5888 77.0012 39.0507C76.6691 39.5126 76.5365 40.107 76.5365 40.8325C76.5365 41.6246 76.7354 42.2805 77.0667 42.7468C77.4658 43.2739 77.9967 43.4708 78.5961 43.4708C78.9937 43.4708 79.3243 43.4049 79.6586 43.2073C80.0106 42.9388 80.3044 42.6024 80.5223 42.2183L80.5216 42.219ZM84.3719 44.3983L82.1143 39.1173C81.9817 38.7872 81.9155 38.5895 81.7822 38.5229C81.691 38.4401 81.5728 38.393 81.4494 38.3904H81.3176V38.1269H84.1053V38.3904H83.9735C83.7754 38.3904 83.5759 38.4563 83.5089 38.5229C83.4419 38.5895 83.4426 38.6554 83.4426 38.7864V39.1173C83.4426 39.2498 83.5089 39.3808 83.5759 39.5133L84.9028 42.8141L86.0316 39.4482C86.0978 39.3157 86.1649 39.1839 86.1649 39.0514C86.1649 38.9189 86.2311 38.8538 86.2311 38.7879C86.2311 38.6554 86.1648 38.5895 86.0316 38.5236C85.9208 38.4303 85.7782 38.3828 85.6332 38.3911H85.5V38.1276H87.4917V38.3911C87.2922 38.3911 87.1594 38.4572 87.0934 38.5895C86.9601 38.6554 86.8276 38.9204 86.695 39.3859L84.8351 44.4685C84.3704 45.5907 83.9723 46.3828 83.6407 46.8447C83.3746 47.2405 82.976 47.4386 82.4449 47.4391C82.1798 47.4391 81.9805 47.373 81.847 47.2407C81.6482 47.1082 81.5819 46.9772 81.5819 46.7788C81.5795 46.6921 81.5961 46.606 81.6306 46.5264C81.665 46.4467 81.7165 46.3755 81.7815 46.3176C81.9147 46.1866 82.0465 46.1851 82.1798 46.1851C82.3594 46.1744 82.5393 46.1967 82.7107 46.251C82.8425 46.3169 82.9758 46.3835 83.0421 46.3835C83.3749 46.3835 83.7703 45.8557 84.2371 44.7327C84.3049 44.6003 84.3049 44.4678 84.3712 44.4019L84.3719 44.3983ZM94.7306 44.3983L92.473 39.1173C92.3419 38.7872 92.2757 38.5895 92.1424 38.5229C92.0513 38.4401 91.933 38.393 91.8096 38.3904H91.6778V38.1269H94.5311V38.3904H94.3978C94.212 38.3856 94.0284 38.4314 93.8669 38.5229C93.8264 38.5542 93.7935 38.5942 93.7704 38.6397C93.7474 38.6853 93.7348 38.7354 93.7336 38.7864C93.7336 38.9182 93.7999 38.9848 93.7999 39.1173C93.8662 39.2498 93.8662 39.3808 93.9332 39.5133L95.3285 42.8141L96.4566 39.4482C96.5229 39.3157 96.5229 39.1839 96.5899 39.0514V38.7879C96.5899 38.6554 96.5899 38.5895 96.4566 38.5236C96.3155 38.441 96.1556 38.3954 95.992 38.3911H95.9264V38.1276H97.9182V38.3911H97.8519C97.7187 38.3911 97.5869 38.457 97.4536 38.5895C97.3873 38.6554 97.254 38.9204 97.1208 39.3859L95.1953 44.4685C94.7962 45.5907 94.3978 46.3835 94.0665 46.8447C93.9132 47.0302 93.7206 47.1797 93.5024 47.2825C93.2842 47.3852 93.0458 47.4387 92.8044 47.4391C92.5681 47.4444 92.3363 47.375 92.1424 47.2407C92.0774 47.1828 92.0258 47.1114 91.9914 47.0317C91.9569 46.9519 91.9404 46.8656 91.9429 46.7788C91.9467 46.6163 91.9926 46.4574 92.0761 46.3176C92.2094 46.1851 92.3419 46.1851 92.5393 46.1851C92.6718 46.1851 92.8714 46.1851 93.0039 46.251C93.2049 46.3169 93.3382 46.3835 93.4045 46.3835C93.7351 46.3835 94.1327 45.8557 94.6644 44.7327C94.6644 44.6003 94.7314 44.4678 94.7314 44.4019L94.7306 44.3983ZM99.7119 40.8339C99.7119 41.7571 99.8452 42.615 100.243 43.2094C100.64 43.8038 101.106 44.1333 101.704 44.1333C102.302 44.1333 102.765 43.9356 103.032 43.5396C103.299 43.1435 103.429 42.5484 103.429 41.6904C103.429 40.7007 103.232 39.842 102.899 39.2476C102.498 38.6532 102.036 38.3238 101.438 38.3238C100.84 38.3238 100.441 38.5222 100.11 38.9841C99.8408 39.3808 99.7083 40.0411 99.7083 40.8339H99.7119ZM101.505 44.5264C100.576 44.5264 99.8445 44.1955 99.3136 43.6026C98.7157 43.0082 98.4498 42.2154 98.4498 41.2915C98.4498 40.3003 98.7157 39.5097 99.3136 38.8487C99.9115 38.2543 100.708 37.9907 101.638 37.9907C102.568 37.9907 103.299 38.2543 103.896 38.8487C104.427 39.4431 104.697 40.1686 104.697 41.1597C104.697 42.1509 104.431 43.0082 103.833 43.6026C103.235 44.197 102.496 44.53 101.501 44.53L101.505 44.5264ZM111.264 42.8757C111.264 43.2058 111.264 43.4035 111.33 43.4701C111.462 43.6026 111.595 43.6026 111.859 43.6026H112.192V43.8661C111.926 43.8661 111.596 43.9986 111.264 44.1296C110.931 44.1955 110.536 44.3939 110.068 44.5264V43.4759C109.752 43.7868 109.395 44.0533 109.006 44.2679C108.69 44.3975 108.352 44.4649 108.01 44.4663C107.412 44.4663 106.947 44.3338 106.748 44.0044C106.482 43.6084 106.349 43.0139 106.349 42.0242V39.711C106.349 39.1834 106.283 38.8533 106.15 38.7205C106.016 38.588 105.817 38.5222 105.421 38.5222V38.263L107.481 38.1305V42.0908C107.481 42.6852 107.614 43.082 107.746 43.3455C107.946 43.6098 108.211 43.7416 108.61 43.7416C108.887 43.739 109.16 43.6712 109.407 43.5439C109.643 43.388 109.866 43.2114 110.071 43.0161V39.517C110.071 39.1209 110.004 38.7929 109.871 38.7249C109.739 38.5924 109.473 38.5265 109.143 38.5265V38.263L111.268 38.1305V42.8829L111.264 42.8757ZM111.859 44.328H115.18V44.0645C114.715 44.0645 114.452 43.9986 114.317 43.8661C114.118 43.7336 114.051 43.4701 114.051 43.1421V39.7762C114.199 39.5341 114.377 39.3121 114.582 39.1159C114.782 38.9834 114.915 38.9175 115.047 38.9175C115.113 38.9175 115.246 38.9834 115.38 39.1159C115.535 39.2288 115.719 39.2974 115.911 39.3142C116.042 39.3142 116.176 39.2484 116.309 39.1159C116.392 38.9757 116.438 38.8167 116.442 38.6539C116.435 38.4809 116.364 38.3165 116.243 38.192C116.099 38.0599 115.908 37.9888 115.712 37.9936C115.447 37.9936 115.182 38.1261 114.911 38.3245C114.641 38.5229 114.381 38.7864 114.048 39.1825V37.9951C113.783 38.061 113.518 38.1935 113.121 38.2593C112.709 38.4199 112.286 38.5522 111.856 38.6554V38.9189H112.122C112.387 38.9189 112.655 38.9189 112.722 39.0514C112.855 39.1839 112.921 39.4482 112.921 39.7754V43.0096C112.921 43.4056 112.855 43.6692 112.656 43.8017C112.521 44 112.255 44.0659 111.855 44.0659V44.3295L111.859 44.328ZM125.738 42.2154L125.937 42.3479C125.538 43.0719 125.14 43.6026 124.674 43.9986C124.263 44.3366 123.747 44.5231 123.214 44.5264C122.418 44.5264 121.818 44.1955 121.289 43.6026C120.825 43.0082 120.561 42.282 120.561 41.3581C120.551 40.4683 120.857 39.6035 121.424 38.9153C122.02 38.255 122.753 37.9249 123.682 37.9249C124.28 37.9249 124.745 38.0569 125.077 38.3209C125.476 38.5854 125.675 38.9155 125.675 39.3113C125.678 39.3982 125.661 39.4846 125.627 39.5646C125.592 39.6445 125.541 39.7159 125.476 39.774C125.343 39.905 125.21 39.9058 125.011 39.9058C124.811 39.9058 124.679 39.9058 124.546 39.774C124.48 39.7081 124.413 39.5097 124.347 39.1796C124.281 38.9153 124.214 38.7169 124.015 38.5852C123.882 38.4529 123.682 38.3868 123.417 38.3868C123.168 38.3859 122.923 38.4457 122.703 38.5608C122.483 38.6759 122.295 38.8429 122.155 39.0471C121.823 39.509 121.69 40.1034 121.69 40.8289C121.69 41.6209 121.89 42.2769 122.288 42.7432C122.622 43.2702 123.152 43.4672 123.75 43.4672C124.148 43.4672 124.478 43.4013 124.812 43.2036C125.146 43.006 125.404 42.6795 125.736 42.219L125.738 42.2154ZM126.136 44.328V44.1296C126.534 44.0645 126.8 43.9979 126.937 43.8661C127.07 43.8002 127.136 43.4701 127.136 43.0697V36.5355C127.136 36.138 127.07 35.9411 127.003 35.8752C126.937 35.7427 126.738 35.6768 126.472 35.6768H126.207V35.4791C126.472 35.4133 126.738 35.3467 127.07 35.2808C127.402 35.1483 127.798 35.0172 128.265 34.8188V38.987C128.665 38.6568 128.994 38.3926 129.394 38.263C129.675 38.0929 129.996 38.0016 130.324 37.9987C130.988 37.9987 131.387 38.1971 131.652 38.5265C131.851 38.8574 131.985 39.517 131.985 40.4401V43.2789C131.985 43.6098 132.05 43.8067 132.184 43.9392C132.39 44.0353 132.617 44.0807 132.845 44.0717V44.3353H129.86V44.0717C130.259 44.0717 130.524 44.0058 130.661 43.9392C130.794 43.8067 130.86 43.5432 130.86 43.2152V40.435C130.86 39.842 130.794 39.4453 130.594 39.1817C130.395 38.9182 130.13 38.7857 129.731 38.7857C129.475 38.7806 129.222 38.8492 129.003 38.9834C128.738 39.0492 128.472 39.2476 128.275 39.5112V43.1414C128.275 43.5374 128.34 43.7358 128.474 43.8654C128.607 43.995 128.873 44.063 129.202 44.1289V44.3273H126.143L126.136 44.328ZM134.569 40.8303C134.569 41.7534 134.768 42.6114 135.099 43.2058C135.499 43.8002 135.963 44.1296 136.561 44.1296C137.159 44.1296 137.624 43.932 137.889 43.5352C138.154 43.1385 138.288 42.5448 138.288 41.6868C138.288 40.6971 138.155 39.8384 137.757 39.244C137.359 38.6496 136.893 38.3202 136.295 38.3202C135.697 38.3202 135.299 38.5186 135.033 38.9805C134.7 39.3808 134.567 40.0411 134.567 40.8339L134.569 40.8303ZM136.362 44.5228C135.432 44.5228 134.701 44.1919 134.17 43.5989C133.574 43.0045 133.307 42.2117 133.307 41.2879C133.307 40.2967 133.574 39.5061 134.17 38.8451C134.768 38.2507 135.566 37.9871 136.495 37.9871C137.424 37.9871 138.155 38.2507 138.752 38.8451C139.283 39.4395 139.553 40.165 139.553 41.1561C139.553 42.1473 139.288 43.0045 138.69 43.5989C138.092 44.1934 137.361 44.5228 136.364 44.5228H136.362ZM140.148 44.3244V44.0609C140.548 44.0609 140.813 43.995 140.946 43.8625C141.079 43.7966 141.079 43.4664 141.079 43.0661V39.6342C141.079 39.2382 141.079 39.0398 141.013 38.9102C140.83 38.8122 140.623 38.7663 140.415 38.7777H140.215V38.5801C140.481 38.5142 140.746 38.4476 141.079 38.3817L142.275 37.9857V43.1341C142.275 43.5309 142.341 43.7944 142.472 43.9269C142.606 43.9928 142.804 44.0594 143.201 44.0594V44.323L140.148 44.3244ZM141.012 35.6109C141.006 35.4161 141.078 35.2268 141.211 35.0838C141.411 34.9513 141.544 34.8855 141.742 34.8855C142.008 34.8855 142.141 34.9513 142.273 35.0838C142.404 35.2815 142.536 35.414 142.536 35.6109C142.536 35.8078 142.403 36.0077 142.273 36.1387C142.142 36.2698 142.008 36.3371 141.742 36.3371C141.554 36.3208 141.378 36.2393 141.245 36.1069C141.112 35.9745 141.03 35.7996 141.014 35.6131L141.012 35.6109ZM149.113 42.2117L149.311 42.3442C148.913 43.0682 148.515 43.5989 148.049 43.995C147.638 44.333 147.122 44.5195 146.588 44.5228C145.791 44.5228 145.193 44.1919 144.662 43.5989C144.198 43.0045 143.934 42.2783 143.934 41.3545C143.924 40.4647 144.23 39.5999 144.797 38.9117C145.395 38.2514 146.125 37.9212 147.055 37.9212C147.653 37.9212 148.118 38.0532 148.45 38.3173C148.848 38.5818 149.047 38.9119 149.048 39.3077C149.05 39.3946 149.034 39.481 148.999 39.5609C148.965 39.6408 148.913 39.7123 148.848 39.7704C148.783 39.9021 148.583 39.9021 148.384 39.9021C148.184 39.9021 148.052 39.9021 147.919 39.7704C147.853 39.7045 147.786 39.5061 147.72 39.176C147.654 38.9117 147.587 38.7133 147.454 38.5815C147.26 38.4468 147.027 38.3773 146.79 38.3832C146.326 38.3832 145.927 38.5815 145.594 39.0435C145.262 39.5054 145.063 40.0998 145.063 40.8253C145.063 41.6173 145.263 42.2733 145.661 42.7395C146.06 43.2666 146.525 43.4636 147.123 43.4636C147.521 43.4636 147.92 43.3977 148.186 43.2C148.515 43.0038 148.781 42.6729 149.113 42.211L149.113 42.2117ZM155.553 42.0134L155.752 42.1459C155.477 42.8294 155.045 43.4398 154.491 43.9284C154.026 44.3162 153.437 44.5269 152.83 44.5228C152.466 44.5272 152.105 44.4527 151.773 44.3044C151.441 44.1561 151.145 43.9376 150.906 43.6641C150.375 43.0697 150.178 42.3442 150.178 41.4197C150.178 40.3633 150.443 39.572 150.976 38.9117C151.506 38.3173 152.169 37.9878 153.032 37.9878C153.76 37.9878 154.294 38.1862 154.759 38.6481C155.158 39.0442 155.423 39.6386 155.423 40.4292H151.168V40.5624C151.168 41.4856 151.367 42.1466 151.766 42.6744C152.164 43.2022 152.693 43.4708 153.425 43.4708C153.835 43.4702 154.234 43.3302 154.553 43.074C154.951 42.8764 155.216 42.4811 155.549 42.0177L155.553 42.0134ZM151.168 40.0412H154.088V39.8435C154.088 39.3808 154.022 39.0507 153.756 38.7864C153.626 38.6564 153.47 38.5542 153.299 38.4861C153.127 38.418 152.944 38.3855 152.759 38.3904C152.361 38.3904 151.964 38.5229 151.699 38.8523C151.434 39.1173 151.235 39.5126 151.168 40.0412ZM156.678 43.7336C156.678 43.4701 156.744 43.2717 156.877 43.1392C156.954 43.0578 157.047 42.9926 157.149 42.9473C157.252 42.9021 157.363 42.8777 157.475 42.8757C157.675 42.8757 157.874 43.0081 158.006 43.1392C158.206 43.2717 158.272 43.4701 158.272 43.7336C158.277 43.8369 158.256 43.9398 158.209 44.0323C158.162 44.1248 158.092 44.2038 158.006 44.2614C157.873 44.3939 157.674 44.525 157.475 44.525C157.363 44.5227 157.252 44.4983 157.15 44.453C157.047 44.4078 156.954 44.3426 156.877 44.2614C156.745 44.1189 156.674 43.9309 156.679 43.7372L156.678 43.7336ZM156.811 37.0669H159.401L159.468 37.7265H159.334C159.334 37.5288 159.268 37.3963 159.135 37.3304C158.994 37.2476 158.834 37.202 158.67 37.198H158.404V39.4424C158.404 39.5749 158.471 39.6408 158.471 39.7066C158.537 39.7066 158.604 39.7725 158.804 39.7725V39.8377H157.409V39.7725C157.608 39.7725 157.675 39.7066 157.742 39.7066C157.807 39.6408 157.807 39.5742 157.807 39.4424V37.198H157.542C157.378 37.2014 157.218 37.2471 157.078 37.3304C157.019 37.3797 156.971 37.4402 156.937 37.5082C156.903 37.5763 156.883 37.6505 156.878 37.7265H156.745L156.811 37.0669ZM159.932 37.3304C159.932 37.2646 159.932 37.198 159.866 37.198C159.8 37.1321 159.733 37.1321 159.533 37.1321V37.0669H160.596L161.397 39.0471L162.258 37.0669H163.321V37.1321C163.121 37.1321 163.056 37.1321 162.988 37.198C162.92 37.2638 162.923 37.3304 162.923 37.4622V39.4424C162.923 39.5749 162.923 39.6408 162.988 39.7059C163.054 39.7059 163.121 39.7718 163.321 39.7718V39.8377H161.99V39.7718C162.123 39.7718 162.189 39.7059 162.256 39.7059C162.322 39.6408 162.322 39.5742 162.322 39.4424V37.3956L161.46 39.3758C161.465 39.4117 161.461 39.4481 161.45 39.4824C161.438 39.5167 161.419 39.5481 161.394 39.5742C161.394 39.6393 161.328 39.7718 161.328 39.8377H161.129C161.085 39.7056 161.041 39.5736 160.996 39.4417L160.198 37.4666V39.4475C160.198 39.5799 160.198 39.6451 160.264 39.711C160.331 39.711 160.398 39.7769 160.597 39.7769V39.8428H159.601V39.7769C159.693 39.7729 159.784 39.7505 159.867 39.711C159.933 39.6451 159.933 39.5785 159.933 39.4475L159.932 37.3304Z" fill="black"/>
    <path fill-rule="evenodd" clip-rule="evenodd" d="M131.315 10.4009C133.238 10.4009 134.766 11.9857 134.766 13.9C134.766 15.7484 133.237 17.3326 131.315 17.3326H131.049V10.4016L131.315 10.4009Z" fill="white"/>
    <path fill-rule="evenodd" clip-rule="evenodd" d="M131.049 17.3324C129.256 17.2006 127.862 15.6817 127.862 13.8999C127.862 12.0515 129.256 10.5332 131.049 10.4007V17.3324ZM20.5592 9.60935V21.3601C20.5592 21.691 20.6255 21.8879 20.7588 22.0197C20.825 22.1522 21.0901 22.2173 21.4229 22.3498V22.8132H14.5831V22.3491C14.9159 22.2166 15.181 22.1507 15.2473 22.0182C15.3798 21.8872 15.4461 21.6229 15.4461 21.3594V9.60935H10.0002C9.73511 9.60935 9.47003 9.67524 9.33748 9.80701C9.20421 9.87289 9.0724 10.1379 9.00467 10.4673H8.54004V4.45801H9.00612C9.0724 4.85404 9.20421 5.05242 9.33821 5.18202C9.54548 5.27842 9.77302 5.32385 10.0017 5.31451H26.0037C26.2319 5.31629 26.458 5.27119 26.6679 5.18202C26.8011 5.04953 26.8674 4.85187 26.9329 4.45801H27.4638V10.4673H26.9329C26.8674 10.1372 26.8004 9.87289 26.6679 9.80701C26.5346 9.67524 26.2695 9.60935 26.0037 9.60935H20.5592ZM116.908 9.60935V21.3601C116.898 21.5874 116.944 21.8138 117.041 22.0197C117.174 22.1522 117.374 22.2173 117.769 22.3498V22.8132H110.863V22.3491C111.262 22.2166 111.527 22.1507 111.592 22.0182C111.725 21.8872 111.725 21.6229 111.725 21.3594V9.60935H106.346C106.013 9.60935 105.815 9.67524 105.682 9.80701C105.548 9.87289 105.416 10.1379 105.349 10.4673H104.884V4.45801H105.349C105.415 4.85404 105.548 5.05242 105.682 5.18202C105.889 5.27839 106.117 5.32383 106.346 5.31451H122.281C122.53 5.32255 122.779 5.27738 123.009 5.18202C123.142 4.95906 123.232 4.71358 123.275 4.45801H123.806V10.4673H123.276C123.209 10.1372 123.076 9.87289 122.943 9.80701C122.812 9.67524 122.612 9.60935 122.279 9.60935H116.908ZM97.9833 10.7975C97.9833 10.665 97.9833 10.5991 98.0496 10.5332V10.3348C98.0496 9.8729 97.3854 9.41098 96.0571 9.01494C94.7287 8.61891 93.2038 8.42052 91.5419 8.42052C90.2142 8.42052 89.084 8.61891 88.288 8.94833C87.492 9.27776 87.0922 9.7404 87.0922 10.2682C87.0922 11.0603 88.6215 11.5229 91.8077 11.7213H92.9343C95.8568 11.919 97.9819 12.3816 99.2439 13.1693C100.572 14.0273 101.236 15.2154 101.236 16.9342C101.236 18.653 100.373 20.0366 98.646 21.1588C96.9193 22.281 94.661 22.8096 91.8732 22.8096C88.6203 22.8096 85.6986 22.3476 83.1079 21.4238C82.7758 21.3579 82.6433 21.2913 82.5777 21.2913C82.4445 21.2913 82.3782 21.2913 82.3119 21.3572C82.1786 21.4223 82.0468 21.5548 81.8473 21.8191L81.3827 21.6215L83.9053 16.4086L84.303 16.6055C84.2981 16.6563 84.2745 16.7035 84.2367 16.738V16.8705C84.2367 17.5308 84.965 18.1245 86.5613 18.7189C88.0906 19.246 89.8822 19.511 91.8776 19.511C93.2722 19.511 94.3333 19.3785 95.1293 18.9831C95.9253 18.5878 96.3251 18.0593 96.3251 17.399C96.3251 16.2116 94.6646 15.5506 91.3467 15.4847C91.1512 15.4367 90.9501 15.4146 90.7488 15.4188C87.9596 15.3529 85.8345 14.891 84.5062 14.0982C83.1778 13.3054 82.4488 12.1181 82.4488 10.5339C82.4488 8.94978 83.2455 7.69506 84.839 6.64018C86.4331 5.64901 88.6259 5.18708 91.2804 5.18708C93.0323 5.18185 94.7759 5.42566 96.4583 5.9111C98.3183 6.37374 99.2476 6.63511 99.3808 6.63511C99.5804 6.63511 99.7792 6.56923 99.8455 6.50262C99.9787 6.43673 100.111 6.37012 100.178 6.17174L100.643 6.37012L98.3853 10.9901L97.9855 10.7931L97.9833 10.7975ZM71.6203 6.7705C71.6203 6.44035 71.5541 6.17609 71.4208 6.04649C71.2875 5.91689 71.0887 5.84811 70.6925 5.78223V5.3203H77.5986V5.78223C77.2665 5.84811 77.0007 5.98061 76.9344 6.1131C76.8019 6.24487 76.7356 6.44325 76.7356 6.77267V15.4862C76.7356 17.9941 75.9345 19.9092 74.3448 21.1639C72.755 22.4186 70.4267 23.0782 67.3061 23.0782C64.1856 23.0782 61.8609 22.4171 60.3345 21.1639C58.8052 19.8433 58.0106 17.8631 58.0106 15.2226V6.76833C58.0106 6.43818 57.9451 6.17392 57.8118 6.04432C57.7456 5.91182 57.479 5.84594 57.1477 5.78005V5.3203H63.9867V5.78223C63.6547 5.84811 63.3888 5.914 63.2585 6.04649C63.1634 6.27584 63.118 6.52254 63.1252 6.7705V14.3618C63.1252 15.9466 63.4566 17.0681 64.0545 17.6625C64.7186 18.3221 65.7812 18.6523 67.3746 18.6523C68.9039 18.6523 69.9643 18.3214 70.6277 17.7277C71.2919 17.0681 71.624 16.0118 71.624 14.4277V6.76833L71.6203 6.7705ZM32.2434 22.8117V22.3491C32.5755 22.2166 32.8398 22.1507 32.9068 22.0182C33.0401 21.8872 33.1064 21.6888 33.1064 21.3594V6.76833C33.1064 6.43818 33.0401 6.24053 32.9068 6.10803C32.8398 5.97554 32.5748 5.91038 32.2434 5.77788V5.3203H44.7949C47.0525 5.3203 48.7785 5.84811 50.0384 6.77267C51.299 7.7624 51.8969 9.14816 51.8969 10.8648C51.8969 12.1854 51.5648 13.3735 50.7681 14.2314C49.9714 15.1553 48.8426 15.8163 47.3147 16.2782L49.9714 20.3711C50.436 21.0951 50.8344 21.6251 51.0995 21.8227C51.3791 22.0469 51.6931 22.2251 52.0295 22.3505V22.8132H44.7942V22.3513C44.9691 22.3036 45.1289 22.2127 45.2588 22.087C45.3423 21.9971 45.3897 21.8799 45.3921 21.7576C45.3921 21.6251 45.2588 21.4274 45.06 21.0965C45.0108 20.9972 44.9434 20.9078 44.8612 20.833L41.8754 16.3441H38.1539V21.3615C38.1539 21.6917 38.2202 21.8893 38.3535 22.0204C38.4868 22.1514 38.6849 22.2188 39.0818 22.3513V22.8139L32.2434 22.8117ZM38.1532 8.88244V12.8435H42.6021C44.0623 12.8435 45.0586 12.6451 45.6557 12.3157C46.3206 12.0514 46.652 11.5236 46.652 10.7953C46.652 10.0669 46.3192 9.60646 45.7213 9.27486C45.1248 9.01132 44.0623 8.87883 42.4689 8.87883L38.1532 8.88244Z" fill="black"/>
    <path fill-rule="evenodd" clip-rule="evenodd" d="M147.183 8.28885C148.777 7.62855 150.836 8.02531 151.899 9.21269L144.66 12.6452C144.195 11.0611 145.656 8.88254 147.183 8.28885ZM149.508 4.13084C144.328 4.13084 140.012 8.15853 140.08 13.5054C140.145 18.9174 144.328 22.945 149.508 22.945C154.486 22.945 158.605 19.0498 158.936 14.0998H154.553C154.619 16.0799 153.623 17.8646 151.897 18.5887C149.706 19.4473 146.983 18.7211 145.655 16.1466L154.154 12.1189L158.338 10.1387C156.944 6.641 153.491 4.12939 149.508 4.12939V4.13084Z" fill="white"/>
  </g>
  <defs>
    <clipPath id="clip0_32_3692">
      <rect width="166" height="47" fill="white" transform="translate(0.439453 0.5)"/>
    </clipPath>
  </defs>
</svg>