<svg xmlns="http://www.w3.org/2000/svg" width="54" height="34" viewBox="0 0 54 34" fill="none">
  <g clip-path="url(#clip0_32_3520)">
    <path d="M50.4686 0H3.53142C1.58107 0 0 1.58107 0 3.53142V30.4585C0 32.4089 1.58107 33.9899 3.53142 33.9899H50.4686C52.4189 33.9899 54 32.4089 54 30.4585V3.53142C54 1.58107 52.4189 0 50.4686 0Z" fill="#1A1F71"/>
    <path d="M25.7674 11.5989L23.453 22.4194H20.654L22.9685 11.5989H25.7674ZM37.5448 18.586L39.0183 14.5225L39.8661 18.586H37.5448ZM40.6692 22.4194H43.2575L40.9964 11.5989H38.6084C38.3531 11.5965 38.1029 11.6708 37.8903 11.8123C37.6778 11.9537 37.5126 12.1558 37.4162 12.3922L33.2183 22.4194H36.1585L36.7423 20.8035H40.3328L40.6692 22.4194ZM33.3613 18.8868C33.3739 16.0316 29.4142 15.8731 29.4401 14.5971C29.4487 14.2096 29.8183 13.7934 30.6272 13.6907C31.029 13.639 32.134 13.5977 33.3882 14.1752L33.8785 11.879C33.0409 11.5659 32.1545 11.4039 31.2603 11.4009C28.4929 11.4009 26.5458 12.871 26.5303 14.9777C26.5125 16.535 27.9212 17.4035 28.9797 17.9224C30.0704 18.4528 30.4377 18.7932 30.432 19.2668C30.4245 19.9929 29.5612 20.3138 28.7581 20.3264C27.3495 20.3483 26.5338 19.9459 25.8828 19.6422L25.3748 22.0147C26.0303 22.3143 27.2369 22.5755 28.4872 22.5887C31.4291 22.5887 33.3526 21.1358 33.3613 18.8862M21.7659 11.5961L17.2311 22.4165H14.2754L12.0436 13.7808C11.9081 13.2498 11.7904 13.0547 11.3788 12.8308C10.7055 12.4651 9.59418 12.123 8.61719 11.9123L8.6832 11.5983H13.4476C14.0544 11.5983 14.6003 12.0002 14.7392 12.7011L15.9183 18.9631L18.8303 11.5983L21.7659 11.5961Z" fill="white"/>
  </g>
  <defs>
    <clipPath id="clip0_32_3520">
      <rect width="54" height="33.9899" fill="white"/>
    </clipPath>
  </defs>
</svg>