<svg xmlns="http://www.w3.org/2000/svg"  viewBox="0 0 48 48" width="256px" height="256px"><g data-name="18-sushi"><path fill="#d14732" d="M38.75,30.08a21.662,21.662,0,0,1-4.4.9c-.35-.4-.73-.82-1.12-1.24L35.64,27c.18-.18.39-.38.63-.59A26.335,26.335,0,0,1,38.75,30.08Z"/><path fill="#d14732" d="M32.25,23.16A4.631,4.631,0,0,0,32,24.69v3.74A17.22,17.22,0,0,0,28,25c-.69-.26-1.36-.51-2-.73v-2a3.781,3.781,0,0,1,.28-1.45A40.4,40.4,0,0,1,32.25,23.16Z"/><path fill="#d14732" d="M15.96,21.11a1.957,1.957,0,0,1-.96-1.7V18s2.68.5,6.12,1.37a4.045,4.045,0,0,0-.12.98V22.6c-1.94-.59-3.46-1-4.49-1.25A1.7,1.7,0,0,1,15.96,21.11Z"/><path fill="#c23b31" d="M26.28,20.82A3.781,3.781,0,0,0,26,22.27v2c-1.88-.68-3.56-1.22-5-1.67V20.35a4.045,4.045,0,0,1,.12-.98C22.74,19.78,24.53,20.27,26.28,20.82Z"/><path fill="#c23b31" d="M36.27,26.41c-.24.21-.45.41-.63.59l-2.41,2.74c-.4-.44-.82-.88-1.23-1.31V24.69a4.631,4.631,0,0,1,.25-1.53A10.921,10.921,0,0,1,35,25,18.79,18.79,0,0,1,36.27,26.41Z"/><path fill="#c23b31" d="M41,35l-1.89-.47a6.873,6.873,0,0,1-3.5-2.14c-.37-.42-.79-.9-1.26-1.41a21.662,21.662,0,0,0,4.4-.9A31.641,31.641,0,0,1,41,35Z"/><path fill="#ede9e1" d="M26,24.27c.64.22,1.31.47,2,.73a17.22,17.22,0,0,1,4,3.43c.41.43.83.87,1.23,1.31.39.42.77.84,1.12,1.24.47.51.89.99,1.26,1.41a6.873,6.873,0,0,0,3.5,2.14L41,35H34.89a18.22,18.22,0,0,1-5.63-.9L19.19,30.78A6.113,6.113,0,0,1,15,24.99a6.287,6.287,0,0,1,.31-1.93l.65-1.95a1.7,1.7,0,0,0,.55.24c1.03.25,2.55.66,4.49,1.25C22.44,23.05,24.12,23.59,26,24.27Z"/><path fill="#ff6956" d="M46.63,26.98A5.193,5.193,0,0,1,47,28.89a5.031,5.031,0,0,1-2.78,4.5L41,35a31.641,31.641,0,0,0-2.25-4.92A2.413,2.413,0,0,0,39,30c2.44-.81,5.71-3.77,6.8-4.81A16.618,16.618,0,0,1,46.63,26.98Z"/><path fill="#ff7d5e" d="M44.06,22.34a21.793,21.793,0,0,1,1.74,2.85c-1.09,1.04-4.36,4-6.8,4.81a2.413,2.413,0,0,1-.25.08,26.335,26.335,0,0,0-2.48-3.67A81.771,81.771,0,0,1,43,21,16.838,16.838,0,0,1,44.06,22.34Z"/><path fill="#ff6956" d="M39.83,18.01A18.018,18.018,0,0,1,43,21a81.771,81.771,0,0,0-6.73,5.41A18.79,18.79,0,0,0,35,25a10.921,10.921,0,0,0-2.75-1.84,4.721,4.721,0,0,1,1.03-1.82A9.421,9.421,0,0,1,39.83,18.01Z"/><path fill="#ff7d5e" d="M36,16a13.875,13.875,0,0,1,3.83,2.01,9.421,9.421,0,0,0-6.55,3.33,4.721,4.721,0,0,0-1.03,1.82,40.4,40.4,0,0,0-5.97-2.34,3.793,3.793,0,0,1,.94-1.43c1.26-1.19,2.76-3.51,5.7-4.37C33.9,15.32,34.93,15.64,36,16Z"/><path fill="#ff6956" d="M29.29,14.03q1.68.42,3.63.99c-2.94.86-4.44,3.18-5.7,4.37a3.793,3.793,0,0,0-.94,1.43c-1.75-.55-3.54-1.04-5.16-1.45a3.77,3.77,0,0,1,.89-1.67,10.738,10.738,0,0,1,7.26-3.67C29.28,14.02,29.28,14.03,29.29,14.03Z"/><path fill="#ff7d5e" d="M29.08,13.98a1.8,1.8,0,0,1,.19.05,10.738,10.738,0,0,0-7.26,3.67,3.77,3.77,0,0,0-.89,1.67C17.68,18.5,15,18,15,18l4.05-3.38A7.011,7.011,0,0,1,23.54,13a6.841,6.841,0,0,1,.91.06C25.7,13.23,27.26,13.54,29.08,13.98Z"/><path fill="#ded9d0" d="M41,35l-1.89-.47a6.873,6.873,0,0,1-3.5-2.14c-.37-.42-.79-.9-1.26-1.41-.35-.4-.73-.82-1.12-1.24-.4-.44-.82-.88-1.23-1.31A17.22,17.22,0,0,0,28,25c-.69-.26-1.36-.51-2-.73-1.88-.68-3.56-1.22-5-1.67-1.94-.59-3.46-1-4.49-1.25a1.7,1.7,0,0,1-.55-.24l-.65,1.95c-.052.163-.081.332-.121.5.031.032.052.072.085.1a3.987,3.987,0,0,0,1.712.732l3.933.989a10.756,10.756,0,0,1,4.455,1.873c2.168,1.835,2.661,5.174,4.951,6.854a5.608,5.608,0,0,0,.821.486A18.061,18.061,0,0,0,34.89,35Z"/><path fill="#eec9b4" d="M46.63,26.98a16.618,16.618,0,0,0-.83-1.79c-.525.5-1.562,1.449-2.764,2.387a.6.6,0,0,0,.157-.042c.186-.081.338-.225.522-.31a1.194,1.194,0,0,1,1.476.647,2.391,2.391,0,0,1,.008,1.744,5.569,5.569,0,0,1-1.094,1.929,6.785,6.785,0,0,1-.816.8c-.279.232-.654.389-.91.62a.7.7,0,0,0-.3.483.463.463,0,0,0,.223.358,1.364,1.364,0,0,0,.407.159c.465.126,1.078-.361,1.508-.576A5.031,5.031,0,0,0,47,28.89,5.193,5.193,0,0,0,46.63,26.98Z"/><path fill="#eec9b4" d="M41.275,22.527a2.018,2.018,0,0,1,1.633.12,2.517,2.517,0,0,1,.993,1.584A2.943,2.943,0,0,1,44,25.49a3.786,3.786,0,0,1-1.361,1.947.387.387,0,0,0,.393.14c1.2-.938,2.239-1.886,2.764-2.387a21.793,21.793,0,0,0-1.74-2.85A16.838,16.838,0,0,0,43,21c-.589.4-1.529,1.111-2.556,1.918A3.822,3.822,0,0,1,41.275,22.527Z"/><path fill="#eec9b4" d="M36.034,19.748a4.006,4.006,0,0,1,4.226.559,1.3,1.3,0,0,1,.532,1.189,1.726,1.726,0,0,1-.624.8,7.167,7.167,0,0,0-1.255,1.469,1.755,1.755,0,0,0,.894-.416c.207-.149.418-.295.637-.427C41.471,22.111,42.411,21.4,43,21a18.018,18.018,0,0,0-3.17-2.99A8.476,8.476,0,0,0,34.731,20,1.939,1.939,0,0,0,36.034,19.748Z"/><path fill="#eec9b4" d="M31.117,16.457a5.323,5.323,0,0,1,3.489.349c.876.407,1.626,1.149.957,2.11-.269.386-.731.631-.912,1.064a.713.713,0,0,0,.08.018,8.476,8.476,0,0,1,5.1-1.988A13.875,13.875,0,0,0,36,16c-1.07-.36-2.1-.68-3.08-.98a8.613,8.613,0,0,0-3.474,2.056C29.754,17.363,30.78,16.531,31.117,16.457Z"/><path fill="#eec9b4" d="M24.573,15.884a6.8,6.8,0,0,0,1.472-.507,10.685,10.685,0,0,1,1.747-.537,2.761,2.761,0,0,1,1.153-.062,1.125,1.125,0,0,1,.858.705c.14.453-.608,1.356-.359,1.593h0A8.613,8.613,0,0,1,32.92,15.02q-1.95-.57-3.63-.99c-.01,0-.01-.01-.02,0a10.162,10.162,0,0,0-5.009,1.728C24.281,15.881,24.449,15.9,24.573,15.884Z"/><path fill="#eec9b4" d="M25.07,14.619c-.205.36-.54.63-.76.982a.239.239,0,0,0-.05.156h0A10.162,10.162,0,0,1,29.27,14.03a1.8,1.8,0,0,0-.19-.05c-1.82-.44-3.38-.75-4.63-.92a6.841,6.841,0,0,0-.91-.06,7.04,7.04,0,0,0-2.474.456,14.324,14.324,0,0,1,1.793-.1C23.663,13.367,25.872,13.209,25.07,14.619Z"/><path fill="#e28071" d="M26.28,20.82l-.238-.073a4.033,4.033,0,0,0-.292,1.523v1.912l.25.088c.08.027.169.063.25.091V22.27a3.533,3.533,0,0,1,.265-1.363l0-.008Z"/><path fill="#eec9b4" d="M32.92,15.02c-.144-.042-.275-.077-.417-.118a10.987,10.987,0,0,0-4.578,3.387c-.311.34-.6.661-.878.92a4.054,4.054,0,0,0-1,1.516l-.007.022.238.073.239.079a3.563,3.563,0,0,1,.873-1.328c.287-.27.586-.6.9-.945a10.239,10.239,0,0,1,4.672-3.359.5.5,0,0,0,.111-.029.246.246,0,0,0,.145-.124Z"/><path fill="#e28071" d="M32.25,23.16c-.071-.037-.154-.071-.227-.108l-.009.026a4.914,4.914,0,0,0-.264,1.612v3.484c.083.086.166.169.25.256s.166.178.25.266V24.69a4.448,4.448,0,0,1,.227-1.409C32.4,23.241,32.329,23.2,32.25,23.16Z"/><path fill="#edd3b8" d="M39.83,18.01c-.1-.077-.217-.146-.324-.221A9.813,9.813,0,0,0,33.1,21.172a4.919,4.919,0,0,0-1.072,1.88c.073.037.156.071.227.108s.149.081.227.121c.005-.016.007-.033.012-.05a4.462,4.462,0,0,1,.975-1.721,9.173,9.173,0,0,1,6.371-3.25.243.243,0,0,0,.182-.094C39.952,18.117,39.9,18.058,39.83,18.01Z"/><path fill="#e28071" d="M36.27,26.41c-.053-.065-.114-.122-.167-.186-.242.213-.456.416-.651.611l-2.394,2.721c.056.062.116.122.172.184s.11.123.168.186l2.418-2.748c.173-.173.376-.365.608-.57C36.371,26.542,36.323,26.475,36.27,26.41Z"/><path fill="#eec9b4" d="M43,21c-.053-.064-.118-.12-.172-.184A82.7,82.7,0,0,0,36.1,26.223h0c.053.064.114.121.167.186s.1.132.154.2l.014-.014a82.283,82.283,0,0,1,6.7-5.388c.005,0,.005-.011.01-.015C43.1,21.129,43.054,21.061,43,21Z"/><path fill="#e28071" d="M38.75,30.08c-.042-.073-.088-.148-.131-.222a21.517,21.517,0,0,1-4.287.873l-.168.008-.03,0c.07.079.149.162.216.239l.208.23a21.981,21.981,0,0,0,4.254-.888c.02,0,.039-.013.059-.018C38.829,30.228,38.793,30.156,38.75,30.08Z"/><path fill="#eec9b4" d="M45.8,25.19c-.038-.074-.086-.151-.126-.225-.018.016-.027.027-.047.045-.952.909-4.252,3.939-6.716,4.757-.071.026-.151.052-.237.075l-.055.016c.043.074.089.149.131.222s.079.148.121.224c.071-.021.146-.043.208-.067,2.519-.835,5.825-3.85,6.837-4.814C45.876,25.345,45.842,25.268,45.8,25.19Z"/><path fill="#e28071" d="M21.12,19.37l-.242-.06h0a4.268,4.268,0,0,0-.128,1.04v2.176L21,22.6l.25.079V20.35a3.818,3.818,0,0,1,.112-.917Z"/><path fill="#eec9b4" d="M29.29,14.03c-.01,0-.01-.01-.02,0a1.8,1.8,0,0,0-.19-.05c-.167-.04-.32-.074-.483-.112a11.185,11.185,0,0,0-6.772,3.663,3.981,3.981,0,0,0-.947,1.779l.242.06.242.063v0a3.506,3.506,0,0,1,.833-1.563A10.555,10.555,0,0,1,29.28,14.28a.245.245,0,0,0,.178-.065.241.241,0,0,0,.059-.126Z"/><path fill="#e0503e" d="M42.2,29.105c-.194.175-.4.407-.346.663.064.309.469.422.773.336s.557-.3.853-.407a3.32,3.32,0,0,0,.819-.29,1.155,1.155,0,0,0,.415-.92c-.056-.373-.465-.474-.844-.462C43.234,28.045,42.638,28.708,42.2,29.105Z"/><path fill="#e0503e" d="M38.651,23.378a3.107,3.107,0,0,0,1.1-1.7,1.42,1.42,0,0,0-.517-1.711,1.155,1.155,0,0,0-.735-.011c-.7.165-.551.722-.64,1.272-.118.725-.744,1.108-.367,1.925a.745.745,0,0,0,.483.449A.871.871,0,0,0,38.651,23.378Z"/><path fill="#e0503e" d="M33.938,21.527a.881.881,0,0,0-.187.67.484.484,0,0,0,.575.289,1.648,1.648,0,0,0,.614-.346,6.249,6.249,0,0,1,1.227-.71,2.37,2.37,0,0,0,.463-.235c.707-.517-.117-.98-.667-.924a2.692,2.692,0,0,0-1.489.662A3.156,3.156,0,0,0,33.938,21.527Z"/><path fill="#ff603c" d="M40.91,25.211a7.454,7.454,0,0,0-.492.773,1.052,1.052,0,0,0,.109.861,1.389,1.389,0,0,0,1,.671,1.414,1.414,0,0,0,1.147-.365,2.359,2.359,0,0,0,.5-.78c.386-.869.733-2.656-.512-3.054a1.3,1.3,0,0,0-1.334.417C41.018,24.153,41.14,24.753,40.91,25.211Z"/><path fill="#ff603c" d="M38.094,27.941c0,.053.006.107.012.16.1.9.737,1.033,1.532.766.429-.144,1.041-.8.723-1.281-.147-.221-.6-.328-.841-.4a1.241,1.241,0,0,0-1.183.248.7.7,0,0,0-.225.34A.632.632,0,0,0,38.094,27.941Z"/><path fill="#ff603c" d="M31.628,16.667a.919.919,0,0,0-.456.231.688.688,0,0,0-.162.443,1.007,1.007,0,0,0,.188.617c.281.388.822.554,1.024.988a3.429,3.429,0,0,0,.246.658.733.733,0,0,0,.245.2,1.378,1.378,0,0,0,1.177.008,2.166,2.166,0,0,0,.9-.8,1.452,1.452,0,0,0,.183-1.535C34.329,16.468,32.624,16.4,31.628,16.667Z"/><path fill="#ff603c" d="M30.029,20.916a.27.27,0,0,0,0,.171.407.407,0,0,0,.188.183c.135.08.273.156.414.226a1.611,1.611,0,0,0,1.344.178c.51-.23.954-1.317.083-1.183a3.824,3.824,0,0,1-1.029.1C30.7,20.553,30.154,20.492,30.029,20.916Z"/><path fill="#ff603c" d="M21.083,13.8a4.737,4.737,0,0,0-1.547,1.224.418.418,0,0,0-.121.188.32.32,0,0,0,.17.313c.108.068.234.1.343.166a.7.7,0,0,1,.33.68c-.022.164-.1.343-.015.484a.366.366,0,0,0,.158.13,1.132,1.132,0,0,0,.914,0,3.342,3.342,0,0,0,.791-.505l.711-.554c.514-.4,1.288-1.225.682-1.893A2.512,2.512,0,0,0,21.083,13.8Z"/><path fill="#e0503e" d="M27.545,15.694c.3.076.633.26.658.569a.549.549,0,0,1-.28.488,1.046,1.046,0,0,1-.572.123c-.24-.007-.479-.058-.719-.045-.6.033-2.659,1.747-2.506.184C24.247,15.776,26.63,15.462,27.545,15.694Z"/><path fill="#b3362d" d="M21.641,21.383a.815.815,0,0,0,.131.472.77.77,0,0,0,.639.2,4.338,4.338,0,0,0,1.561-.33c.247-.1.516-.273.539-.54a.541.541,0,0,0-.179-.421,1.534,1.534,0,0,0-.4-.256,3.927,3.927,0,0,0-2.134-.569C21.455,19.979,21.625,21.11,21.641,21.383Z"/><path fill="#c73d29" d="M16.739,19.624a.757.757,0,0,0-.285.012.7.7,0,0,0-.357.409.349.349,0,0,0-.046.288.337.337,0,0,0,.139.133A6.537,6.537,0,0,0,19.6,21.475c1,.01,1.08-1.613.4-2.119a1.452,1.452,0,0,0-1.291-.109A5.339,5.339,0,0,1,16.739,19.624Z"/><path fill="#b3362d" d="M33.267,26.525c.187-.295.626-.287.9-.5a.814.814,0,0,0,.275-.753,1.375,1.375,0,0,0-.385-.731,2.141,2.141,0,0,0-1.131-.626.505.505,0,0,0-.383.039c-.271.188-.247.727-.262,1.009A9.822,9.822,0,0,0,32.3,26.3a.963.963,0,0,0,.209.619.412.412,0,0,0,.336.124C33.116,27.009,33.15,26.71,33.267,26.525Z"/><path fill="#b3362d" d="M32.907,28.209a.373.373,0,0,0,.237.116c.511.064,1.52-1.017.779-1.343-.326-.144-.387.14-.582.347S32.61,27.863,32.907,28.209Z"/><path fill="#b3362d" d="M38.976,32.523c.208-.355.452-1,.158-1.376a.946.946,0,0,0-1.128-.257,2.789,2.789,0,0,1-1.33.178c-.327-.01-.717-.027-.909.237-.2.281-.029.68.206.935a2.93,2.93,0,0,0,1.542.822,1.412,1.412,0,0,0,1.087-.109A1.293,1.293,0,0,0,38.976,32.523Z"/><path fill="#b3362d" d="M38.894,33.39a.5.5,0,0,0,.192.254l.245.207a.947.947,0,0,0,.26.176.327.327,0,0,0,.3-.02.457.457,0,0,0,.134-.384c0-.275.009-.985-.385-1C39.364,32.618,38.833,33.11,38.894,33.39Z"/><path fill="#c73d29" d="M28.076,22.214a.536.536,0,0,0-.326.078.439.439,0,0,0-.141.338,1.5,1.5,0,0,0,.513,1.072c.289.288.633.517.914.813a5.39,5.39,0,0,0,.973,1.025.663.663,0,0,0,.416.114c.29-.035.463-.337.563-.612.234-.639.534-1.62-.107-2.116A4.83,4.83,0,0,0,28.076,22.214Z"/><path fill="#fffafc" d="M44.107,26.281a.886.886,0,0,0,.068.642,1.805,1.805,0,0,1,.192.629,1.043,1.043,0,0,1-.389.754c-.216.2-.475.338-.707.516a2.074,2.074,0,0,0-.873,1.65A1.344,1.344,0,0,0,43.58,31.78a1.429,1.429,0,0,0,.973-.382,3.377,3.377,0,0,0,.655-.841,4.565,4.565,0,0,0,.783-2.444,2.37,2.37,0,0,0-.585-1.492C45.166,26.357,44.336,25.686,44.107,26.281Z"/><path fill="#fffafc" d="M43.236,21.777c-.385-.477-.962-.752-1.49-.3a2.486,2.486,0,0,0-.485.649,3.348,3.348,0,0,1-.564.73,4.891,4.891,0,0,0-.667.831c-.165.259-.3.618-.1.854a.569.569,0,0,0,.646.1,3,3,0,0,0,.58-.388,2.541,2.541,0,0,1,.81-.386c.283-.077.578-.1.86-.187a1.184,1.184,0,0,0,.709-.486A1.317,1.317,0,0,0,43.236,21.777Z"/><path fill="#fffafc" d="M43.024,24.106c-.054.17.112.323.259.423l.652.45a.419.419,0,0,0,.186.087c.139.015.255-.109.317-.234.169-.345.1-1.052-.33-1.2A1.389,1.389,0,0,0,43.024,24.106Z"/><path fill="#fffafc" d="M34.626,16.837c.309.5,1.217.883.915,1.625-.135.332-.487.519-.578.895a.276.276,0,0,0,.006.184.24.24,0,0,0,.146.109.71.71,0,0,0,.6-.136c.176-.121.321-.283.494-.409a7.189,7.189,0,0,1,1.355-.571.942.942,0,0,0,.617-.669c.043-.382-.3-.691-.629-.89a5.362,5.362,0,0,0-2.615-.763.485.485,0,0,0-.3.061C34.472,16.4,34.516,16.661,34.626,16.837Z"/><path fill="#fffafc" d="M29.634,15.19a1.086,1.086,0,0,0-.414.042,1.041,1.041,0,0,0-.37.284,8.253,8.253,0,0,0-.543.639c-.1.131-.2.325-.087.448a.373.373,0,0,0,.277.086,2.333,2.333,0,0,0,.473-.017c.242-.041.465-.157.7-.211s.492-.045.737-.083c.363-.056.73-.4.533-.8S30,15.2,29.634,15.19Z"/><path fill="#fffafc" d="M23.121,15.781a.875.875,0,0,0-.2.249.317.317,0,0,0,0,.309.344.344,0,0,0,.443.061,1.841,1.841,0,0,0,.364-.326c.518-.5,1.329-.552,1.906-.981.131-.1.259-.249.214-.406-.11-.391-1-.229-1.266-.106A6.3,6.3,0,0,0,23.121,15.781Z"/><path fill="#fffafc" d="M25.3,18.718a.516.516,0,0,0,.366.685.665.665,0,0,0,.508-.152c.3-.232.815-.791.246-.986A1.042,1.042,0,0,0,25.3,18.718Z"/><path fill="#fffafc" d="M23.578,13.5a2.881,2.881,0,0,0-1.605-.062c-.332.069-1.317.442-1.085.936a.564.564,0,0,0,.5.239,9.044,9.044,0,0,0,1.6-.063,1.64,1.64,0,0,0,.44-.084.837.837,0,0,0,.422-.367.431.431,0,0,0,.064-.246A.491.491,0,0,0,23.578,13.5Z"/><ellipse cx="29.016" cy="32.75" fill="#fffdf7" rx=".574" ry=".413" transform="rotate(-44.98 29.017 32.75)"/><ellipse cx="18.016" cy="26.75" fill="#fffdf7" rx=".574" ry=".413" transform="rotate(-44.98 18.017 26.75)"/><ellipse cx="22.016" cy="27.75" fill="#fffdf7" rx=".413" ry=".574"/><ellipse cx="28.016" cy="29.75" fill="#fffdf7" rx=".413" ry=".574"/><ellipse cx="20.016" cy="27.75" fill="#fffdf7" rx=".413" ry=".574"/><ellipse cx="17.016" cy="26.75" fill="#fffdf7" rx=".413" ry=".574"/><ellipse cx="17.016" cy="22.75" fill="#fffdf7" rx=".413" ry=".574"/><ellipse cx="31.016" cy="32.75" fill="#fffdf7" rx=".413" ry=".574"/><ellipse cx="21.016" cy="25.75" fill="#fffdf7" rx=".413" ry=".574"/><ellipse cx="18.016" cy="24.75" fill="#fffdf7" rx=".413" ry=".574" transform="rotate(-44.98 18.016 24.75)"/><ellipse cx="21.016" cy="29.75" fill="#fffdf7" rx=".413" ry=".574" transform="rotate(-44.98 21.016 29.75)"/><ellipse cx="16.016" cy="25.75" fill="#fffdf7" rx=".413" ry=".574" transform="rotate(-44.98 16.016 25.75)"/><ellipse cx="19.016" cy="29.75" fill="#fffdf7" rx=".574" ry=".413" transform="rotate(-44.98 19.016 29.75)"/><ellipse cx="25.016" cy="28.75" fill="#fffdf7" rx=".413" ry=".574"/><ellipse cx="23.016" cy="26.75" fill="#fffdf7" rx=".413" ry=".574"/><ellipse cx="27.016" cy="30.75" fill="#fffdf7" rx=".413" ry=".574"/><ellipse cx="25.016" cy="26.75" fill="#fffdf7" rx=".413" ry=".574"/><ellipse cx="20.016" cy="24.75" fill="#fffdf7" rx=".413" ry=".574"/><ellipse cx="18.016" cy="28.75" fill="#fffdf7" rx=".413" ry=".574" transform="rotate(-44.98 18.017 28.75)"/><ellipse cx="26.016" cy="31.75" fill="#fffdf7" rx=".413" ry=".574" transform="rotate(-44.98 26.017 31.75)"/><ellipse cx="23.016" cy="29.75" fill="#fffdf7" rx=".413" ry=".574" transform="rotate(-44.98 23.017 29.75)"/><ellipse cx="24.016" cy="27.75" fill="#fffdf7" rx=".413" ry=".574" transform="rotate(-44.98 24.017 27.75)"/><ellipse cx="25.016" cy="30.75" fill="#fffdf7" rx=".413" ry=".574" transform="rotate(-44.98 25.016 30.75)"/><path fill="#d14732" d="M24.75,42.08a21.662,21.662,0,0,1-4.4.9c-.35-.4-.73-.82-1.12-1.24L21.64,39c.18-.18.39-.38.63-.59A26.335,26.335,0,0,1,24.75,42.08Z"/><path fill="#d14732" d="M18.25,35.16A4.631,4.631,0,0,0,18,36.69v3.74A17.22,17.22,0,0,0,14,37c-.69-.26-1.36-.51-2-.73v-2a3.781,3.781,0,0,1,.28-1.45A40.4,40.4,0,0,1,18.25,35.16Z"/><path fill="#d14732" d="M1.96,33.11A1.957,1.957,0,0,1,1,31.41V30s2.68.5,6.12,1.37a4.045,4.045,0,0,0-.12.98V34.6c-1.94-.59-3.46-1-4.49-1.25A1.7,1.7,0,0,1,1.96,33.11Z"/><path fill="#c23b31" d="M12.28,32.82A3.781,3.781,0,0,0,12,34.27v2c-1.88-.68-3.56-1.22-5-1.67V32.35a4.045,4.045,0,0,1,.12-.98C8.74,31.78,10.53,32.27,12.28,32.82Z"/><path fill="#c23b31" d="M22.27,38.41c-.24.21-.45.41-.63.59l-2.41,2.74c-.4-.44-.82-.88-1.23-1.31V36.69a4.631,4.631,0,0,1,.25-1.53A10.921,10.921,0,0,1,21,37,18.79,18.79,0,0,1,22.27,38.41Z"/><path fill="#c23b31" d="M27,47l-1.89-.47a6.873,6.873,0,0,1-3.5-2.14c-.37-.42-.79-.9-1.26-1.41a21.662,21.662,0,0,0,4.4-.9A31.641,31.641,0,0,1,27,47Z"/><path fill="#ede9e1" d="M12,36.27c.64.22,1.31.47,2,.73a17.22,17.22,0,0,1,4,3.43c.41.43.83.87,1.23,1.31.39.42.77.84,1.12,1.24.47.51.89.99,1.26,1.41a6.873,6.873,0,0,0,3.5,2.14L27,47H20.89a18.22,18.22,0,0,1-5.63-.9L5.19,42.78A6.113,6.113,0,0,1,1,36.99a6.287,6.287,0,0,1,.31-1.93l.65-1.95a1.7,1.7,0,0,0,.55.24c1.03.25,2.55.66,4.49,1.25C8.44,35.05,10.12,35.59,12,36.27Z"/><path fill="#ff6956" d="M32.63,38.98A5.193,5.193,0,0,1,33,40.89a5.031,5.031,0,0,1-2.78,4.5L27,47a31.641,31.641,0,0,0-2.25-4.92A2.413,2.413,0,0,0,25,42c2.44-.81,5.71-3.77,6.8-4.81A16.618,16.618,0,0,1,32.63,38.98Z"/><path fill="#ff7d5e" d="M30.06,34.34a21.793,21.793,0,0,1,1.74,2.85c-1.09,1.04-4.36,4-6.8,4.81a2.413,2.413,0,0,1-.25.08,26.335,26.335,0,0,0-2.48-3.67A81.771,81.771,0,0,1,29,33,16.838,16.838,0,0,1,30.06,34.34Z"/><path fill="#ff6956" d="M25.83,30.01A18.018,18.018,0,0,1,29,33a81.771,81.771,0,0,0-6.73,5.41A18.79,18.79,0,0,0,21,37a10.921,10.921,0,0,0-2.75-1.84,4.721,4.721,0,0,1,1.03-1.82A9.421,9.421,0,0,1,25.83,30.01Z"/><path fill="#ff7d5e" d="M22,28a13.875,13.875,0,0,1,3.83,2.01,9.421,9.421,0,0,0-6.55,3.33,4.721,4.721,0,0,0-1.03,1.82,40.4,40.4,0,0,0-5.97-2.34,3.793,3.793,0,0,1,.94-1.43c1.26-1.19,2.76-3.51,5.7-4.37C19.9,27.32,20.93,27.64,22,28Z"/><path fill="#ff6956" d="M15.29,26.03q1.68.42,3.63.99c-2.94.86-4.44,3.18-5.7,4.37a3.793,3.793,0,0,0-.94,1.43c-1.75-.55-3.54-1.04-5.16-1.45a3.77,3.77,0,0,1,.89-1.67,10.738,10.738,0,0,1,7.26-3.67C15.28,26.02,15.28,26.03,15.29,26.03Z"/><path fill="#ff7d5e" d="M15.08,25.98a1.8,1.8,0,0,1,.19.05A10.738,10.738,0,0,0,8.01,29.7a3.77,3.77,0,0,0-.89,1.67C3.68,30.5,1,30,1,30l4.05-3.38A7.011,7.011,0,0,1,9.54,25a6.841,6.841,0,0,1,.91.06C11.7,25.23,13.26,25.54,15.08,25.98Z"/><path fill="#ded9d0" d="M27,47l-1.89-.47a6.873,6.873,0,0,1-3.5-2.14c-.37-.42-.79-.9-1.26-1.41-.35-.4-.73-.82-1.12-1.24-.4-.44-.82-.88-1.23-1.31A17.22,17.22,0,0,0,14,37c-.69-.26-1.36-.51-2-.73-1.88-.68-3.56-1.22-5-1.67-1.94-.59-3.46-1-4.49-1.25a1.7,1.7,0,0,1-.55-.24l-.65,1.95c-.052.163-.081.332-.121.5.031.032.052.072.085.1a3.987,3.987,0,0,0,1.712.732l3.933.989a10.756,10.756,0,0,1,4.455,1.873c2.168,1.835,2.661,5.174,4.951,6.854a5.608,5.608,0,0,0,.821.486A18.061,18.061,0,0,0,20.89,47Z"/><path fill="#eec9b4" d="M32.63,38.98a16.618,16.618,0,0,0-.83-1.79c-.525.5-1.562,1.449-2.764,2.387a.6.6,0,0,0,.157-.042c.186-.081.338-.225.522-.31a1.194,1.194,0,0,1,1.476.647,2.391,2.391,0,0,1,.008,1.744,5.569,5.569,0,0,1-1.094,1.929,6.785,6.785,0,0,1-.816.8c-.279.232-.654.389-.91.62a.7.7,0,0,0-.3.483.463.463,0,0,0,.223.358,1.364,1.364,0,0,0,.407.159c.465.126,1.078-.361,1.508-.576A5.031,5.031,0,0,0,33,40.89,5.193,5.193,0,0,0,32.63,38.98Z"/><path fill="#eec9b4" d="M27.275,34.527a2.018,2.018,0,0,1,1.633.12,2.517,2.517,0,0,1,.993,1.584A2.943,2.943,0,0,1,30,37.49a3.786,3.786,0,0,1-1.361,1.947.387.387,0,0,0,.393.14c1.2-.938,2.239-1.886,2.764-2.387a21.793,21.793,0,0,0-1.74-2.85A16.838,16.838,0,0,0,29,33c-.589.4-1.529,1.111-2.556,1.918A3.822,3.822,0,0,1,27.275,34.527Z"/><path fill="#eec9b4" d="M22.034,31.748a4.006,4.006,0,0,1,4.226.559,1.3,1.3,0,0,1,.532,1.189,1.726,1.726,0,0,1-.624.8,7.167,7.167,0,0,0-1.255,1.469,1.755,1.755,0,0,0,.894-.416c.207-.149.418-.3.637-.427C27.471,34.111,28.411,33.4,29,33a18.018,18.018,0,0,0-3.17-2.99A8.476,8.476,0,0,0,20.731,32,1.939,1.939,0,0,0,22.034,31.748Z"/><path fill="#eec9b4" d="M17.117,28.457a5.323,5.323,0,0,1,3.489.349c.876.407,1.626,1.149.957,2.11-.269.386-.731.631-.912,1.064a.713.713,0,0,0,.08.018,8.476,8.476,0,0,1,5.1-1.988A13.875,13.875,0,0,0,22,28c-1.07-.36-2.1-.68-3.08-.98a8.613,8.613,0,0,0-3.474,2.056C15.754,29.363,16.78,28.531,17.117,28.457Z"/><path fill="#eec9b4" d="M10.573,27.884a6.8,6.8,0,0,0,1.472-.507,10.685,10.685,0,0,1,1.747-.537,2.761,2.761,0,0,1,1.153-.062,1.125,1.125,0,0,1,.858.705c.14.453-.608,1.356-.359,1.593h0A8.613,8.613,0,0,1,18.92,27.02q-1.95-.57-3.63-.99c-.01,0-.01-.01-.02,0a10.162,10.162,0,0,0-5.009,1.728C10.281,27.881,10.449,27.9,10.573,27.884Z"/><path fill="#eec9b4" d="M11.07,26.619c-.205.36-.54.63-.76.982a.239.239,0,0,0-.05.156h0A10.162,10.162,0,0,1,15.27,26.03a1.8,1.8,0,0,0-.19-.05c-1.82-.44-3.38-.75-4.63-.92A6.841,6.841,0,0,0,9.54,25a7.04,7.04,0,0,0-2.474.456,14.324,14.324,0,0,1,1.793-.1C9.663,25.367,11.872,25.209,11.07,26.619Z"/><path fill="#e28071" d="M12.28,32.82l-.238-.073a4.033,4.033,0,0,0-.292,1.523v1.912l.25.088c.08.027.169.063.25.091V34.27a3.533,3.533,0,0,1,.265-1.363l0-.008Z"/><path fill="#eec9b4" d="M18.92,27.02c-.144-.042-.275-.077-.417-.118a10.987,10.987,0,0,0-4.578,3.387c-.311.34-.6.661-.878.92a4.054,4.054,0,0,0-1,1.516l-.007.022.238.073.239.079a3.563,3.563,0,0,1,.873-1.328c.287-.27.586-.6.9-.945a10.239,10.239,0,0,1,4.672-3.359.5.5,0,0,0,.111-.029.246.246,0,0,0,.145-.124Z"/><path fill="#e28071" d="M18.25,35.16c-.071-.037-.154-.071-.227-.108l-.009.026a4.914,4.914,0,0,0-.264,1.612v3.484c.083.086.166.169.25.256s.166.178.25.266V36.69a4.448,4.448,0,0,1,.227-1.409C18.4,35.241,18.329,35.2,18.25,35.16Z"/><path fill="#edd3b8" d="M25.83,30.01c-.1-.077-.217-.146-.324-.221A9.813,9.813,0,0,0,19.1,33.172a4.919,4.919,0,0,0-1.072,1.88c.073.037.156.071.227.108s.149.081.227.121c0-.016.007-.033.012-.05a4.462,4.462,0,0,1,.975-1.721,9.173,9.173,0,0,1,6.371-3.25.243.243,0,0,0,.182-.094C25.952,30.117,25.9,30.058,25.83,30.01Z"/><path fill="#e28071" d="M22.27,38.41c-.053-.065-.114-.122-.167-.186-.242.213-.456.416-.651.611l-2.394,2.721c.056.062.116.122.172.184s.11.123.168.186l2.418-2.748c.173-.173.376-.365.608-.57C22.371,38.542,22.323,38.475,22.27,38.41Z"/><path fill="#eec9b4" d="M29,33c-.053-.064-.118-.12-.172-.184A82.7,82.7,0,0,0,22.1,38.223h0c.053.064.114.121.167.186s.1.132.154.2l.014-.014a82.283,82.283,0,0,1,6.7-5.388c.005,0,.005-.011.01-.015C29.1,33.129,29.054,33.061,29,33Z"/><path fill="#e28071" d="M24.75,42.08c-.042-.073-.088-.148-.131-.222a21.517,21.517,0,0,1-4.287.873l-.168.008-.03,0c.07.079.149.162.216.239l.208.23a21.981,21.981,0,0,0,4.254-.888c.02-.005.039-.013.059-.018C24.829,42.228,24.793,42.156,24.75,42.08Z"/><path fill="#eec9b4" d="M31.8,37.19c-.038-.074-.086-.151-.126-.225-.018.016-.027.027-.047.045-.952.909-4.252,3.939-6.716,4.757-.071.026-.151.052-.237.075l-.055.016c.043.074.089.149.131.222s.079.148.121.224c.071-.021.146-.043.208-.067,2.519-.835,5.825-3.85,6.837-4.814C31.876,37.345,31.842,37.268,31.8,37.19Z"/><path fill="#e28071" d="M7.12,31.37l-.242-.06h0a4.268,4.268,0,0,0-.128,1.04v2.176L7,34.6l.25.079V32.35a3.818,3.818,0,0,1,.112-.917Z"/><path fill="#eec9b4" d="M15.29,26.03c-.01,0-.01-.01-.02,0a1.8,1.8,0,0,0-.19-.05c-.167-.04-.32-.074-.483-.112a11.185,11.185,0,0,0-6.772,3.663,3.981,3.981,0,0,0-.947,1.779l.242.06.242.063v0A3.506,3.506,0,0,1,8.2,29.866,10.555,10.555,0,0,1,15.28,26.28a.245.245,0,0,0,.178-.065.241.241,0,0,0,.059-.126Z"/><path fill="#e0503e" d="M28.2,41.105c-.194.175-.4.407-.346.663.064.309.469.422.773.336s.557-.3.853-.407a3.32,3.32,0,0,0,.819-.29,1.155,1.155,0,0,0,.415-.92c-.056-.373-.465-.474-.844-.462C29.234,40.045,28.638,40.708,28.2,41.105Z"/><path fill="#e0503e" d="M24.651,35.378a3.107,3.107,0,0,0,1.1-1.7,1.42,1.42,0,0,0-.517-1.711,1.155,1.155,0,0,0-.735-.011c-.7.165-.551.722-.64,1.272-.118.725-.744,1.108-.367,1.925a.745.745,0,0,0,.483.449A.871.871,0,0,0,24.651,35.378Z"/><path fill="#e0503e" d="M19.938,33.527a.881.881,0,0,0-.187.67.484.484,0,0,0,.575.289,1.648,1.648,0,0,0,.614-.346,6.249,6.249,0,0,1,1.227-.71,2.37,2.37,0,0,0,.463-.235c.707-.517-.117-.98-.667-.924a2.692,2.692,0,0,0-1.489.662A3.156,3.156,0,0,0,19.938,33.527Z"/><path fill="#ff603c" d="M26.91,37.211a7.454,7.454,0,0,0-.492.773,1.052,1.052,0,0,0,.109.861,1.389,1.389,0,0,0,1,.671,1.414,1.414,0,0,0,1.147-.365,2.359,2.359,0,0,0,.5-.78c.386-.869.733-2.656-.512-3.054a1.3,1.3,0,0,0-1.334.417C27.018,36.153,27.14,36.753,26.91,37.211Z"/><path fill="#ff603c" d="M24.094,39.941c0,.053.006.107.012.16.1.9.737,1.033,1.532.766.429-.144,1.041-.8.723-1.281-.147-.221-.6-.328-.841-.4a1.241,1.241,0,0,0-1.183.248.7.7,0,0,0-.225.34A.632.632,0,0,0,24.094,39.941Z"/><path fill="#ff603c" d="M17.628,28.667a.919.919,0,0,0-.456.231.688.688,0,0,0-.162.443,1.007,1.007,0,0,0,.188.617c.281.388.822.554,1.024.988a3.429,3.429,0,0,0,.246.658.733.733,0,0,0,.245.2,1.378,1.378,0,0,0,1.177.008,2.166,2.166,0,0,0,.9-.8,1.452,1.452,0,0,0,.183-1.535C20.329,28.468,18.624,28.4,17.628,28.667Z"/><path fill="#ff603c" d="M16.029,32.916a.27.27,0,0,0,0,.171.407.407,0,0,0,.188.183c.135.08.273.156.414.226a1.611,1.611,0,0,0,1.344.178c.51-.23.954-1.317.083-1.183a3.824,3.824,0,0,1-1.029.1C16.7,32.553,16.154,32.492,16.029,32.916Z"/><path fill="#ff603c" d="M7.083,25.8a4.737,4.737,0,0,0-1.547,1.224.418.418,0,0,0-.121.188.32.32,0,0,0,.17.313c.108.068.234.1.343.166a.7.7,0,0,1,.33.68c-.022.164-.1.343-.015.484a.366.366,0,0,0,.158.13,1.132,1.132,0,0,0,.914,0,3.342,3.342,0,0,0,.791-.505l.711-.554c.514-.4,1.288-1.225.682-1.893A2.512,2.512,0,0,0,7.083,25.8Z"/><path fill="#e0503e" d="M13.545,27.694c.3.076.633.26.658.569a.549.549,0,0,1-.28.488,1.046,1.046,0,0,1-.572.123c-.24-.007-.479-.058-.719-.045-.6.033-2.659,1.747-2.506.184C10.247,27.776,12.63,27.462,13.545,27.694Z"/><path fill="#b3362d" d="M7.641,33.383a.815.815,0,0,0,.131.472.77.77,0,0,0,.639.2,4.338,4.338,0,0,0,1.561-.33c.247-.1.516-.273.539-.54a.541.541,0,0,0-.179-.421,1.534,1.534,0,0,0-.4-.256A3.927,3.927,0,0,0,7.8,31.942C7.455,31.979,7.625,33.11,7.641,33.383Z"/><path fill="#c73d29" d="M2.739,31.624a.757.757,0,0,0-.285.012.7.7,0,0,0-.357.409.349.349,0,0,0-.046.288.337.337,0,0,0,.139.133A6.537,6.537,0,0,0,5.6,33.475c1,.01,1.08-1.613.4-2.119a1.452,1.452,0,0,0-1.291-.109A5.339,5.339,0,0,1,2.739,31.624Z"/><path fill="#b3362d" d="M19.267,38.525c.187-.3.626-.287.9-.5a.814.814,0,0,0,.275-.753,1.375,1.375,0,0,0-.385-.731,2.141,2.141,0,0,0-1.131-.626.505.505,0,0,0-.383.039c-.271.188-.247.727-.262,1.009A9.822,9.822,0,0,0,18.3,38.3a.963.963,0,0,0,.209.619.412.412,0,0,0,.336.124C19.116,39.009,19.15,38.71,19.267,38.525Z"/><path fill="#b3362d" d="M18.907,40.209a.373.373,0,0,0,.237.116c.511.064,1.52-1.017.779-1.343-.326-.144-.387.14-.582.347S18.61,39.863,18.907,40.209Z"/><path fill="#b3362d" d="M24.976,44.523c.208-.355.452-1,.158-1.376a.946.946,0,0,0-1.128-.257,2.789,2.789,0,0,1-1.33.178c-.327-.01-.717-.027-.909.237-.2.281-.029.68.206.935a2.93,2.93,0,0,0,1.542.822,1.412,1.412,0,0,0,1.087-.109A1.293,1.293,0,0,0,24.976,44.523Z"/><path fill="#b3362d" d="M24.894,45.39a.5.5,0,0,0,.192.254l.245.207a.947.947,0,0,0,.26.176.327.327,0,0,0,.3-.02.457.457,0,0,0,.134-.384c0-.275.009-.985-.385-1C25.364,44.618,24.833,45.11,24.894,45.39Z"/><path fill="#c73d29" d="M14.076,34.214a.536.536,0,0,0-.326.078.439.439,0,0,0-.141.338,1.5,1.5,0,0,0,.513,1.072c.289.288.633.517.914.813a5.39,5.39,0,0,0,.973,1.025.663.663,0,0,0,.416.114c.29-.035.463-.337.563-.612.234-.639.534-1.62-.107-2.116A4.83,4.83,0,0,0,14.076,34.214Z"/><path fill="#fffafc" d="M30.107,38.281a.886.886,0,0,0,.068.642,1.805,1.805,0,0,1,.192.629,1.043,1.043,0,0,1-.389.754c-.216.2-.475.338-.707.516a2.074,2.074,0,0,0-.873,1.65A1.344,1.344,0,0,0,29.58,43.78a1.429,1.429,0,0,0,.973-.382,3.377,3.377,0,0,0,.655-.841,4.565,4.565,0,0,0,.783-2.444,2.37,2.37,0,0,0-.585-1.492C31.166,38.357,30.336,37.686,30.107,38.281Z"/><path fill="#fffafc" d="M29.236,33.777c-.385-.477-.962-.752-1.49-.3a2.486,2.486,0,0,0-.485.649,3.348,3.348,0,0,1-.564.73,4.891,4.891,0,0,0-.667.831c-.165.259-.3.618-.1.854a.569.569,0,0,0,.646.1,3,3,0,0,0,.58-.388,2.541,2.541,0,0,1,.81-.386c.283-.077.578-.1.86-.187a1.184,1.184,0,0,0,.709-.486A1.317,1.317,0,0,0,29.236,33.777Z"/><path fill="#fffafc" d="M29.024,36.106c-.054.17.112.323.259.423l.652.45a.419.419,0,0,0,.186.087c.139.015.255-.109.317-.234.169-.345.1-1.052-.33-1.2A1.389,1.389,0,0,0,29.024,36.106Z"/><path fill="#fffafc" d="M20.626,28.837c.309.5,1.217.883.915,1.625-.135.332-.487.519-.578.895a.276.276,0,0,0,.006.184.24.24,0,0,0,.146.109.71.71,0,0,0,.6-.136c.176-.121.321-.283.494-.409a7.189,7.189,0,0,1,1.355-.571.942.942,0,0,0,.617-.669c.043-.382-.3-.691-.629-.89a5.362,5.362,0,0,0-2.615-.763.485.485,0,0,0-.3.061C20.472,28.4,20.516,28.661,20.626,28.837Z"/><path fill="#fffafc" d="M15.634,27.19a1.086,1.086,0,0,0-.414.042,1.041,1.041,0,0,0-.37.284,8.253,8.253,0,0,0-.543.639c-.1.131-.2.325-.087.448a.373.373,0,0,0,.277.086,2.333,2.333,0,0,0,.473-.017c.242-.041.465-.157.7-.211s.492-.045.737-.083c.363-.056.73-.4.533-.8S16,27.2,15.634,27.19Z"/><path fill="#fffafc" d="M9.121,27.781a.875.875,0,0,0-.205.249.317.317,0,0,0,0,.309.344.344,0,0,0,.443.061,1.841,1.841,0,0,0,.364-.326c.518-.5,1.329-.552,1.906-.981.131-.1.259-.249.214-.406-.11-.391-1-.229-1.266-.106A6.3,6.3,0,0,0,9.121,27.781Z"/><path fill="#fffafc" d="M11.3,30.718a.516.516,0,0,0,.366.685.665.665,0,0,0,.508-.152c.3-.232.815-.791.246-.986A1.042,1.042,0,0,0,11.3,30.718Z"/><path fill="#fffafc" d="M9.578,25.5a2.881,2.881,0,0,0-1.6-.062c-.332.069-1.317.442-1.085.936a.564.564,0,0,0,.5.239,9.044,9.044,0,0,0,1.6-.063,1.64,1.64,0,0,0,.44-.084A.837.837,0,0,0,9.85,26.1a.431.431,0,0,0,.064-.246A.491.491,0,0,0,9.578,25.5Z"/><ellipse cx="15.016" cy="44.75" fill="#fffdf7" rx=".574" ry=".413" transform="rotate(-44.98 15.017 44.75)"/><ellipse cx="4.016" cy="38.75" fill="#fffdf7" rx=".574" ry=".413" transform="rotate(-44.98 4.016 38.75)"/><ellipse cx="8.016" cy="39.75" fill="#fffdf7" rx=".413" ry=".574"/><ellipse cx="14.016" cy="41.75" fill="#fffdf7" rx=".413" ry=".574"/><ellipse cx="6.016" cy="39.75" fill="#fffdf7" rx=".413" ry=".574"/><ellipse cx="3.016" cy="38.75" fill="#fffdf7" rx=".413" ry=".574"/><ellipse cx="3.016" cy="34.75" fill="#fffdf7" rx=".413" ry=".574"/><ellipse cx="17.016" cy="44.75" fill="#fffdf7" rx=".413" ry=".574"/><ellipse cx="7.016" cy="37.75" fill="#fffdf7" rx=".413" ry=".574"/><ellipse cx="4.016" cy="36.75" fill="#fffdf7" rx=".413" ry=".574" transform="rotate(-44.98 4.017 36.75)"/><ellipse cx="7.016" cy="41.75" fill="#fffdf7" rx=".413" ry=".574" transform="rotate(-44.98 7.017 41.75)"/><ellipse cx="2.016" cy="37.75" fill="#fffdf7" rx=".413" ry=".574" transform="rotate(-44.98 2.017 37.75)"/><ellipse cx="5.016" cy="41.75" fill="#fffdf7" rx=".574" ry=".413" transform="rotate(-44.98 5.016 41.75)"/><ellipse cx="11.016" cy="40.75" fill="#fffdf7" rx=".413" ry=".574"/><ellipse cx="9.016" cy="38.75" fill="#fffdf7" rx=".413" ry=".574"/><ellipse cx="13.016" cy="42.75" fill="#fffdf7" rx=".413" ry=".574"/><ellipse cx="11.016" cy="38.75" fill="#fffdf7" rx=".413" ry=".574"/><ellipse cx="6.016" cy="36.75" fill="#fffdf7" rx=".413" ry=".574"/><ellipse cx="4.016" cy="40.75" fill="#fffdf7" rx=".413" ry=".574" transform="rotate(-44.98 4.017 40.75)"/><ellipse cx="12.016" cy="43.75" fill="#fffdf7" rx=".413" ry=".574" transform="rotate(-44.98 12.017 43.75)"/><ellipse cx="9.016" cy="41.75" fill="#fffdf7" rx=".413" ry=".574" transform="rotate(-44.98 9.017 41.75)"/><ellipse cx="10.016" cy="39.75" fill="#fffdf7" rx=".413" ry=".574" transform="rotate(-44.98 10.016 39.75)"/><ellipse cx="11.016" cy="42.75" fill="#fffdf7" rx=".413" ry=".574" transform="rotate(-44.98 11.016 42.75)"/><path fill="#a0968c" d="M39,1,31.26,14.55c-.69-.19-1.34-.36-1.97-.52-.01-.01-.02-.01-.02,0-.09-.02-.17-.04-.25-.06L35,1Z"/><polygon fill="#beb4aa" points="33.84 15.31 43 1 47 1 36.56 16.08 29 27 27 26 33.84 15.31"/><path fill="#a13028" d="M32,24.664l.826-1.194c-.189-.1-.376-.208-.578-.31A4.637,4.637,0,0,0,32,24.664Z"/><path fill="#ccc7bf" d="M29,27l-1.03-.515L27,28l2,1,1.457-2.1c-.3-.28-.581-.539-.85-.772Z"/><path fill="#a13028" d="M35.182,19.651c-.022,0-.045.006-.067,0a.24.24,0,0,1-.146-.109.276.276,0,0,1-.006-.184c.091-.376.443-.563.578-.895a.731.731,0,0,0-.109-.752l-.328.474a1.94,1.94,0,0,1-.317.827,2.253,2.253,0,0,1-.733.688l-2.249,3.25c.145.071.3.139.445.211.2.1.389.206.578.31l.927-1.339a.928.928,0,0,1,.183-.6,3.156,3.156,0,0,1,.536-.594,2.817,2.817,0,0,1,.232-.175l.512-.74.275-.4a.611.611,0,0,1-.3.029"/><path fill="#872822" d="M34.474,20.933a3.156,3.156,0,0,0-.536.594.928.928,0,0,0-.183.6l.951-1.373A2.817,2.817,0,0,0,34.474,20.933Z"/><path fill="#872822" d="M34.787,19.011a1.94,1.94,0,0,0,.317-.827L34.054,19.7A2.253,2.253,0,0,0,34.787,19.011Z"/><path fill="#872822" d="M31.805,22.949l-.545.787-1.25,1.8-.4.583c.269.233.554.492.85.772L32,24.664a4.637,4.637,0,0,1,.248-1.5C32.11,23.088,31.95,23.02,31.805,22.949Z"/><path fill="#a13028" d="M35.493,19.622l.219-.317q-.267.168-.518.346A.611.611,0,0,0,35.493,19.622Z"/><path fill="#e0503e" d="M36.487,16.185l-.17.246-.754,1.089-.131.19a.731.731,0,0,1,.109.752c-.135.332-.487.519-.578.895a.276.276,0,0,0,.006.184.24.24,0,0,0,.146.109c.022.007.045,0,.067,0,.169-.121.35-.234.531-.347l.847-1.224.826-1.193.168-.243Q37.032,16.392,36.487,16.185Z"/><path fill="#918778" d="M37,1,31.894,11.211a1.994,1.994,0,0,1-2.1,1.073L29.02,13.97c.08.02.16.04.25.06,0-.01.01-.01.02,0,.63.16,1.28.33,1.97.52L39,1Z"/><path fill="#afa59b" d="M29.49,24.265a1,1,0,0,1-1.28.34l-.24-.12L27,26l2,1,7.56-10.92L47,1H45Z"/></g></svg>