<svg xmlns="http://www.w3.org/2000/svg"  viewBox="0 0 256 256" width="256px" height="256px"><path fill="#91b56b" d="M198.488,208.488H57.512c-5.523,0-10-4.477-10-10V57.512c0-5.523,4.477-10,10-10h140.975 c5.523,0,10,4.477,10,10v140.975C208.488,204.011,204.011,208.488,198.488,208.488z"/><path fill="#76a34f" d="M198.488,47.512v140.975c0,5.523-4.477,10-10,10H47.512c0,5.523,4.477,10,10,10h140.975 c5.523,0,10-4.477,10-10V57.512C208.488,51.989,204.011,47.512,198.488,47.512z"/><path fill="#76a34f" d="M222.38,117.298c-1.132,1.132-2.797,1.587-4.327,1.115c-7.856-2.428-18.625,1.004-26.956,9.336 c-5.772,5.772-9.191,12.714-9.94,19.047c-6.333,0.749-13.274,4.168-19.047,9.94c-5.772,5.772-9.191,12.714-9.94,19.047 c-6.333,0.749-13.274,4.168-19.047,9.94c-10.673,10.673-13.305,25.345-5.88,32.77c7.426,7.426,22.098,4.794,32.771-5.879 c5.772-5.772,9.191-12.714,9.94-19.047c6.333-0.749,13.274-4.168,19.047-9.94c5.772-5.772,9.191-12.714,9.94-19.047 c6.333-0.749,13.274-4.168,19.047-9.94c8.282-8.282,11.72-18.972,9.376-26.815c-0.454-1.519,0.006-3.162,1.127-4.283l3.062-3.062 c0.561-0.561,0.561-1.47,0-2.03l-4.147-4.147c-0.561-0.561-1.47-0.561-2.03,0L222.38,117.298z"/><path fill="#648940" d="M231.553,118.448l-4.147-4.147c-0.152-0.152-0.331-0.263-0.521-0.333c0.186,0.509,0.076,1.102-0.333,1.51 l-3.062,3.062c-1.121,1.121-1.581,2.764-1.127,4.283c2.344,7.843-1.094,18.533-9.376,26.815 c-5.772,5.772-12.714,9.191-19.047,9.94c-0.749,6.333-4.168,13.274-9.94,19.047c-5.772,5.772-12.714,9.191-19.047,9.94 c-0.749,6.333-4.168,13.274-9.94,19.047c-9.445,9.445-22.022,12.593-29.937,8.045c0.591,1.029,1.312,1.979,2.166,2.834 c7.426,7.426,22.098,4.794,32.771-5.879c5.772-5.772,9.191-12.714,9.94-19.047c6.333-0.749,13.275-4.168,19.047-9.94 c5.772-5.772,9.191-12.714,9.94-19.047c6.333-0.749,13.274-4.168,19.047-9.94c8.282-8.282,11.72-18.972,9.376-26.815 c-0.454-1.519,0.006-3.162,1.127-4.283l3.062-3.062C232.113,119.918,232.113,119.009,231.553,118.448z"/><ellipse cx="145.491" cy="199.857" fill="#648940" rx="18.725" ry="13.707" transform="rotate(-45.001 145.49 199.86)"/><path fill="#fcc4ae" d="M133.862,205.212c0,3.465,2.809,6.274,6.274,6.274c9.365,0,16.984-7.619,16.984-16.984 c0-3.465-2.809-6.274-6.274-6.274s-6.274,2.809-6.274,6.274c0,2.446-1.991,4.437-4.437,4.437 C136.672,198.939,133.862,201.748,133.862,205.212z"/><path fill="#f2ad97" d="M152.011,188.337c0.071,0.378,0.108,0.767,0.108,1.165c0,9.365-7.619,16.984-16.984,16.984 c-0.398,0-0.787-0.038-1.165-0.108c0.546,2.908,3.099,5.108,6.165,5.108c9.365,0,16.984-7.619,16.984-16.984 C157.12,191.436,154.919,188.883,152.011,188.337z"/><ellipse cx="175.146" cy="170.202" fill="#648940" rx="18.725" ry="13.707" transform="rotate(-45.001 175.145 170.205)"/><ellipse cx="204.88" cy="140.468" fill="#648940" rx="18.725" ry="13.707" transform="rotate(-45.001 204.88 140.471)"/><path fill="#5a7a39" d="M218.121,127.228c-0.864-0.864-1.857-1.548-2.945-2.055c2.635,5.648,0.529,13.857-5.603,19.988 s-14.341,8.239-19.988,5.603c0.508,1.088,1.191,2.08,2.055,2.945c5.353,5.353,15.621,3.765,22.933-3.548 C221.885,142.848,223.474,132.581,218.121,127.228z"/><path fill="#fcc4ae" d="M163.06,175.768c0,3.601,2.92,6.52,6.52,6.52c9.733,0,17.651-7.919,17.651-17.651 c0-3.601-2.92-6.52-6.52-6.52c-3.6,0-6.52,2.919-6.52,6.52c0,2.542-2.069,4.611-4.611,4.611 C165.98,169.248,163.06,172.167,163.06,175.768z"/><path fill="#f2ad97" d="M182.086,158.262c0.095,0.443,0.146,0.903,0.146,1.374c0,9.733-7.919,17.651-17.651,17.651 c-0.472,0-0.931-0.05-1.374-0.146c0.631,2.941,3.246,5.146,6.374,5.146c9.733,0,17.651-7.919,17.651-17.651 C187.232,161.507,185.027,158.893,182.086,158.262z"/><g><path fill="#a54af4" d="M211.39,53.334c-4.2-0.558-8.419,0.612-11.821,3.139c-16.821,12.492-38.334,18.701-60.744,15.722 c-2.236-0.297-4.439-0.68-6.606-1.145c-14.265-3.062-28.162,6.43-30.084,20.893l-0.024,0.179 c-1.503,11.312,4.915,22.174,15.533,26.354c5.785,2.278,11.909,3.933,18.301,4.873c37.618,5.529,72.901-14.902,87.97-47.61 C228.393,66.017,221.999,54.744,211.39,53.334L211.39,53.334z"/><path fill="#b171f4" d="M108.08,94.73c-0.09,0-0.17,0-0.26-0.01c-1.09-0.15-1.86-1.16-1.72-2.25c0.14-1.08,1.15-1.87,2.25-1.72 c1.09,0.15,1.86,1.15,1.72,2.25C109.93,93.99,109.08,94.73,108.08,94.73z M110.79,87.28c-0.37,0-0.74-0.11-1.07-0.31 c-0.93-0.6-1.2-1.83-0.61-2.77c1.85-2.92,4.45-5.37,7.49-7.06c3.12-1.74,6.66-2.66,10.23-2.67c1.52,0,3.041,0.17,4.55,0.49 c2.26,0.49,4.59,0.89,6.92,1.2c3.86,0.51,7.77,0.77,11.63,0.77c13.63,0,26.67-3.06,38.76-9.09c0.971-0.48,2.21-0.06,2.681,0.9 c0.5,0.98,0.09,2.19-0.891,2.68c-6.25,3.12-12.859,5.51-19.649,7.1c-10.681,2.51-21.971,3.08-33.061,1.61 c-2.43-0.33-4.87-0.75-7.229-1.26c-1.23-0.26-2.48-0.4-3.71-0.4c-5.77,0-11.26,3.02-14.34,7.88 C112.12,86.93,111.48,87.28,110.79,87.28z"/><path fill="#a54af4" d="M214.497,54.061c1.261,3.654,1.209,7.79-0.582,11.677c-15.069,32.708-50.351,53.14-87.97,47.61 c-6.391-0.939-12.515-2.595-18.301-4.873c-0.952-0.375-1.871-0.804-2.753-1.282c2.717,5.01,7.15,9.076,12.753,11.282 c5.785,2.278,11.909,3.933,18.301,4.873c37.618,5.529,72.901-14.902,87.97-47.61C227.936,67.009,223.19,57.027,214.497,54.061z"/><path fill="#893add" d="M214.497,54.061c1.261,3.654,1.209,7.79-0.582,11.677c-15.069,32.708-50.351,53.14-87.97,47.61 c-6.391-0.939-12.515-2.595-18.301-4.873c-0.952-0.375-1.871-0.804-2.753-1.282c2.717,5.01,7.15,9.076,12.753,11.282 c5.785,2.278,11.909,3.933,18.301,4.873c37.618,5.529,72.901-14.902,87.97-47.61C227.936,67.009,223.19,57.027,214.497,54.061z"/><path fill="#6c2bc1" d="M217.863,55.672c2.745,4.325,3.426,9.914,1.052,15.067c-15.069,32.708-50.351,53.14-87.97,47.61 c-6.391-0.939-12.515-2.595-18.301-4.873c-2.108-0.83-4.051-1.924-5.799-3.232c2.695,3.6,6.384,6.494,10.799,8.232 c5.785,2.278,11.909,3.933,18.301,4.873c37.618,5.529,72.901-14.902,87.97-47.61C227.38,68.215,224.335,59.763,217.863,55.672z"/><path fill="#8c3f0a" d="M224.25,58.471l-4.232-4.232l5.471-7.822c1.685-2.409,5.138-2.712,7.217-0.633l0,0 c2.079,2.079,1.776,5.531-0.633,7.217L224.25,58.471z"/><path fill="#7c3108" d="M233.385,46.64c-0.327,0.529-0.765,1.003-1.313,1.387l-7.822,5.471l-2.185-2.185l-2.047,2.927l4.232,4.232 L232.072,53C234.174,51.53,234.672,48.715,233.385,46.64z"/><path fill="#76a34f" d="M232.849,72.284c0-7.772-5.783-14.483-9.017-17.628c-3.145-3.233-9.856-9.017-17.628-9.017 c-8.135,0-15.108,6.337-18.045,9.453c-0.894,0.948-0.894,2.431,0,3.379c1.881,1.995,5.417,5.312,9.854,7.439 c-2.811,5.396-3.061,11.815-2.962,15.139c0.038,1.303,1.087,2.351,2.389,2.389c3.324,0.098,9.743-0.152,15.139-2.962 c2.127,4.436,5.443,7.972,7.439,9.854c0.948,0.894,2.431,0.894,3.379,0C226.513,87.392,232.849,80.419,232.849,72.284z"/><path fill="#648940" d="M223.832,54.656c-0.694-0.714-1.562-1.551-2.576-2.424c3.081,3.583,6.593,8.995,6.593,15.052 c0,8.135-6.337,15.108-9.453,18.045c-0.667,0.629-1.599,0.815-2.423,0.559c1.469,1.892,2.953,3.414,4.044,4.441 c0.948,0.894,2.431,0.894,3.379,0c3.116-2.937,9.453-9.911,9.453-18.045C232.849,64.513,227.066,57.801,223.832,54.656z"/></g><g><path fill="#ffa91a" d="M102.04,212.377C89.274,217.572,57.852,170,45.103,138.672s-1.998-34.55,10.767-39.745 c12.765-5.195,22.711-10.396,35.46,20.933S114.805,207.182,102.04,212.377z"/><path fill="#ef7816" d="M91.33,119.859c-6.019-14.791-11.414-21.44-16.775-23.79c2.187,3.516,4.434,8.037,6.775,13.79 c12.749,31.328,23.475,87.323,10.709,92.518c-2.907,1.183-6.782-0.371-11.183-3.846c8.42,9.896,16.214,15.867,21.183,13.846 C114.805,207.182,104.08,151.188,91.33,119.859z"/><path fill="#76a34f" d="M55.737,102.035c-4.613,1.877-9.713,2.308-14.54,1.081c-9.379-2.032-25.453-11.06-23.175-16.013 c2.115-5.055,20.171-0.227,28.144,4.692c-4.893-7.863-9.56-25.487-4.386-27.494c5.118-2.164,14.066,13.696,16.058,22.744 c2.262-9.076,11.845-25.17,16.871-23.011c5.084,1.916-0.118,19.675-5.409,27.645C66.293,96.752,61.228,100.113,55.737,102.035z"/><path fill="#648940" d="M74.708,64.035c-0.862-0.37-1.858-0.204-2.928,0.372c-0.141,6.385-3.789,16.712-7.481,22.273 c-3.006,5.072-8.071,8.433-13.562,10.355c-4.613,1.877-9.713,2.308-14.54,1.081c-5.331-1.155-12.823-4.57-17.881-8.212 c2.661,4.999,15.084,11.523,22.881,13.212c4.827,1.227,9.927,0.796,14.54-1.081c5.491-1.922,10.556-5.283,13.562-10.355 C74.59,83.71,79.792,65.951,74.708,64.035z"/><path fill="#f79219" d="M62.704,113.837l21.282-8.661c1.298,1.993,2.616,4.337,3.962,7.079l-22.21,9.038 c-2.059,0.838-4.408-0.152-5.246-2.211C59.655,117.024,60.645,114.675,62.704,113.837z"/><path fill="#f79219" d="M57.737,145.269l26.518-10.792c2.059-0.838,3.049-3.187,2.211-5.246l0,0 c-0.838-2.059-3.187-3.049-5.246-2.211l-26.518,10.792c-2.059,0.838-3.049,3.187-2.211,5.246v0 C53.329,145.117,55.678,146.107,57.737,145.269z"/><g><path fill="#f79219" d="M66.097,152.283c2.059-0.838,4.408,0.152,5.246,2.211c0.838,2.059-0.152,4.408-2.211,5.246l-11.41,4.643 c-1.337-2.373-2.633-4.752-3.874-7.115L66.097,152.283z"/></g><g><path fill="#f79219" d="M67.017,179.709c-1.476-2.26-2.934-4.573-4.363-6.916l23.808-9.689c2.059-0.838,4.408,0.152,5.246,2.211 c0.838,2.059-0.152,4.408-2.211,5.246L67.017,179.709z"/></g><g><path fill="#f79219" d="M88.215,181.498l17.791-7.24c0.433,2.83,0.794,5.592,1.076,8.254l-15.833,6.443 c-2.059,0.838-4.408-0.152-5.246-2.211C85.166,184.685,86.156,182.336,88.215,181.498z"/></g></g><g><path fill="#76a34f" d="M119.757,160.891c6.286,6.286,16.883,6.474,21.782,6.177c1.548-0.094,2.787-1.334,2.881-2.881 c0.298-4.899,0.109-15.496-6.177-21.782s-16.883-6.474-21.782-6.177c-1.548,0.094-2.787,1.334-2.881,2.881 C113.282,144.008,113.471,154.605,119.757,160.891z"/></g><g><path fill="#648940" d="M138.243,142.404c-0.852-0.852-1.782-1.591-2.767-2.233c4.095,6.285,4.201,14.779,3.944,19.015 c-0.094,1.548-1.334,2.787-2.881,2.881c-4.236,0.257-12.73,0.151-19.015-3.944c0.642,0.985,1.381,1.916,2.233,2.767 c6.286,6.286,16.883,6.474,21.782,6.177c1.548-0.094,2.787-1.334,2.881-2.881C144.718,159.287,144.529,148.69,138.243,142.404z"/></g><g><path fill="#76a34f" d="M91.751,58.616c-4.574,4.574-4.711,12.285-4.495,15.851c0.068,1.126,0.971,2.028,2.097,2.097 c3.565,0.217,11.277,0.079,15.851-4.495c4.574-4.574,4.711-12.285,4.495-15.851c-0.068-1.126-0.971-2.028-2.097-2.097 C104.036,53.905,96.325,54.042,91.751,58.616z"/></g><g><path fill="#648940" d="M109.698,56.218c-0.068-1.126-0.971-2.028-2.097-2.097c-0.779-0.047-1.756-0.078-2.854-0.049 c-0.104,3.93-0.969,9.421-4.543,12.996s-9.066,4.44-12.996,4.543c-0.029,1.099,0.001,2.076,0.049,2.854 c0.068,1.126,0.971,2.028,2.097,2.097c3.565,0.217,11.277,0.079,15.851-4.495S109.915,59.783,109.698,56.218z"/></g></svg>